<?xml version="1.0" standalone="no"?>
<!DOCTYPE svg PUBLIC "-//W3C//DTD SVG 20010904//EN"
 "http://www.w3.org/TR/2001/REC-SVG-20010904/DTD/svg10.dtd">
<svg version="1.0" xmlns="http://www.w3.org/2000/svg"
 width="500.000000pt" height="500.000000pt" viewBox="0 0 500.000000 500.000000"
 preserveAspectRatio="xMidYMid meet">
<metadata>
Created by potrace 1.11, written by Peter Selinger 2001-2013
</metadata>
<g transform="translate(0.000000,500.000000) scale(0.100000,-0.100000)"
fill="#000000" stroke="none">
<path d="M0 2500 l0 -2500 1141 0 c628 0 1140 2 1138 4 -2 2 -22 5 -44 7 -22
1 -48 6 -57 11 -12 6 -18 5 -18 -3 0 -9 -4 -9 -14 0 -8 7 -25 14 -38 16 -23 4
-144 21 -203 29 -42 6 -73 14 -85 21 -6 3 -10 1 -10 -4 0 -7 -7 -7 -20 1 -11
7 -20 16 -20 21 0 8 43 3 60 -8 5 -3 10 -1 10 6 0 9 3 9 14 -1 8 -6 34 -14 58
-16 43 -4 168 -23 201 -30 9 -2 26 -6 37 -8 11 -3 25 -8 30 -11 6 -3 10 -1 10
6 0 9 3 9 14 0 13 -11 231 -16 296 -7 14 2 54 7 90 11 36 4 117 13 180 21 63
7 133 14 156 14 22 0 67 9 99 20 32 11 74 20 94 21 20 1 47 5 61 9 15 5 -1 6
-40 3 -36 -4 -89 -14 -119 -25 -30 -10 -73 -18 -95 -18 -23 0 -93 -7 -156 -14
-63 -8 -144 -17 -180 -21 -36 -4 -68 -9 -72 -11 -4 -2 -9 -1 -12 4 -3 5 0 9 7
9 15 0 137 14 157 18 8 1 46 6 83 10 37 3 76 8 87 10 10 2 44 4 76 6 33 1 64
5 69 8 6 3 13 6 18 7 4 1 9 3 12 4 3 1 10 4 15 5 6 1 11 3 13 5 5 4 46 10 106
14 35 2 66 8 70 13 3 4 15 9 26 11 l20 2 -20 -11 c-11 -6 -27 -20 -35 -31 -11
-13 -37 -22 -80 -28 -36 -5 -87 -16 -115 -24 -27 -8 -129 -22 -225 -31 -96 -9
-186 -18 -200 -20 -14 -3 -61 -8 -105 -11 -44 -4 -82 -8 -83 -9 -2 -2 582 -4
1297 -5 l1301 -1 0 2501 0 2500 -805 0 c-760 0 -805 -1 -806 -17 -1 -10 -1
-22 0 -26 1 -4 -6 -10 -14 -13 -8 -3 -12 -11 -8 -17 3 -6 1 -7 -5 -3 -6 4 -9
13 -6 21 4 8 9 13 13 11 4 -3 8 7 9 22 l2 27 -16 -30 c-9 -16 -17 -39 -19 -50
-2 -11 -6 -31 -10 -45 -3 -14 -7 -32 -9 -39 -3 -18 -26 -27 -26 -11 0 6 4 9 8
6 4 -2 9 7 10 20 1 14 7 35 12 47 11 21 11 21 -4 3 -9 -11 -16 -28 -16 -37 0
-10 -4 -21 -10 -24 -8 -5 -53 -137 -66 -195 -2 -11 -7 -30 -10 -42 -11 -45
-11 -53 -4 -63 16 -22 7 -41 -20 -41 -23 0 -27 4 -26 27 1 15 4 30 7 34 4 3 6
-7 5 -22 -1 -28 25 -41 30 -15 1 7 0 8 -3 2 -10 -20 -23 -10 -19 15 3 13 0 27
-5 30 -5 4 -7 16 -5 28 3 12 7 33 10 47 3 14 7 37 8 53 1 15 6 27 11 27 4 0 6
4 2 9 -3 5 -1 12 5 16 6 4 8 11 5 16 -4 5 -1 9 4 9 6 0 10 3 10 8 -1 4 0 9 1
12 3 10 11 45 12 58 1 6 5 12 10 12 5 0 6 5 3 10 -3 6 -2 10 4 10 5 0 11 -5
13 -11 3 -9 68 104 68 119 0 4 -4 2 -8 -4 -4 -6 -34 -19 -67 -28 -51 -14 -54
-15 -17 -11 24 3 41 2 38 -3 -7 -11 -73 -14 -80 -4 -5 8 -62 -8 -196 -55 -25
-9 -71 -25 -103 -35 -32 -11 -57 -22 -55 -24 5 -4 81 19 130 40 44 19 48 19
48 5 0 -5 -4 -8 -9 -4 -5 3 -12 1 -16 -5 -4 -6 -11 -8 -16 -5 -5 4 -9 1 -9 -5
0 -6 -5 -8 -10 -5 -5 3 -10 2 -10 -3 0 -5 -6 -9 -12 -10 -15 -1 -53 -10 -53
-12 0 -1 -9 -3 -20 -5 -11 -2 -21 -9 -23 -15 -2 -5 -8 -8 -13 -4 -5 3 -9 0 -9
-6 0 -6 -4 -8 -10 -5 -5 3 -10 1 -10 -4 0 -6 -3 -10 -7 -10 -28 5 -53 -2 -47
-13 4 -7 3 -8 -4 -4 -7 4 -12 2 -12 -4 0 -6 -4 -8 -10 -5 -5 3 -10 1 -10 -5 0
-6 -4 -8 -10 -5 -5 3 -10 1 -10 -6 0 -7 -3 -10 -6 -6 -10 9 -64 -14 -57 -26 3
-6 1 -7 -5 -3 -7 4 -12 2 -12 -4 0 -6 -4 -8 -10 -5 -5 3 -10 1 -10 -5 0 -6 -4
-8 -10 -5 -5 3 -10 1 -10 -6 0 -7 -3 -9 -6 -6 -11 10 -45 -13 -38 -25 4 -7 3
-8 -4 -4 -7 4 -12 2 -12 -4 0 -6 -4 -8 -10 -5 -6 3 -10 1 -10 -5 0 -6 -4 -9
-9 -6 -5 3 -12 -1 -15 -10 -4 -9 -9 -14 -13 -10 -3 3 -13 -3 -20 -14 -8 -11
-17 -19 -21 -16 -13 7 -47 -11 -47 -25 -1 -8 -6 -13 -13 -11 -7 1 -12 -2 -12
-8 0 -6 -3 -9 -7 -9 -20 3 -34 -2 -29 -10 3 -5 -1 -14 -9 -21 -8 -7 -15 -9
-15 -5 0 4 -9 -3 -20 -16 -10 -13 -19 -21 -20 -16 0 4 -8 -1 -18 -10 -11 -10
-17 -22 -14 -28 3 -5 2 -7 -2 -3 -5 4 -19 3 -33 -3 -16 -6 -22 -6 -18 1 3 6
12 10 20 10 7 0 16 7 19 16 3 8 11 12 17 8 8 -4 9 -3 5 4 -7 11 6 17 27 13 5
-1 5 4 1 10 -5 8 -3 9 6 4 9 -5 11 -4 6 3 -7 11 6 17 27 13 5 -1 5 4 1 10 -5
8 -3 9 6 4 8 -5 11 -4 6 3 -8 13 48 45 59 34 3 -4 5 -1 3 7 -3 15 52 51 66 43
5 -3 6 0 2 6 -7 11 6 17 27 13 5 -1 6 3 3 8 -3 5 8 14 24 21 31 13 60 40 42
40 -6 0 -12 -3 -14 -8 -1 -4 -34 -27 -73 -50 -141 -87 -350 -252 -320 -252 4
0 13 7 20 17 8 11 14 13 19 5 4 -7 2 -12 -4 -12 -6 0 -9 -4 -6 -9 3 -4 -7 -8
-22 -7 -23 1 -27 -3 -26 -26 1 -15 -3 -25 -7 -22 -5 3 -9 0 -9 -6 0 -6 -5 -8
-12 -4 -8 5 -6 11 5 19 10 7 17 16 17 21 0 13 -87 -75 -153 -156 -34 -41 -65
-76 -69 -78 -5 -2 -8 -10 -8 -18 0 -8 -4 -14 -9 -14 -5 0 -11 -7 -15 -15 -10
-26 3 -16 33 25 15 21 32 36 36 32 5 -4 5 -1 0 7 -6 10 -4 12 5 6 9 -6 11 -4
5 5 -5 9 -4 11 4 6 6 -4 11 -4 10 1 -4 21 2 34 13 27 7 -5 8 -3 3 6 -6 9 -4
11 5 5 9 -6 11 -4 5 5 -6 9 -4 11 5 5 9 -6 11 -4 5 5 -5 9 -4 11 3 6 8 -4 10
-2 6 7 -6 18 12 32 21 17 3 -5 1 -10 -5 -10 -6 0 -9 -4 -6 -9 4 -5 -7 -20 -23
-34 -17 -14 -28 -27 -25 -30 3 -2 -6 -14 -20 -25 -14 -10 -22 -23 -18 -27 4
-5 1 -5 -5 -1 -11 6 -18 -7 -10 -17 5 -8 -26 -36 -34 -31 -9 5 -19 -11 -23
-42 -1 -9 -10 -22 -19 -29 -9 -7 -14 -15 -10 -18 3 -4 -2 -9 -11 -13 -9 -3
-13 -10 -10 -15 3 -5 0 -9 -6 -9 -6 0 -8 -4 -5 -10 3 -5 1 -10 -5 -10 -6 0 -8
-5 -4 -12 4 -7 3 -8 -4 -4 -6 3 -16 -3 -22 -14 -6 -11 -8 -20 -4 -20 3 0 1 -6
-5 -13 -6 -8 -8 -17 -4 -20 3 -4 1 -7 -6 -7 -7 0 -9 -4 -6 -10 3 -5 1 -10 -5
-10 -6 0 -8 -5 -4 -12 4 -7 3 -8 -4 -4 -7 4 -13 2 -13 -3 -2 -12 -5 -26 -9
-38 -1 -5 -2 -11 -1 -15 0 -5 -4 -8 -10 -8 -5 0 -7 -4 -4 -10 3 -5 1 -10 -5
-10 -6 0 -9 -4 -6 -9 4 -5 2 -11 -4 -13 -6 -2 -13 -14 -16 -28 -7 -34 -12 -54
-14 -60 -1 -3 -2 -8 -1 -12 0 -5 -4 -8 -10 -8 -5 0 -8 -4 -4 -9 3 -5 1 -12 -5
-16 -6 -4 -8 -11 -5 -16 4 -5 1 -9 -5 -9 -7 0 -9 7 -5 18 3 9 15 43 26 75 20
58 112 251 153 320 12 20 26 34 30 30 4 -5 7 -3 6 2 -5 23 1 36 13 29 6 -4 9
-4 5 1 -4 4 -4 13 1 19 11 15 24 52 15 43 -41 -41 -205 -354 -231 -439 -13
-46 -33 -65 -33 -33 0 32 145 328 205 420 11 16 15 26 8 22 -6 -4 -14 -3 -18
3 -3 5 -1 10 4 10 6 0 10 5 9 12 -2 7 3 12 10 13 15 0 33 26 26 37 -3 5 2 11
10 14 9 3 13 10 10 15 -3 5 0 8 8 7 7 -2 12 3 10 10 -1 6 3 12 9 12 5 0 8 4 4
9 -3 5 4 16 15 24 11 7 17 16 14 19 -3 3 7 15 22 27 15 11 23 21 19 21 -4 0
-2 7 5 15 7 8 16 13 20 10 4 -3 13 2 20 10 7 8 9 15 5 15 -4 0 -2 7 5 15 7 8
16 13 20 10 4 -3 13 2 20 10 7 8 9 15 5 15 -4 0 -2 7 5 15 7 8 16 13 20 10 11
-7 42 24 35 35 -3 4 2 13 10 20 8 7 15 9 15 6 0 -4 9 -2 20 4 11 6 18 15 16
19 -3 5 3 16 14 26 11 10 20 15 20 10 0 -4 9 4 21 19 11 14 24 24 29 21 4 -3
11 2 14 10 3 8 9 15 13 14 20 -3 33 2 31 14 -2 6 3 11 10 9 6 -1 12 3 12 9 0
5 4 8 8 5 11 -7 37 11 37 26 1 7 6 12 13 10 7 -1 12 3 12 9 0 5 5 7 10 4 6 -4
7 -12 3 -18 -4 -7 5 -4 20 6 95 62 373 207 397 207 22 0 8 -18 -22 -30 -51
-19 -258 -123 -254 -127 2 -2 52 20 112 50 60 30 128 62 150 72 25 10 41 23
40 32 -1 17 143 75 274 111 43 12 64 23 62 32 -2 10 0 11 10 3 9 -7 25 -7 53
2 32 10 -277 13 -1607 14 l-1648 1 0 -2500z m3178 2474 c-3 -2 -29 -11 -59
-18 -30 -8 -62 -18 -71 -21 -12 -5 -18 -2 -18 6 0 7 3 9 7 6 3 -4 12 -2 20 4
7 6 13 8 13 4 0 -4 7 -2 15 5 8 7 15 10 15 7 0 -4 9 -3 21 1 23 9 64 13 57 6z
m142 -16 c0 -22 -37 -71 -44 -59 -4 6 -2 11 4 11 6 0 8 5 4 12 -4 6 -3 8 3 5
12 -8 26 20 17 34 -3 5 0 9 5 9 6 0 11 -6 11 -12z m-116 -23 c-3 -8 -9 -14
-12 -13 -4 0 -10 -1 -14 -2 -5 -1 -12 -4 -18 -5 -5 -1 -12 -4 -15 -5 -3 -1 -9
-4 -15 -5 -5 -1 -11 -3 -12 -5 -2 -1 -19 -4 -38 -6 -22 -3 -6 6 45 24 44 16
81 30 82 31 1 0 0 -6 -3 -14z m-184 -9 c0 -2 -35 -16 -77 -31 -43 -15 -82 -31
-87 -36 -6 -5 -16 -9 -24 -9 -20 0 -236 -108 -326 -163 -74 -45 -97 -53 -81
-28 3 6 10 9 15 6 4 -3 11 2 14 11 3 8 10 12 16 9 5 -3 10 -1 10 4 0 6 3 10 8
9 16 -4 52 14 46 24 -4 6 -2 8 3 5 6 -4 14 0 17 8 3 8 9 15 13 14 4 -1 11 0
16 1 4 1 10 3 15 4 33 8 51 19 46 28 -4 7 -2 8 4 4 7 -4 12 -2 12 4 0 6 5 8
10 5 6 -3 10 -1 10 5 0 6 4 9 9 5 5 -3 12 -1 16 5 4 6 10 8 15 5 5 -3 15 1 23
9 8 8 17 12 21 9 3 -4 6 -1 6 6 0 7 5 9 10 6 6 -3 10 -1 10 4 0 6 3 10 8 10
27 -5 52 2 46 13 -4 6 -3 8 4 4 6 -3 13 -2 17 4 4 6 11 8 16 5 5 -4 9 -1 9 5
0 6 4 9 9 5 5 -3 12 -1 16 5 4 6 10 8 15 5 5 -3 11 -1 15 5 4 6 10 8 15 5 5
-3 11 -2 14 3 4 7 46 14 46 8z m283 -129 c-4 -7 -8 -15 -9 -19 -1 -5 -2 -9 -4
-10 -1 -2 -4 -12 -6 -23 -8 -33 -12 -50 -14 -52 -2 -2 -4 -7 -5 -13 -1 -5 -3
-11 -5 -12 -1 -2 -3 -10 -5 -18 -2 -8 -7 -26 -10 -40 -3 -14 -7 -30 -9 -37 -1
-7 -5 -15 -9 -19 -6 -6 -4 8 8 56 3 11 7 28 9 38 17 73 50 170 58 166 4 -3 5
-11 1 -17z m-86 -402 c0 -27 -4 -31 -27 -31 -23 0 -27 4 -27 31 0 27 4 31 27
31 23 0 27 -4 27 -31z m-1146 -102 c-5 -10 -9 -21 -10 -25 -1 -5 -2 -7 -3 -6
-2 1 -14 -5 -28 -12 -21 -11 -19 -7 10 23 39 41 45 45 31 20z m1156 -32 c0 -9
-3 -20 -7 -26 -4 -5 -6 -19 -3 -30 2 -11 6 -29 8 -40 2 -11 7 -33 10 -50 3
-16 10 -46 14 -65 5 -19 12 -48 15 -64 4 -15 9 -27 11 -24 2 2 -2 31 -10 64
-8 34 -16 73 -19 87 -2 15 -7 31 -10 36 -4 5 -3 12 2 15 5 3 9 0 10 -7 0 -7 3
-22 6 -34 33 -126 38 -161 27 -168 -6 -3 -2 -24 9 -51 22 -50 25 -74 10 -74
-5 0 -14 19 -21 43 -6 23 -13 48 -15 55 -2 7 -9 11 -16 10 -7 -2 -13 3 -14 10
-1 6 -3 14 -4 17 -1 3 -4 10 -5 15 -1 6 -3 11 -5 13 -9 11 -33 164 -25 155 4
-3 9 -21 11 -40 3 -18 12 -58 21 -88 9 -30 16 -60 16 -67 0 -7 4 -10 8 -8 4 3
-1 31 -11 62 -10 32 -21 76 -24 98 -4 22 -9 51 -11 63 -2 13 -7 27 -11 30 -4
4 -4 -1 -1 -10 3 -10 3 -19 -1 -22 -4 -3 -8 4 -9 14 -1 11 2 22 7 25 5 3 7 17
4 30 -4 25 9 35 19 15 3 -6 4 -5 3 2 -5 26 -31 13 -30 -15 1 -15 -1 -25 -5
-22 -3 4 -6 19 -7 34 -1 23 3 27 26 27 17 0 27 -5 27 -15z m10 -63 c2 -12 1
-19 -2 -16 -3 3 -8 16 -10 28 -2 12 -1 20 2 16 4 -4 8 -16 10 -28z m-1457
-193 c0 -3 -10 -22 -23 -43 -41 -67 -46 -76 -91 -167 -66 -133 -96 -203 -96
-223 0 -9 -5 -24 -10 -32 -8 -11 -9 -5 -4 20 3 19 7 41 7 48 0 6 4 12 9 12 5
0 6 5 3 10 -3 6 -1 10 5 10 6 0 9 4 5 9 -3 5 -1 12 5 16 6 4 7 11 4 17 -4 7
-2 8 4 4 11 -6 18 19 13 47 0 4 4 7 10 7 5 0 7 5 4 10 -3 6 -1 10 5 10 6 0 8
5 5 10 -3 6 -1 10 5 10 6 0 8 5 4 12 -4 7 -3 8 4 4 7 -4 13 -2 13 3 2 12 5 26
9 39 1 4 2 10 1 15 0 4 4 7 10 7 5 0 7 5 4 10 -3 6 -1 10 5 10 6 0 8 5 4 12
-4 7 -3 8 5 4 11 -7 33 32 24 47 -2 4 1 7 7 7 6 0 9 4 5 9 -3 6 3 14 12 20 10
6 14 11 10 11 -11 0 2 20 14 20 5 0 9 -2 9 -5z m1525 -75 c-3 -5 -1 -11 5 -15
6 -4 8 -11 5 -16 -4 -5 -2 -9 2 -9 5 0 10 -8 11 -17 1 -10 4 -27 6 -38 2 -11
5 -26 5 -33 1 -7 6 -10 13 -6 6 4 8 3 4 -4 -3 -6 -2 -13 4 -17 6 -4 8 -10 5
-15 -3 -5 -1 -11 5 -15 6 -4 8 -11 5 -16 -4 -5 -2 -9 3 -9 5 0 9 -6 10 -12 2
-31 13 -63 22 -66 6 -2 8 -8 4 -13 -3 -5 0 -9 5 -9 6 0 10 -3 10 -7 -1 -5 0
-10 1 -13 1 -3 4 -18 6 -35 3 -16 9 -32 15 -33 5 -2 7 -8 3 -13 -3 -5 0 -9 6
-9 6 0 9 -4 5 -9 -3 -5 -1 -12 5 -16 6 -4 8 -11 5 -16 -4 -5 -1 -9 4 -9 6 0
10 -3 10 -7 -1 -5 -1 -10 1 -13 5 -13 10 -53 6 -49 -5 5 -38 85 -71 174 -13
33 -35 92 -49 130 -15 39 -33 84 -41 102 -8 17 -15 38 -15 46 0 9 -9 36 -19
61 -16 35 -17 44 -5 39 7 -3 12 -9 9 -13z m0 -150 c4 -7 11 -26 15 -44 4 -17
11 -39 15 -48 4 -11 3 -18 -5 -18 -6 0 -8 5 -5 10 3 6 2 10 -3 10 -5 0 -9 6
-9 13 -2 33 -14 71 -25 79 -7 4 -9 8 -4 8 5 0 3 6 -3 13 -6 8 -8 17 -4 20 3 4
1 7 -6 7 -7 0 -10 4 -6 9 3 5 2 12 -3 15 -4 2 -9 19 -10 38 -1 25 4 18 22 -33
13 -36 27 -72 31 -79z m19 23 c3 -10 9 -24 12 -30 3 -7 2 -13 -4 -13 -7 0 -32
42 -32 55 0 13 18 3 24 -12z m39 -100 c8 -27 25 -70 36 -98 39 -97 129 -331
156 -405 23 -63 38 -101 63 -153 2 -4 -5 -4 -15 -1 -17 6 -17 6 -1 -7 21 -16
36 -79 20 -79 -6 0 -14 17 -18 38 -4 20 -9 31 -11 25 -3 -7 0 -28 6 -46 9 -27
16 -33 38 -33 20 1 27 -4 30 -24 2 -18 1 -21 -6 -10 -5 8 -7 18 -4 24 3 5 1 6
-5 2 -15 -9 1 -51 19 -51 8 0 15 -6 15 -12 1 -7 3 -15 4 -18 1 -3 4 -9 5 -15
1 -5 3 -11 4 -12 3 -3 8 -35 16 -83 2 -16 -1 -36 -8 -44 -9 -11 -9 -13 0 -8 6
4 15 2 19 -4 4 -8 3 -9 -5 -5 -8 5 -10 -1 -6 -23 6 -35 -4 -40 -23 -11 -9 15
-9 20 0 20 6 0 8 3 4 8 -4 4 -12 7 -18 7 -6 0 -12 7 -14 15 -7 32 -13 55 -14
55 -2 0 -8 25 -15 63 -4 18 -2 39 3 45 7 8 6 20 -3 37 -8 14 -14 21 -15 17 0
-5 5 -17 10 -27 8 -15 7 -18 -3 -14 -16 6 -18 34 -4 52 6 7 6 12 1 11 -20 -3
-35 2 -29 10 3 5 1 12 -4 15 -5 3 -8 29 -7 57 1 27 -2 56 -7 62 -6 8 -7 6 -3
-5 3 -10 1 -20 -3 -22 -5 -3 -8 7 -7 22 0 33 -16 92 -50 177 -13 33 -24 66
-24 73 0 7 -11 35 -25 62 -14 27 -25 54 -25 59 0 6 -13 40 -30 76 -16 36 -30
71 -30 78 0 7 -11 37 -25 65 -26 53 -31 82 -17 82 5 0 16 -21 25 -47z m7 -99
c0 -7 11 -37 24 -67 14 -29 31 -71 39 -92 8 -22 18 -48 22 -57 4 -11 3 -18 -5
-18 -6 0 -8 5 -5 10 3 6 1 10 -5 10 -6 0 -8 5 -5 10 3 6 2 10 -3 10 -5 0 -9 7
-10 15 -1 8 -3 22 -4 30 -1 8 -5 15 -10 15 -4 0 -7 3 -7 8 4 24 -2 42 -13 36
-6 -4 -8 -3 -4 4 3 6 2 13 -4 17 -6 4 -8 11 -5 16 4 5 1 9 -4 9 -6 0 -10 3
-10 8 5 29 -2 62 -13 56 -6 -4 -8 -3 -4 4 3 6 2 13 -4 17 -6 4 -8 11 -4 16 7
11 34 -35 34 -57z m-1780 -58 c0 -2 -7 -20 -15 -39 -8 -20 -15 -47 -15 -59 0
-28 -16 -55 -27 -45 -9 9 36 147 49 147 4 0 8 -2 8 -4z m-40 -30 c0 -2 -7 -23
-15 -47 -9 -24 -14 -50 -13 -59 1 -8 -1 -21 -5 -27 -5 -7 -10 -23 -13 -35 -13
-59 -15 -72 -9 -67 3 4 8 17 11 30 3 13 7 31 9 39 2 8 4 18 4 23 1 4 6 7 11 7
10 0 9 -13 -4 -67 -14 -54 -14 -63 -5 -69 7 -4 8 -37 3 -93 -9 -100 -9 -141
-1 -231 l5 -66 -31 -1 c-29 -1 -30 -1 -7 6 24 7 25 10 20 67 -6 81 -6 124 2
229 5 71 4 79 -3 40 -12 -63 -15 -249 -5 -292 10 -42 -7 -44 -46 -6 -15 15
-28 22 -28 16 0 -6 10 -18 23 -26 l22 -16 -25 3 c-14 2 -23 5 -21 7 8 7 -20
50 -28 44 -5 -2 -13 1 -19 8 -11 13 -12 17 -12 43 0 9 -5 12 -12 8 -7 -4 -8
-3 -4 4 4 7 2 12 -4 12 -6 0 -8 5 -5 10 3 6 1 10 -5 10 -6 0 -8 5 -5 10 3 6 2
10 -3 10 -5 0 -9 6 -10 13 0 6 -3 23 -6 36 -3 14 -1 30 5 37 7 8 6 14 -2 20
-8 5 -10 3 -4 -7 7 -12 5 -12 -6 -1 -14 13 -22 75 -9 67 4 -2 7 22 6 55 -1 51
-3 58 -13 43 -7 -10 -21 -27 -31 -38 -10 -11 -40 -51 -67 -90 -27 -38 -53 -71
-57 -73 -5 -2 -8 -10 -8 -17 0 -8 -7 -21 -16 -30 -9 -9 -14 -18 -11 -21 3 -4
19 15 34 40 16 26 33 43 37 39 4 -5 7 -3 6 2 -5 21 0 36 10 30 6 -4 10 -3 9 2
-4 21 2 34 13 27 7 -5 8 -3 3 6 -6 9 -4 11 5 5 8 -5 11 -4 7 2 -4 6 0 16 8 23
8 7 15 19 15 26 0 8 5 14 10 14 7 0 7 -6 1 -19 -6 -10 -8 -21 -5 -23 3 -3 -9
-17 -25 -31 -16 -13 -27 -27 -24 -31 3 -3 -2 -8 -11 -12 -9 -3 -13 -10 -10
-15 3 -5 -2 -12 -10 -15 -9 -3 -13 -11 -9 -17 3 -6 1 -7 -5 -3 -11 6 -16 -6
-13 -26 0 -5 -4 -8 -10 -8 -5 0 -7 -6 -3 -12 4 -7 4 -10 -1 -6 -10 10 -37 -11
-29 -23 3 -5 0 -9 -6 -9 -6 0 -8 -4 -5 -10 3 -5 1 -10 -5 -10 -6 0 -8 -4 -5
-10 3 -5 1 -10 -4 -10 -6 0 -10 -6 -9 -12 2 -7 -2 -12 -9 -11 -11 2 -22 -20
-27 -54 -1 -8 -8 -18 -15 -22 -7 -5 -13 -12 -13 -17 0 -5 -4 -8 -9 -7 -8 3
-14 -27 -10 -49 1 -7 -14 -12 -31 -9 -8 1 -23 -23 -38 -64 -6 -15 -6 -24 -1
-20 5 3 12 1 16 -5 6 -9 -7 -14 -27 -11 -8 1 -41 -66 -53 -106 -6 -22 -25 -32
-25 -14 0 8 43 104 105 235 10 22 19 51 19 65 1 14 5 33 11 41 5 8 10 18 10
23 0 4 5 7 10 8 13 0 35 41 29 51 -3 5 0 8 6 8 6 0 8 5 5 10 -3 6 -1 10 5 10
6 0 8 5 5 10 -3 6 1 13 9 16 9 3 13 11 9 17 -3 6 -1 7 5 3 11 -7 35 27 26 37
-3 3 4 10 15 17 12 6 19 15 16 21 -4 5 -1 9 5 9 6 0 8 5 5 10 -3 6 -1 10 5 10
6 0 9 4 5 9 -3 5 5 17 17 25 12 9 18 16 13 16 -6 1 0 9 12 19 12 10 20 21 18
25 -3 3 -2 4 2 1 9 -7 44 26 37 36 -3 5 0 9 6 9 6 0 8 5 5 10 -3 6 1 13 9 16
9 3 14 10 11 14 -8 13 26 35 55 36 24 1 27 -3 27 -32 0 -18 -4 -31 -8 -29 -4
3 -5 14 -2 24 6 23 -13 37 -31 22 -7 -6 -17 -7 -21 -3 -5 4 -5 1 0 -7 5 -10 4
-12 -4 -7 -6 4 -11 4 -10 -1 4 -22 -2 -34 -13 -27 -7 4 -10 4 -6 -1 4 -4 3
-17 -3 -29 -10 -21 -10 -21 6 -1 68 87 77 93 72 40 -2 -19 -1 -33 3 -30 4 2 7
-11 7 -30 0 -19 -4 -32 -9 -28 -11 6 -3 -56 8 -65 4 -4 4 1 1 10 -3 10 -3 20
2 22 11 7 10 -26 -1 -41 -6 -7 -4 -14 3 -19 8 -5 9 -3 4 7 -8 12 -6 12 8 0 9
-7 15 -17 12 -21 -3 -5 -1 -11 5 -15 6 -4 8 -11 5 -16 -4 -5 -1 -9 5 -9 6 0 9
-4 5 -9 -3 -5 -1 -12 5 -16 6 -4 8 -11 5 -16 -4 -5 -1 -9 4 -9 6 0 10 -3 10
-7 -4 -22 2 -33 14 -27 6 4 9 4 5 -1 -4 -4 0 -13 8 -20 15 -11 15 -12 0 -12
-17 0 -76 110 -79 147 -1 10 -5 16 -9 14 -19 -12 66 -176 115 -222 l24 -22 -9
62 c-8 55 1 218 16 295 3 13 1 25 -5 28 -9 6 -8 18 6 75 3 14 9 39 12 55 8 45
11 60 13 63 2 1 4 7 5 12 1 6 4 13 5 18 1 4 2 10 1 15 0 4 4 7 9 7 6 0 10 -2
10 -4z m34 -53 c-4 -21 -7 -44 -7 -50 0 -7 -3 -13 -7 -13 -4 0 -7 -6 -8 -12 0
-7 -3 -23 -6 -35 -10 -39 -17 -67 -20 -80 -1 -7 -5 -15 -9 -19 -6 -6 -4 11 9
59 3 12 7 33 8 47 1 14 8 35 14 47 7 12 12 31 12 42 0 21 9 51 16 51 2 0 1
-17 -2 -37z m1941 -112 c-3 -5 -1 -12 5 -16 6 -4 8 -11 5 -16 -4 -5 -2 -9 3
-9 5 0 9 -7 10 -15 1 -8 3 -22 4 -30 1 -8 5 -15 10 -15 5 0 7 -4 3 -9 -3 -5
-1 -12 5 -16 6 -4 8 -11 5 -16 -4 -5 -1 -9 4 -9 6 0 10 -3 10 -7 -1 -5 0 -10
1 -13 1 -3 4 -18 6 -35 3 -16 8 -32 12 -35 4 -3 8 -14 10 -25 2 -18 2 -18 -8
-3 -6 10 -17 37 -24 60 -8 24 -28 81 -45 127 -35 96 -34 91 -20 91 5 0 8 -4 4
-9z m-13 -116 c39 -105 47 -135 36 -141 -6 -4 -8 -3 -4 4 3 6 2 13 -4 17 -6 4
-8 11 -5 16 4 5 2 9 -3 9 -5 0 -9 6 -10 13 -3 42 -7 57 -15 57 -4 0 -6 4 -2 9
3 5 1 12 -5 16 -6 4 -8 11 -5 16 4 5 1 9 -5 9 -6 0 -8 5 -5 10 3 6 2 10 -2 10
-5 0 -10 15 -11 33 l-1 32 13 -35 c7 -19 20 -53 28 -75z m-2217 30 c-1 -14 -5
-28 -10 -32 -4 -5 -5 -2 -1 5 4 6 2 12 -4 12 -8 0 -8 6 0 20 14 26 16 25 15
-5z m190 -17 c-14 -70 -25 -235 -19 -280 5 -37 4 -49 -4 -44 -17 10 -36 47
-22 44 6 -2 12 34 15 92 4 84 10 139 20 190 5 20 4 20 9 20 3 0 3 -10 1 -22z
m2150 -207 c-3 -5 -2 -12 3 -15 4 -2 8 -19 9 -38 l2 -33 -13 40 c-12 37 -12
55 0 55 3 0 3 -4 -1 -9z m491 -135 c0 -67 3 -132 7 -146 9 -33 18 -70 22 -96
5 -33 32 -84 73 -138 20 -27 42 -56 47 -65 6 -9 13 -18 16 -21 13 -11 99 -139
99 -148 0 -4 7 -17 15 -28 13 -17 13 -15 0 17 -8 20 -11 40 -7 44 4 5 2 6 -3
2 -12 -6 -58 56 -58 78 0 8 -4 12 -8 10 -8 -6 -42 44 -42 62 0 7 -5 9 -10 6
-6 -4 -7 -1 -2 7 5 8 4 11 -3 6 -13 -8 -43 33 -35 48 3 6 2 8 -2 3 -11 -9 -46
43 -38 56 3 6 2 7 -3 4 -6 -3 -15 7 -21 24 -8 20 -8 31 -1 36 7 3 8 1 4 -5 -4
-7 -2 -12 5 -12 7 0 9 -3 6 -7 -4 -3 1 -15 10 -26 10 -10 17 -21 16 -23 -8
-12 -1 -24 9 -18 6 4 8 3 5 -3 -4 -6 0 -14 9 -17 9 -4 14 -9 11 -13 -9 -8 12
-45 22 -38 5 2 14 -2 21 -10 7 -8 9 -15 4 -15 -5 0 -2 -5 6 -10 8 -5 16 -14
16 -20 1 -5 2 -15 3 -20 0 -6 7 -9 14 -8 6 2 11 -3 9 -9 -1 -7 3 -13 10 -13 6
0 8 -3 5 -6 -10 -11 13 -45 25 -38 6 4 8 3 5 -3 -4 -6 0 -14 8 -17 8 -3 15 -9
14 -13 -1 -4 0 -10 1 -13 2 -6 9 -36 15 -65 3 -11 8 -32 11 -47 4 -17 2 -28
-4 -28 -6 0 -13 12 -17 28 -6 29 -55 114 -55 96 0 -6 -7 -11 -15 -11 -8 0 -13
2 -11 4 9 9 -12 58 -25 58 -8 1 -13 6 -11 13 1 7 -2 12 -8 12 -6 0 -9 3 -9 8
3 19 -2 33 -10 28 -8 -5 -36 20 -36 33 0 3 -4 5 -8 3 -5 -1 -6 1 -4 5 7 13
-12 55 -22 48 -14 -8 -27 14 -30 50 0 8 -7 14 -13 13 -7 -2 -12 3 -10 10 1 6
-3 12 -9 12 -5 0 -7 5 -4 10 3 6 1 10 -6 10 -7 0 -10 3 -6 6 9 10 -14 64 -26
57 -5 -3 -7 -1 -3 5 3 6 2 13 -4 17 -6 4 -8 11 -5 16 4 5 2 9 -2 9 -5 0 -10 8
-11 18 -1 9 -4 26 -6 37 -2 11 -5 54 -5 96 -1 60 -4 76 -16 76 -8 0 -15 -4
-15 -9 0 -4 -3 -7 -7 -7 -22 4 -33 -2 -27 -13 4 -7 4 -10 -1 -6 -5 5 -15 -1
-22 -12 -8 -11 -17 -19 -21 -17 -4 2 -17 -7 -29 -20 -12 -13 -19 -23 -15 -23
4 -1 -3 -9 -16 -20 -13 -10 -23 -23 -23 -27 -1 -4 -5 -7 -9 -6 -10 3 -31 -53
-23 -61 4 -3 1 -6 -6 -6 -7 0 -10 -4 -6 -9 3 -5 1 -12 -5 -16 -6 -4 -8 -11 -5
-16 4 -5 1 -9 -5 -9 -13 0 -8 20 21 88 11 24 23 40 29 37 6 -4 10 -3 9 2 -4
21 2 34 13 27 7 -5 8 -3 3 6 -5 9 -4 11 4 6 6 -4 11 -4 10 1 -3 20 2 33 14 31
6 -2 11 3 10 10 -3 11 10 16 30 13 5 -1 5 4 1 10 -5 8 -3 9 6 4 8 -5 11 -4 7
2 -5 8 69 59 83 56 3 -1 4 3 3 8 -2 5 1 9 6 9 5 0 11 -51 13 -112 5 -105 7
-118 43 -193 21 -44 38 -85 38 -92 0 -7 4 -10 9 -7 4 3 12 -5 17 -18 5 -13 16
-30 25 -37 19 -16 21 -8 4 11 -21 22 -36 48 -80 138 -40 82 -41 90 -47 208
l-6 123 -34 -26 c-19 -14 -41 -25 -48 -25 -7 0 -13 -3 -13 -7 0 -5 -16 -19
-35 -31 -40 -28 -112 -120 -127 -162 -12 -35 -34 -41 -24 -7 7 23 16 64 18 85
1 6 5 12 10 12 5 0 7 4 3 9 -3 5 6 18 20 29 13 11 22 22 19 24 -2 3 2 11 11
18 8 7 15 9 15 4 0 -5 7 2 16 14 8 12 20 20 25 17 5 -4 9 -1 9 4 0 6 6 10 13
9 6 -2 11 3 9 10 -1 8 2 11 8 7 5 -3 10 -1 10 5 0 6 5 8 10 5 6 -3 10 -1 10 4
0 6 3 10 8 10 20 -3 32 2 26 13 -4 6 -3 8 2 5 6 -3 15 -2 22 2 7 4 25 7 40 7
l27 0 1 -120z m-3215 -144 c-64 -126 -152 -344 -150 -371 0 -13 1 -13 6 -1 28
84 56 150 64 150 12 0 12 -3 -6 -36 -8 -16 -15 -36 -15 -45 0 -9 -7 -33 -15
-52 -12 -28 -12 -37 -2 -43 6 -4 9 -4 5 1 -4 4 -1 23 7 42 8 20 15 42 15 50 0
8 11 39 25 69 14 30 25 58 25 63 0 19 36 76 50 79 10 1 9 -2 -4 -13 -11 -8
-16 -15 -12 -15 5 0 3 -6 -3 -13 -6 -8 -7 -18 -3 -22 4 -5 1 -5 -5 -1 -12 6
-19 -18 -14 -46 0 -5 -4 -8 -10 -8 -5 0 -8 -4 -4 -9 3 -5 1 -12 -5 -16 -6 -4
-7 -11 -4 -17 4 -7 2 -8 -4 -4 -7 4 -12 1 -13 -6 0 -7 -3 -22 -5 -33 -2 -11
-5 -28 -6 -37 -1 -10 -6 -18 -10 -18 -4 0 -7 -3 -7 -7 1 -5 0 -11 -1 -15 -1
-5 -3 -14 -4 -20 0 -7 -7 -13 -15 -13 -18 0 -34 -42 -19 -51 6 -4 8 -3 5 2 -3
6 -1 16 4 24 7 12 8 11 6 -5 -1 -11 -6 -26 -11 -33 -5 -8 -10 -37 -12 -65 -5
-70 -6 -77 -15 -71 -5 2 -6 -9 -4 -26 2 -16 0 -32 -4 -35 -5 -2 -8 8 -7 23 1
27 -25 40 -30 14 -1 -7 0 -8 3 -2 10 20 23 10 19 -15 -3 -13 -1 -27 4 -30 5
-3 8 -14 7 -25 -1 -10 -5 -17 -9 -14 -4 3 -4 12 -1 22 3 9 3 14 -1 10 -9 -7
-14 -32 -15 -70 -1 -16 -5 -28 -9 -28 -4 0 -6 16 -4 36 3 23 1 34 -5 31 -11
-7 -12 47 -1 59 4 3 5 -6 2 -22 -3 -20 -2 -25 5 -15 7 11 8 46 0 46 -1 0 -3
10 -4 22 -1 12 1 21 4 19 3 -2 6 17 7 42 1 62 7 90 24 105 10 10 11 9 5 -2 -6
-10 -4 -12 4 -7 7 5 9 12 3 19 -14 17 -11 45 5 51 10 4 11 1 3 -14 -5 -10 -10
-22 -10 -27 1 -4 7 3 15 17 8 16 10 29 4 36 -11 14 -8 64 5 64 5 0 6 3 3 7 -4
3 -2 12 4 20 6 7 8 13 4 13 -4 0 -2 7 5 15 7 8 9 15 4 15 -5 0 -3 4 4 8 11 8
22 38 24 70 1 6 5 12 10 12 5 0 7 4 4 9 -4 5 -1 11 4 13 6 2 13 12 15 23 2 11
4 21 5 23 2 1 4 7 5 12 1 6 4 13 5 18 1 4 2 11 1 15 -1 4 6 10 14 13 8 3 12
10 9 15 -3 5 0 9 6 9 6 0 8 5 5 10 -3 6 -1 10 5 10 6 0 9 4 5 9 -3 5 -1 12 5
16 6 4 8 11 5 16 -4 5 1 12 9 15 9 3 13 11 9 17 -3 6 -1 7 5 3 8 -5 -1 -32
-27 -84z m2872 -34 c-18 -52 -26 -63 -18 -23 4 17 7 36 7 43 1 6 5 12 10 12 5
0 6 5 2 12 -4 6 -3 8 3 5 7 -5 6 -21 -4 -49z m-2817 27 c-8 -7 -13 -15 -9 -18
3 -4 1 -7 -6 -7 -7 0 -10 -4 -6 -9 3 -5 1 -12 -5 -16 -13 -8 -13 8 1 38 6 13
18 24 26 24 14 0 14 -2 -1 -12z m2834 -61 c0 -3 -4 -13 -10 -23 -12 -24 -19
-60 -27 -148 -4 -53 -10 -73 -20 -73 -10 0 -12 6 -8 20 3 11 2 20 -3 20 -5 0
-15 26 -20 58 l-11 57 6 -55 c3 -30 6 -60 6 -67 0 -7 4 -10 8 -8 3 3 6 -3 5
-13 -1 -11 6 -17 19 -17 17 0 21 9 26 65 9 89 16 131 24 138 3 4 4 -7 1 -23
-5 -28 -19 -158 -19 -181 0 -14 -63 -14 -65 0 0 6 -4 25 -8 41 -4 17 -8 53 -8
82 -1 28 -3 50 -6 48 -3 -2 -7 5 -7 16 -2 18 0 18 17 -3 20 -23 21 -22 24 22
1 17 36 27 36 11 0 -6 -8 -8 -17 -5 -15 5 -16 4 -3 -5 13 -9 13 -12 1 -20 -8
-5 -10 -14 -6 -21 5 -8 4 -11 -2 -7 -5 4 -8 -6 -5 -24 5 -36 19 -27 24 16 5
40 30 105 40 105 4 0 8 -3 8 -6z m612 -514 c12 -36 21 -69 20 -73 -1 -5 2 -6
8 -2 7 4 7 12 0 25 -12 23 -13 30 -1 30 5 0 13 -9 16 -21 4 -11 9 -18 11 -16
3 2 1 15 -4 28 -26 67 -30 89 -20 96 7 3 8 1 4 -5 -4 -7 -3 -12 2 -12 5 0 9
-6 10 -12 3 -40 7 -58 12 -58 10 0 8 -34 -2 -47 -6 -7 -4 -14 3 -19 8 -5 10
-3 4 7 -6 11 -5 12 5 2 8 -7 15 -21 17 -30 26 -153 25 -323 -3 -443 -3 -14 -6
-31 -8 -38 -1 -7 -8 -18 -16 -25 -10 -10 -11 -9 -5 2 6 10 4 12 -4 7 -8 -6 -9
-12 -2 -20 6 -7 8 -23 5 -37 -3 -13 -6 -30 -6 -36 -1 -7 -5 -13 -10 -13 -5 0
-6 -5 -2 -12 4 -7 3 -8 -4 -4 -11 6 -17 -12 -13 -36 0 -5 -4 -8 -10 -8 -5 0
-7 -4 -4 -10 3 -5 1 -10 -5 -10 -6 0 -8 -4 -5 -10 3 -5 1 -10 -5 -10 -6 0 -8
-5 -5 -10 3 -6 -1 -13 -9 -16 -9 -3 -13 -10 -10 -15 3 -5 -2 -12 -10 -15 -9
-3 -13 -10 -10 -15 3 -5 0 -9 -6 -9 -6 0 -9 -4 -6 -9 7 -11 -28 -43 -37 -34
-4 3 -7 1 -7 -5 0 -22 -2 -27 -12 -39 -6 -7 -14 -11 -18 -8 -4 3 -13 -2 -20
-10 -7 -8 -9 -15 -5 -15 4 0 2 -7 -5 -15 -7 -8 -15 -13 -19 -11 -11 7 -32 -10
-35 -28 -1 -9 -4 -15 -7 -14 -7 5 -94 -94 -94 -106 0 -6 -6 -11 -13 -11 -7 0
-17 -7 -23 -15 -9 -12 -10 -12 -5 3 4 12 2 16 -7 11 -6 -3 18 24 55 61 41 41
72 64 79 59 8 -4 9 -3 5 5 -5 7 7 24 28 43 20 17 36 36 36 42 0 6 -21 -11 -47
-37 -27 -25 -73 -69 -104 -97 -60 -54 -122 -150 -96 -150 18 0 140 80 133 87
-9 9 14 44 25 38 5 -4 9 -1 9 4 0 6 6 10 13 8 6 -1 11 4 9 11 -1 8 2 11 7 8 5
-3 12 1 15 10 4 9 9 14 13 11 8 -9 45 12 38 22 -2 5 2 14 10 21 8 7 15 9 15 6
0 -4 9 -2 20 4 11 6 18 15 15 19 -2 5 2 14 10 21 8 7 15 9 15 5 0 -4 10 4 21
19 12 15 24 25 26 22 3 -3 15 6 25 20 11 14 23 23 25 20 3 -3 14 6 25 19 11
14 23 23 28 20 5 -3 10 0 12 7 3 7 18 13 35 14 27 1 30 -2 30 -32 0 -19 -4
-34 -9 -34 -5 0 -6 -4 -3 -10 3 -5 1 -10 -5 -10 -6 0 -8 -4 -5 -10 3 -5 1 -10
-5 -10 -6 0 -8 -4 -5 -10 3 -5 1 -10 -5 -10 -6 0 -8 -4 -5 -10 3 -5 1 -10 -5
-10 -6 0 -8 -4 -5 -10 3 -5 1 -10 -5 -10 -6 0 -8 -4 -5 -10 3 -5 1 -10 -5 -10
-6 0 -8 -4 -5 -10 3 -5 1 -10 -5 -10 -6 0 -8 -4 -5 -10 3 -5 1 -10 -5 -10 -6
0 -8 -5 -5 -10 3 -6 -1 -13 -9 -16 -9 -3 -13 -10 -10 -15 3 -5 0 -9 -6 -9 -6
0 -8 -5 -4 -12 4 -7 3 -8 -4 -4 -11 6 -16 -6 -13 -26 0 -5 -4 -8 -10 -8 -5 0
-7 -4 -4 -10 3 -5 1 -10 -5 -10 -6 0 -9 -4 -5 -9 3 -6 -2 -14 -11 -19 -9 -5
-15 -13 -15 -18 1 -5 -4 -9 -9 -9 -14 0 -30 -26 -24 -37 3 -4 0 -8 -6 -8 -6 0
-8 -5 -5 -10 4 -6 1 -9 -7 -8 -7 2 -12 -3 -11 -9 2 -7 -2 -13 -8 -13 -5 0 -7
-5 -4 -10 3 -6 -1 -13 -9 -16 -9 -3 -14 -10 -11 -14 3 -5 -7 -18 -21 -29 -15
-12 -23 -21 -19 -21 5 0 -2 -11 -15 -25 -12 -13 -27 -23 -33 -22 -6 1 -11 -4
-12 -10 0 -7 -3 -12 -7 -10 -8 3 -58 -43 -55 -52 1 -3 -1 -6 -4 -6 -13 0 -48
-37 -46 -48 1 -6 -2 -11 -8 -12 -17 -1 -36 -16 -30 -24 4 -8 -33 -48 -41 -43
-10 6 -25 1 -20 -7 3 -4 -3 -16 -14 -26 -11 -10 -20 -14 -20 -9 0 5 -5 2 -10
-6 -5 -8 -14 -16 -20 -16 -5 -1 -15 -2 -20 -3 -6 0 -9 -7 -8 -14 2 -6 -3 -11
-9 -9 -7 1 -13 -3 -13 -9 0 -5 -4 -8 -8 -5 -13 8 -53 -24 -46 -36 4 -7 2 -8
-4 -4 -7 4 -12 2 -12 -4 0 -6 -4 -8 -10 -5 -5 3 -10 1 -10 -5 0 -6 -4 -9 -9
-6 -5 3 -12 -1 -15 -10 -3 -8 -10 -12 -16 -9 -5 3 -10 1 -10 -5 0 -6 -4 -8
-10 -5 -5 3 -10 1 -10 -4 0 -6 -3 -10 -7 -9 -17 4 -53 -14 -47 -24 4 -7 2 -8
-4 -4 -7 4 -12 2 -12 -4 0 -6 -4 -8 -10 -5 -5 3 -10 1 -10 -4 0 -6 -3 -10 -7
-10 -5 1 -11 0 -15 -1 -13 -4 -27 -7 -39 -9 -5 0 -7 -6 -3 -13 4 -7 3 -8 -4
-4 -7 4 -12 2 -12 -4 0 -6 -4 -9 -9 -5 -5 3 -12 1 -16 -5 -4 -6 -11 -8 -16 -5
-5 4 -9 1 -9 -5 0 -6 -4 -9 -9 -5 -5 3 -12 1 -16 -5 -4 -6 -11 -8 -16 -5 -5 4
-9 1 -9 -5 0 -6 -4 -9 -9 -5 -5 3 -12 1 -16 -5 -4 -6 -11 -8 -16 -5 -5 4 -9 1
-9 -5 0 -6 -4 -9 -9 -5 -5 3 -12 1 -15 -4 -3 -5 -20 -8 -37 -7 -17 1 -33 -3
-35 -9 -3 -6 -15 -11 -27 -12 -19 -2 -18 1 8 15 17 9 35 15 42 14 19 -4 200
72 314 132 59 30 110 52 114 48 5 -4 5 -2 2 4 -4 7 6 17 23 24 31 13 60 40 42
40 -6 0 -12 -4 -14 -8 -8 -21 -257 -148 -391 -201 -82 -33 -97 -36 -97 -23 0
11 45 32 66 32 8 0 41 12 72 26 136 64 202 96 202 99 0 6 -71 -25 -105 -45
-31 -18 -83 -35 -98 -31 -5 1 -6 -2 -3 -7 3 -5 -14 -15 -37 -22 -23 -7 -55
-17 -72 -24 -16 -6 -33 -10 -37 -8 -4 1 -5 -5 -2 -12 4 -10 -8 -22 -33 -34
-21 -11 -37 -24 -35 -28 1 -5 -2 -10 -8 -10 -5 -1 -11 -2 -12 -3 -3 -3 -27 -7
-78 -15 -19 -2 -46 -7 -60 -11 -14 -3 -32 -8 -40 -10 -8 -2 -15 -4 -15 -5 0
-3 -43 -9 -105 -15 -36 -3 -78 -8 -95 -10 -69 -8 -210 -17 -205 -12 3 3 86 12
185 22 99 9 203 23 230 31 28 8 79 19 114 24 48 7 70 15 87 34 13 13 32 27 43
31 12 3 20 12 18 18 -1 7 4 11 11 9 6 -1 12 3 12 9 0 5 5 7 10 4 6 -3 10 -2
10 3 0 5 6 9 13 10 42 3 57 7 57 15 0 4 4 6 9 3 5 -3 14 1 21 9 7 8 16 12 21
9 5 -3 9 -1 9 4 0 5 6 9 13 10 6 0 21 3 32 6 11 2 24 5 28 5 5 1 5 6 1 13 -4
7 -3 8 4 4 7 -4 12 -2 12 4 0 6 5 8 10 5 6 -3 10 -1 10 4 0 6 3 10 8 10 4 -1
9 0 12 1 9 3 44 11 60 14 20 3 157 80 192 108 15 12 31 18 35 14 5 -5 0 -13
-10 -20 -40 -24 -51 -37 -21 -22 17 8 35 12 39 8 5 -4 5 -2 2 5 -4 6 7 20 26
32 18 11 42 30 53 42 19 22 19 22 -3 10 -13 -6 -23 -16 -23 -21 0 -6 -6 -10
-14 -10 -8 0 -16 -5 -18 -12 -2 -6 -10 -9 -17 -7 -8 3 13 26 52 57 77 60 202
180 171 164 -12 -6 -25 -8 -29 -4 -5 4 -5 2 -1 -5 8 -15 -31 -56 -45 -48 -5 4
-9 3 -8 -2 3 -19 -2 -33 -12 -33 -6 0 -7 5 -2 13 4 6 8 16 8 21 0 5 8 10 18
12 23 3 28 8 31 30 2 9 11 19 21 20 23 3 36 17 39 40 2 11 9 19 17 19 8 1 13
6 11 13 -1 7 5 15 13 18 8 3 12 11 8 17 -3 5 -1 7 5 3 5 -3 12 0 15 6 2 7 8
10 12 6 11 -11 -25 -49 -39 -41 -6 3 -8 3 -4 -2 11 -11 -12 -36 -26 -28 -6 3
-8 3 -4 -2 4 -4 2 -17 -4 -29 -14 -28 51 43 110 119 25 33 49 62 52 65 3 3 10
12 15 21 6 9 28 43 49 75 63 96 156 265 156 285 0 7 -12 -1 -27 -16 -16 -15
-55 -48 -88 -73 -33 -25 -69 -54 -80 -64 -11 -10 -29 -26 -40 -34 -18 -13 -16
-13 11 0 17 8 34 22 37 31 4 8 12 15 18 15 7 0 18 8 25 17 7 10 16 14 21 9 4
-5 2 -11 -5 -13 -6 -3 -10 -8 -8 -12 3 -4 -5 -8 -16 -8 -23 -2 -40 -22 -31
-37 3 -5 1 -6 -5 -2 -7 4 -12 2 -12 -5 0 -7 -3 -9 -6 -6 -9 9 -46 -12 -39 -22
5 -8 -24 -39 -32 -33 -10 7 -23 0 -17 -10 4 -7 4 -10 -1 -6 -4 4 -17 -4 -27
-18 -11 -14 -23 -23 -26 -20 -3 4 -14 -2 -25 -11 -10 -10 -22 -17 -26 -16 -3
0 -5 -3 -3 -9 1 -5 -2 -7 -8 -3 -5 3 -10 1 -10 -4 0 -6 -3 -10 -7 -10 -23 4
-43 -2 -38 -11 4 -6 3 -10 -2 -9 -4 1 -10 0 -13 -1 -3 -1 -21 -4 -41 -5 l-35
-2 0 48 c-1 27 3 49 8 49 4 0 7 6 5 13 -1 6 4 11 11 10 11 -3 16 10 13 30 -1
4 6 10 14 13 8 3 12 11 8 18 -3 6 -3 8 1 5 10 -9 54 33 48 46 -3 6 -2 7 3 3 4
-4 14 0 21 10 7 9 18 17 26 17 7 1 12 6 11 12 -1 5 10 10 25 9 23 -1 26 3 27
28 0 22 5 30 23 33 15 2 21 -1 17 -8 -4 -6 -12 -8 -19 -6 -6 3 -12 -4 -12 -14
0 -15 10 -10 44 24 36 35 83 100 169 233 9 15 12 16 12 4 1 -25 -83 -158 -129
-206 -23 -24 -38 -44 -32 -44 6 0 21 13 33 30 12 16 27 26 32 23 6 -4 7 -1 2
7 -6 9 -4 11 5 5 9 -6 11 -4 5 5 -5 9 -4 11 4 6 6 -4 10 -4 9 1 -4 16 14 53
23 47 5 -3 9 -2 8 3 -3 19 2 34 9 29 5 -3 9 0 9 7 0 7 13 39 30 72 16 33 32
74 36 90 3 17 4 24 1 18 -8 -18 -27 -16 -21 2 4 8 2 17 -4 20 -5 4 -9 3 -8 -2
4 -20 -2 -44 -9 -39 -4 2 -9 -9 -10 -25 -3 -34 -35 -92 -46 -81 -4 4 -6 3 -5
-3 5 -17 -12 -56 -22 -49 -5 3 -9 2 -8 -3 3 -20 -2 -34 -11 -28 -6 4 -10 3 -9
-2 4 -21 -2 -34 -13 -27 -7 5 -8 3 -3 -6 6 -9 4 -11 -6 -5 -8 5 -11 5 -7 0 11
-12 -12 -47 -27 -41 -9 3 -12 0 -9 -8 3 -8 1 -17 -5 -21 -7 -4 -10 1 -8 12 1
10 5 18 8 18 12 0 39 28 34 35 -3 5 4 15 15 23 11 7 17 17 14 20 -4 4 1 9 10
13 9 3 13 10 10 15 -3 5 2 12 10 15 9 3 13 10 10 15 -3 5 0 9 6 9 6 0 8 5 5
10 -3 6 1 13 9 16 9 3 13 10 10 15 -3 5 0 9 6 9 6 0 8 5 4 12 -4 7 -3 8 4 4 8
-5 12 2 12 18 0 39 0 40 16 57 8 9 12 18 9 21 -3 3 2 11 12 19 14 12 16 12 8
0 -5 -10 -4 -12 4 -7 8 6 9 12 2 20 -6 7 -9 21 -7 32 26 137 24 436 -3 468 -6
7 -8 16 -4 19 3 4 0 7 -7 7 -7 0 -10 3 -7 7 4 3 2 12 -4 20 -6 7 -8 13 -4 13
4 0 2 7 -5 15 -7 8 -10 15 -7 15 3 0 1 13 -4 30 -6 17 -16 27 -22 23 -6 -3 -7
-1 -3 5 4 7 2 12 -4 12 -6 0 -8 5 -5 11 10 16 32 -18 57 -91z m-3686 -431 c0
-15 -3 -26 -8 -23 -8 5 0 -93 9 -108 2 -5 -1 -8 -6 -8 -6 0 -11 8 -12 18 0 9
-2 25 -4 34 -11 57 -13 98 -6 98 5 0 12 -5 14 -10 3 -6 4 -5 3 2 -4 19 -31 16
-31 -4 0 -9 -3 -19 -6 -22 -3 -3 -5 7 -5 22 0 24 4 28 26 28 22 0 26 -4 26
-27z m33 -164 c1 -5 3 -32 5 -59 2 -26 7 -51 12 -55 5 -3 10 -15 12 -26 2 -14
-2 -12 -14 9 -9 16 -18 49 -19 74 -3 49 -18 73 -36 55 -7 -7 -8 -26 -3 -55 4
-23 7 -46 6 -50 -1 -4 5 -5 13 -2 10 4 20 -5 30 -30 8 -20 21 -35 28 -33 9 1
12 -18 12 -68 l0 -70 -67 -1 c-38 -1 -68 3 -68 8 0 5 -5 6 -10 3 -6 -3 -13 1
-16 9 -3 9 -11 13 -17 9 -6 -3 -7 -1 -3 5 7 12 -27 35 -38 25 -3 -3 -6 -1 -6
6 0 7 -5 9 -10 6 -6 -3 -8 -21 -5 -38 4 -27 3 -29 -6 -14 -6 10 -9 27 -6 38 3
10 1 17 -4 13 -5 -3 -9 0 -9 6 0 10 25 8 65 -5 16 -5 17 -4 5 4 -9 5 -38 30
-65 55 -51 48 -65 53 -44 15 20 -39 67 -179 59 -179 -12 0 -78 171 -85 223 -4
29 9 37 19 12 3 -8 11 -15 18 -15 7 0 4 9 -9 21 -24 24 -47 17 -38 -12 4 -10
2 -19 -3 -19 -4 0 -8 13 -8 28 0 25 3 29 27 28 28 -1 54 -19 54 -36 0 -6 3 -9
6 -7 10 4 39 -25 34 -33 -6 -9 18 -31 37 -34 7 -1 15 -6 17 -11 6 -15 35 -34
43 -29 5 3 8 0 8 -6 0 -6 5 -8 10 -5 6 3 10 1 10 -4 0 -14 -6 -14 -31 -1 -10
6 -19 8 -19 5 0 -10 81 -43 99 -41 12 2 16 14 17 47 l2 44 -8 -45 c-7 -48 -13
-45 -10 5 1 17 6 35 10 40 9 12 -24 83 -36 75 -9 -6 -15 19 -19 83 -3 46 -3
47 24 45 15 -1 29 -7 30 -13z m-14 -46 c6 -37 2 -59 -10 -48 -10 11 -17 89 -7
89 6 0 13 -18 17 -41z m3695 -32 c0 -7 -7 -22 -15 -33 -14 -18 -14 -18 -15 7
0 14 3 29 7 32 11 11 23 8 23 -6z m-3691 -84 c9 -18 9 -22 -2 -18 -7 3 -13 15
-14 26 -2 24 0 23 16 -8z m-180 -57 c0 -6 -3 -5 -6 2 -3 9 -9 10 -17 3 -9 -7
-15 -2 -23 19 l-11 29 29 -21 c16 -12 29 -27 28 -32z m-44 -88 c4 -11 3 -18
-5 -18 -6 0 -8 5 -5 10 3 6 1 10 -5 10 -6 0 -9 4 -5 9 3 5 1 12 -5 16 -6 4 -8
11 -5 16 4 5 2 9 -2 9 -5 0 -10 15 -11 33 -1 28 0 26 17 -18 10 -27 22 -58 26
-67z m204 48 c10 -12 8 -13 -8 -9 -12 3 -18 9 -15 14 7 12 10 11 23 -5z m-134
-86 c-3 -5 -2 -10 3 -10 5 0 9 -20 9 -44 0 -25 9 -61 23 -87 12 -24 26 -51 29
-59 4 -8 15 -28 23 -45 9 -16 19 -37 23 -45 20 -49 184 -290 202 -297 7 -3 13
-11 13 -18 0 -7 11 -21 25 -31 14 -10 25 -24 25 -31 0 -7 5 -13 10 -13 16 0
-7 38 -30 53 -11 6 -20 17 -20 23 0 6 -11 20 -25 32 -14 13 -23 28 -19 34 4 7
3 8 -4 4 -11 -7 -17 6 -13 27 1 5 -4 5 -10 1 -8 -5 -9 -3 -4 6 5 9 4 11 -3 6
-11 -7 -17 6 -13 27 1 5 -3 6 -8 3 -9 -6 -27 31 -23 47 1 5 -2 6 -8 2 -6 -3
-18 8 -28 25 -9 18 -27 48 -40 67 -12 19 -23 45 -24 58 -1 13 -4 22 -7 20 -7
-8 -41 54 -43 80 -1 13 -5 22 -9 20 -3 -3 -11 7 -18 21 -14 31 -14 34 0 34 5
0 7 -4 4 -10 -3 -5 -1 -10 5 -10 6 0 9 -4 6 -9 -3 -5 1 -12 9 -15 8 -3 15 -9
14 -13 -5 -28 2 -53 13 -47 7 4 8 3 4 -4 -4 -7 -2 -12 4 -12 6 0 9 -4 6 -9 -3
-5 0 -11 7 -14 7 -2 13 -17 15 -32 3 -34 11 -47 24 -39 7 4 8 2 4 -4 -4 -7 -2
-12 4 -12 6 0 8 -4 5 -10 -3 -5 -1 -10 5 -10 6 0 8 -4 5 -10 -3 -5 -1 -10 5
-10 6 0 9 -4 6 -8 -7 -11 11 -37 26 -37 7 -1 12 -6 10 -13 -1 -7 3 -12 9 -12
5 0 8 -4 5 -9 -3 -5 1 -12 10 -15 9 -4 14 -9 10 -13 -3 -3 3 -13 14 -20 11 -8
18 -18 15 -23 -3 -4 2 -11 11 -14 8 -3 13 -10 10 -15 -5 -8 23 -39 31 -33 1 1
2 1 1 0 -5 -8 24 -48 32 -43 5 3 12 0 17 -7 8 -13 9 -18 12 -39 0 -5 5 -8 10
-5 8 5 39 -22 40 -36 1 -5 3 -7 5 -5 8 4 55 -46 50 -54 -3 -5 0 -9 5 -9 21 0
26 -2 38 -12 7 -6 10 -14 8 -19 -3 -4 4 -13 15 -19 11 -6 20 -8 20 -4 0 3 7 1
15 -6 8 -7 12 -16 9 -21 -5 -9 11 -19 42 -23 9 -1 22 -9 28 -18 6 -8 15 -17
21 -19 5 -2 9 -7 8 -11 -3 -7 20 -12 40 -9 4 0 7 -4 7 -10 0 -5 5 -7 10 -4 6
3 13 -1 16 -9 3 -9 10 -13 15 -10 5 3 9 0 9 -6 0 -6 4 -9 9 -5 5 3 12 1 16 -5
4 -6 11 -8 16 -5 5 4 9 1 9 -5 0 -6 4 -9 9 -5 6 3 14 -3 20 -12 6 -10 11 -14
11 -10 0 5 6 5 13 0 11 -7 17 -9 51 -16 8 -2 21 -9 30 -16 9 -7 16 -10 16 -6
0 4 6 2 13 -4 8 -6 17 -8 20 -4 4 3 7 1 7 -5 0 -7 3 -11 8 -11 4 1 9 0 12 -1
5 -2 11 -3 65 -15 36 -7 58 -13 65 -15 3 -1 9 -2 13 -1 5 1 6 -3 3 -8 -4 -5
-25 -3 -53 5 -26 8 -52 13 -58 10 -5 -2 7 -7 28 -11 39 -8 51 -25 16 -25 -31
0 -61 20 -55 36 3 7 2 13 -2 11 -11 -3 -121 36 -117 43 2 3 -5 7 -16 7 -37 3
-89 24 -83 34 3 5 2 8 -3 7 -15 -5 -103 34 -97 43 3 5 2 8 -3 7 -17 -5 -74 22
-68 32 4 6 3 10 -2 9 -22 -4 -34 2 -27 13 4 7 4 10 -1 6 -4 -4 -13 -4 -19 1
-13 9 -46 22 -46 17 0 -13 301 -176 325 -176 18 0 65 -24 65 -34 0 -4 -11 -6
-25 -4 -13 3 -22 1 -19 -3 3 -5 13 -9 23 -9 10 0 35 -7 55 -15 20 -9 42 -13
48 -9 6 4 8 3 5 -3 -3 -5 -1 -10 6 -11 30 -3 98 -20 104 -26 4 -4 -11 -4 -33
0 -21 4 -45 7 -51 7 -7 0 -13 3 -13 7 0 4 -6 7 -12 8 -13 1 -48 9 -58 12 -3 1
-8 2 -12 1 -5 0 -8 3 -8 7 0 5 -6 9 -12 10 -43 3 -58 7 -58 15 0 4 -4 5 -10 2
-5 -3 -10 -1 -10 4 0 6 6 11 13 11 6 1 -37 25 -98 54 -60 30 -130 67 -154 82
-24 15 -41 22 -37 16 3 -6 2 -13 -4 -17 -5 -3 -10 -1 -10 4 0 6 -6 10 -12 8
-7 -1 -12 3 -11 10 2 7 -6 17 -17 23 -11 6 -20 8 -20 4 0 -3 -7 -1 -15 6 -8 7
-13 16 -10 20 5 7 -7 15 -30 20 -18 3 -35 22 -29 31 4 8 -8 13 -27 11 -8 -1
-47 40 -51 53 -2 6 -6 9 -9 8 -8 -3 -37 28 -39 42 -1 6 -6 9 -12 7 -5 -1 -7 2
-4 7 3 5 -1 12 -10 15 -8 3 -13 10 -9 15 5 9 -12 26 -27 26 -5 0 -7 2 -6 5 3
11 -24 50 -31 45 -5 -2 -14 2 -21 10 -7 8 -9 15 -4 15 5 0 1 5 -9 11 -9 6 -15
14 -12 19 3 4 -2 11 -11 14 -8 3 -13 10 -10 15 3 5 -1 12 -10 15 -8 3 -12 10
-9 16 3 5 1 10 -6 10 -7 0 -9 3 -6 6 10 11 -13 45 -25 38 -6 -4 -8 -3 -5 3 4
6 0 14 -9 17 -8 3 -13 10 -9 15 3 5 1 12 -5 16 -6 4 -8 11 -5 16 4 5 -6 21
-22 35 -15 14 -21 24 -13 22 8 -2 19 -7 23 -13 5 -6 7 -4 4 5 -2 8 -9 16 -15
16 -7 1 -17 2 -23 3 -5 0 -7 6 -4 11 4 6 11 8 16 5 5 -4 5 5 -1 20 -15 41 -30
65 -38 64 -20 -3 -33 2 -27 11 4 6 10 8 15 5 5 -3 3 11 -4 32 -8 21 -19 37
-25 36 -6 -2 -11 2 -11 8 0 5 -5 7 -10 4 -6 -4 -10 -3 -9 2 1 4 0 10 -1 13 -1
3 -3 19 -5 35 -4 29 -4 29 9 -5 15 -41 41 -47 40 -10 -1 14 -4 33 -9 43 -4 11
-3 17 5 17 6 0 8 -4 5 -10z m-9 -35 c6 -24 0 -44 -10 -34 -11 11 -17 59 -7 59
6 0 13 -11 17 -25z m3870 -37 c-91 -174 -229 -374 -248 -361 -7 4 -3 13 11 25
13 10 19 18 15 18 -5 1 1 9 13 19 12 10 19 22 15 26 -4 5 -1 5 6 1 6 -4 13 -2
13 3 1 6 2 17 3 24 0 6 7 12 14 12 15 0 33 26 26 37 -3 4 0 8 6 8 6 0 8 5 5
10 -3 6 1 13 9 16 9 3 13 10 10 15 -3 5 2 12 10 15 9 3 13 11 9 17 -3 6 -1 7
5 3 7 -4 13 -1 13 8 3 33 4 37 19 46 8 5 11 10 5 10 -5 0 -2 7 8 14 11 8 14
17 8 20 -5 4 -12 2 -16 -4 -4 -6 -11 -7 -17 -4 -9 6 68 83 84 84 4 0 -8 -28
-26 -62z m-3856 -77 c0 -21 -13 -4 -17 22 -2 17 -1 19 7 7 5 -8 10 -21 10 -29z
m37 -66 c15 -25 17 -48 3 -40 -6 4 -8 10 -5 15 3 5 -5 18 -17 30 -15 14 -18
20 -8 18 8 -2 20 -12 27 -23z m3480 -19 c0 -13 -106 -90 -114 -82 -2 2 2 15 8
30 11 23 13 24 24 9 10 -14 16 -12 46 20 19 20 34 36 35 36 0 1 1 -5 1 -13z
m-139 -450 c-27 -26 -101 -84 -142 -111 -65 -44 -83 -56 -128 -80 -51 -27 -59
-29 -57 -17 1 4 5 6 10 5 5 -2 9 2 9 8 0 5 5 7 10 4 6 -3 10 -1 10 5 0 6 5 8
10 5 6 -3 10 -1 10 6 0 7 3 9 7 6 3 -4 13 2 20 13 8 11 17 19 21 16 13 -7 47
11 47 25 1 8 6 13 13 12 7 -2 12 2 12 7 0 6 3 9 8 9 19 -3 33 2 27 10 -5 10
12 25 30 26 6 1 9 7 7 14 -1 7 2 10 8 6 5 -3 10 -1 10 5 0 6 4 9 9 5 10 -5 25
12 26 30 1 6 6 9 13 8 7 -2 12 2 12 8 0 5 5 7 10 4 7 -4 2 -15 -12 -29z
m-2685 -283 c23 -14 82 -45 130 -69 49 -23 84 -45 78 -48 -6 -4 -11 -2 -11 4
0 6 -4 9 -9 5 -5 -3 -12 -1 -16 5 -4 6 -11 8 -16 5 -5 -4 -9 -1 -9 5 0 6 -4 8
-10 5 -5 -3 -10 -1 -10 5 0 6 -4 8 -10 5 -5 -3 -10 -1 -10 5 0 6 -4 8 -10 5
-5 -3 -10 -1 -10 5 0 6 -4 8 -10 5 -5 -3 -10 -1 -10 5 0 6 -4 8 -10 5 -5 -3
-10 -1 -10 5 0 6 -4 8 -10 5 -5 -3 -10 -1 -10 5 0 6 -4 9 -9 5 -6 -3 -14 2
-19 10 -5 9 -17 17 -27 19 -10 2 -21 8 -23 14 -6 18 4 15 51 -15z m360 -130
c14 -4 25 -23 13 -23 -16 0 -66 24 -66 32 0 6 8 7 18 3 9 -4 25 -10 35 -12z
m241 -45 c-3 -4 -11 -5 -19 -1 -21 7 -19 12 4 10 11 0 18 -5 15 -9z m166 -13
c14 -3 36 -8 50 -11 14 -3 30 -6 37 -6 7 -1 10 -5 7 -10 -3 -5 -10 -6 -15 -2
-10 6 -25 9 -149 29 -82 14 -83 14 -20 10 36 -2 76 -7 90 -10z m-180 -30 c0
-2 -9 -3 -19 -2 -11 0 -18 5 -15 9 4 6 34 0 34 -7z m213 -28 c21 -3 41 -8 45
-12 3 -3 -7 -4 -23 -1 -17 2 -52 7 -80 11 -27 3 -66 9 -85 12 -19 3 -40 6 -47
6 -7 0 -10 3 -8 7 2 4 39 1 82 -6 43 -6 95 -14 116 -17z m395 17 c-7 -6 -269
-6 -276 0 -2 3 60 5 138 5 79 0 140 -2 138 -5z"/>
<path d="M3173 4404 c-8 -21 13 -42 28 -27 13 13 5 43 -11 43 -6 0 -13 -7 -17
-16z m27 -9 c0 -8 -4 -15 -10 -15 -5 0 -10 7 -10 15 0 8 5 15 10 15 6 0 10 -7
10 -15z"/>
<path d="M3667 2874 c-3 -3 0 -23 8 -43 7 -21 15 -54 18 -75 3 -20 8 -40 11
-43 9 -10 -5 77 -19 118 -8 21 -11 40 -8 43 4 3 4 6 1 6 -2 0 -7 -3 -11 -6z"/>
<path d="M3641 2850 c-1 -8 4 -32 10 -54 14 -51 20 -78 21 -93 1 -7 5 -10 10
-7 5 3 6 10 2 15 -3 5 -7 19 -10 32 -9 46 -32 121 -33 107z"/>
<path d="M1321 3264 c0 -11 3 -14 6 -6 3 7 2 16 -1 19 -3 4 -6 -2 -5 -13z"/>
<path d="M1210 3243 c-12 -16 -25 -27 -28 -25 -4 1 -8 -2 -8 -8 -1 -5 -2 -14
-3 -20 0 -5 -4 -9 -8 -7 -5 1 -9 -2 -11 -8 -11 -32 -47 -83 -55 -78 -6 3 -7 2
-4 -4 7 -10 -36 -76 -44 -68 -3 2 -5 -4 -6 -14 -2 -26 -44 -92 -54 -85 -5 3
-9 2 -8 -3 4 -20 -2 -44 -9 -39 -4 2 -9 -5 -9 -17 -2 -23 25 16 82 118 15 28
30 52 34 55 4 3 24 32 44 65 20 33 51 76 67 95 32 36 54 70 46 70 -2 0 -14
-12 -26 -27z"/>
<path d="M1303 3171 c0 -11 5 -18 9 -15 4 3 5 11 1 19 -7 21 -12 19 -10 -4z"/>
<path d="M1327 3095 c3 -16 17 -51 30 -76 13 -25 26 -54 27 -65 2 -10 7 -19
12 -19 5 0 16 -4 24 -10 13 -8 13 -7 0 11 -8 10 -17 21 -20 24 -6 5 -51 97
-69 140 -10 24 -10 23 -4 -5z"/>
<path d="M1070 2993 c-59 -107 -73 -129 -84 -143 -15 -17 -30 -68 -16 -54 4 5
10 18 12 29 2 11 10 19 16 18 7 -2 11 0 11 5 -3 20 2 32 13 26 6 -4 9 -3 5 2
-9 16 21 76 35 68 7 -4 10 -4 6 1 -4 4 2 25 13 46 25 50 16 51 -11 2z"/>
<path d="M4038 2997 c-18 -11 -46 -29 -61 -39 -16 -11 -36 -21 -45 -23 -10 -1
-16 -8 -14 -14 1 -6 -2 -12 -8 -12 -5 -1 -16 -2 -22 -3 -7 0 -14 -7 -14 -13
-1 -7 -2 -18 -3 -24 0 -5 -5 -8 -10 -5 -10 7 -34 -18 -25 -27 3 -3 -2 -17 -11
-31 -10 -14 -15 -26 -12 -26 3 0 15 15 26 33 11 17 31 43 43 57 47 52 162 128
204 136 20 4 20 0 16 -83 -5 -93 13 -213 35 -241 8 -9 11 -11 8 -4 -22 42 -36
146 -33 237 3 96 2 100 -19 101 -11 1 -36 -8 -55 -19z"/>
<path d="M4227 2483 c4 -10 11 -21 15 -24 5 -3 11 -15 12 -25 2 -10 9 -18 15
-17 12 3 43 -51 36 -61 -3 -3 -2 -4 2 -1 11 8 33 -16 34 -39 1 -17 2 -18 6 -3
2 9 -6 30 -19 46 -13 16 -41 54 -63 85 -42 60 -48 66 -38 39z"/>
<path d="M755 2289 c-4 -6 -13 -8 -19 -6 -7 3 -13 0 -13 -6 0 -7 -4 -33 -8
-58 -5 -32 -3 -49 5 -54 20 -12 33 11 35 64 2 27 6 55 10 60 3 6 4 11 1 11 -3
0 -8 -5 -11 -11z m-9 -66 c-6 -48 -12 -61 -22 -51 -9 10 7 98 18 98 7 0 8 -17
4 -47z"/>
<path d="M4447 2089 c7 -9 10 -19 7 -22 -3 -3 -1 -53 6 -110 12 -103 12 -123
-15 -332 -2 -16 -2 -24 1 -17 8 17 27 15 21 -3 -4 -8 -3 -17 2 -19 4 -3 8 0 9
7 0 7 3 23 6 37 22 95 29 233 16 331 -7 57 -13 109 -13 116 0 7 -4 10 -9 7 -5
-3 -17 0 -26 8 -15 11 -15 11 -5 -3z m43 -121 c11 -83 11 -124 0 -213 -6 -60
-12 -115 -13 -122 0 -6 -5 -9 -12 -7 -8 4 -8 30 3 102 13 91 12 160 -4 290 -4
33 -3 52 3 52 6 0 16 -46 23 -102z"/>
<path d="M4516 1308 c3 -4 0 -8 -5 -8 -21 0 -26 -2 -38 -12 -7 -6 -10 -14 -7
-19 3 -5 0 -10 -5 -10 -21 -3 -26 -4 -39 -12 -7 -5 -10 -13 -7 -18 4 -5 1 -10
-4 -10 -21 -3 -26 -4 -39 -12 -7 -5 -10 -13 -7 -18 4 -5 1 -10 -4 -10 -6 -1
-17 -2 -23 -3 -7 -1 -12 -7 -11 -13 3 -14 -21 -34 -44 -37 -10 -2 -18 -8 -18
-15 0 -17 -35 -42 -49 -34 -6 3 -8 3 -4 -2 9 -9 -51 -57 -62 -50 -4 2 -7 -2
-7 -10 0 -19 135 78 232 167 17 16 38 31 48 34 9 3 17 9 17 13 0 12 100 84
107 77 9 -9 -66 -160 -135 -273 -108 -175 -158 -238 -298 -380 -78 -79 -133
-141 -122 -140 19 3 49 27 33 27 -4 0 0 9 10 20 10 11 22 17 28 13 5 -3 7 -2
4 4 -7 11 36 56 46 48 4 -3 5 -2 2 2 -8 10 47 63 58 56 6 -3 7 -1 4 4 -4 6 0
16 8 23 8 7 15 9 15 5 0 -5 9 0 20 10 10 9 19 20 18 24 -2 19 3 32 11 27 8 -5
39 23 34 31 -7 8 -2 24 5 19 5 -3 9 0 9 7 0 20 64 108 74 101 5 -3 9 -2 8 3
-4 21 2 34 13 27 6 -4 8 -3 5 3 -7 11 56 126 66 118 4 -3 5 -2 2 1 -2 4 19 51
46 106 51 102 55 128 20 125 -11 0 -17 -5 -15 -9z m-286 -562 c0 -2 -8 -10
-17 -17 -16 -13 -17 -12 -4 4 13 16 21 21 21 13z"/>
<path d="M4132 1138 c-7 -7 -17 -13 -22 -13 -6 0 -10 -4 -11 -10 -1 -13 -29
-45 -38 -42 -3 1 -7 -2 -9 -8 -7 -21 -35 -44 -46 -38 -6 3 -8 3 -4 -2 9 -10
-10 -47 -21 -41 -4 3 -8 0 -9 -7 0 -7 -3 -23 -7 -37 -4 -16 0 -12 10 9 8 19
54 72 100 118 46 46 81 83 77 83 -5 0 -14 -6 -20 -12z"/>
<path d="M4097 1042 c-30 -30 -42 -49 -32 -49 8 0 13 3 10 6 -3 2 14 24 37 48
23 24 40 43 37 43 -3 0 -26 -22 -52 -48z"/>
<path d="M4236 1045 c-8 -8 -19 -15 -25 -15 -6 0 -11 -4 -11 -8 0 -4 -21 -21
-47 -38 -25 -16 -52 -34 -58 -40 -13 -14 -99 -54 -114 -54 -5 0 -12 6 -14 13
-4 9 -6 9 -6 -1 -1 -7 5 -15 13 -18 16 -6 120 39 131 56 3 5 11 7 17 4 7 -4 8
-2 4 4 -4 7 -1 12 8 12 26 0 30 1 43 12 7 6 11 13 8 17 -3 6 51 44 65 46 5 0
10 25 5 25 -2 0 -10 -7 -19 -15z"/>
<path d="M3949 473 c-13 -16 -12 -17 4 -4 16 13 21 21 13 21 -2 0 -10 -8 -17
-17z"/>
<path d="M500 1496 c0 -2 8 -10 18 -17 15 -13 16 -12 3 4 -13 16 -21 21 -21
13z"/>
<path d="M520 1453 c1 -10 106 -97 123 -101 7 -2 4 2 -6 8 -9 6 -14 16 -11 22
4 6 3 8 -3 5 -13 -8 -63 30 -60 46 1 6 -2 11 -8 12 -5 0 -16 4 -22 8 -7 5 -13
5 -13 0z"/>
<path d="M789 1403 c0 -5 0 -29 1 -55 1 -35 -3 -49 -17 -57 -17 -9 -16 -10 3
-8 20 1 22 7 22 64 0 35 -2 63 -4 63 -2 0 -4 -3 -5 -7z"/>
<path d="M637 1321 c12 -10 20 -21 18 -23 -3 -3 1 -5 8 -6 6 -1 26 -4 42 -7
l30 -5 -30 10 c-17 5 -40 19 -52 30 -12 11 -26 20 -30 20 -4 -1 2 -9 14 -19z"/>
<path d="M705 899 c8 -20 11 -40 7 -44 -4 -5 -2 -6 3 -2 12 6 58 -56 58 -78 0
-8 4 -12 9 -9 7 5 12 -10 9 -29 -1 -5 3 -6 9 -2 9 6 14 -8 11 -28 -1 -5 3 -6
9 -2 5 3 11 1 11 -4 1 -6 2 -17 3 -23 0 -7 7 -13 14 -13 18 0 43 -35 35 -48
-3 -6 -1 -7 4 -4 10 6 46 -25 41 -34 -2 -2 -1 -3 1 -2 5 3 28 -28 31 -42 3
-17 22 -35 30 -30 4 3 13 -2 20 -10 7 -8 9 -15 5 -15 -5 0 0 -9 10 -20 10 -11
21 -18 24 -15 11 6 36 -13 36 -27 0 -7 5 -13 10 -13 19 -1 55 -26 52 -36 -1
-6 6 -13 16 -14 26 -5 48 -25 40 -38 -4 -6 -1 -7 6 -2 15 9 18 6 -106 108 -50
42 -119 109 -153 149 -35 40 -73 85 -85 99 -29 34 -145 207 -145 217 0 5 -7
17 -15 28 -13 17 -13 15 0 -17z m336 -436 c13 -16 12 -17 -3 -4 -10 7 -18 15
-18 17 0 8 8 3 21 -13z"/>
<path d="M995 560 c-6 -10 43 -62 116 -123 19 -15 45 -36 58 -47 29 -24 30
-24 27 -3 -2 9 -11 18 -21 19 -20 3 -40 20 -40 35 0 5 -2 8 -5 7 -11 -3 -50
23 -46 31 3 5 -3 16 -14 26 -11 10 -20 15 -20 10 0 -4 -7 -2 -15 5 -8 7 -13
16 -10 20 3 4 -2 13 -9 19 -10 9 -16 9 -21 1z m76 -67 c13 -16 12 -17 -3 -4
-10 7 -18 15 -18 17 0 8 8 3 21 -13z"/>
<path d="M4445 1190 c-10 -11 -16 -22 -13 -25 3 -3 13 6 22 20 20 30 16 32 -9
5z"/>
<path d="M3264 4843 c-3 -10 -16 -47 -29 -83 -13 -36 -26 -78 -29 -95 -3 -16
-8 -43 -11 -60 -3 -16 -4 -27 0 -24 6 7 14 36 22 88 3 19 13 53 23 77 21 49
41 114 34 114 -3 0 -7 -8 -10 -17z"/>
<path d="M2384 4622 c8 -14 -53 -54 -67 -45 -6 3 -7 1 -3 -5 6 -11 -27 -36
-36 -27 -3 3 -5 -1 -5 -9 0 -9 21 0 59 26 65 45 73 54 57 64 -8 4 -9 3 -5 -4z"/>
<path d="M2231 4516 c-6 -7 -8 -16 -4 -19 3 -4 1 -8 -5 -8 -21 -2 -27 -4 -40
-12 -7 -5 -10 -12 -7 -17 6 -10 -19 -31 -41 -34 -10 -2 -19 -11 -20 -21 -3
-22 -17 -36 -39 -39 -10 -1 -19 -11 -21 -20 -1 -10 -5 -20 -7 -23 -3 -2 -13
-6 -23 -7 -9 -2 -18 -11 -20 -20 -3 -22 -8 -27 -31 -30 -10 -2 -18 -11 -18
-22 0 -10 -5 -19 -12 -19 -13 0 -27 -13 -29 -26 -1 -5 -2 -13 -3 -19 0 -6 -6
-9 -12 -8 -6 2 -13 -5 -14 -14 -4 -25 -41 -69 -50 -60 -5 4 -5 2 -2 -4 8 -15
-22 -56 -35 -48 -7 4 -8 2 -4 -4 11 -18 12 -17 58 46 23 31 47 63 52 70 6 6
22 26 36 42 38 46 212 219 271 271 30 26 48 49 42 52 -6 4 -16 1 -22 -7z"/>
</g>
</svg>
