<svg xmlns="http://www.w3.org/2000/svg">
<defs>
<font id="Sifonn-Basic-Outline" horiz-adv-x="602" >
  <font-face 
    font-family="Sifonn"
    font-weight="700"
    font-stretch="normal"
    units-per-em="1000"
    panose-1="0 0 0 0 0 0 0 0 0 0"
    ascent="750"
    descent="-250"
    x-height="520"
    cap-height="760"
    bbox="-198 -306 1297 1039"
    underline-thickness="58"
    underline-position="-59"
    unicode-range="U+0020-U+FB05"
  />
<missing-glyph horiz-adv-x="861" 
d="M430 -28q-81 0 -156 32q-70 29 -127 86t-86 127q-31 72 -31 155q0 84 31 156q30 72 86 128q55 55 127 85q75 32 156 32t156 -32q74 -31 128 -85t85 -128q32 -75 32 -156q0 -166 -117.5 -283t-283.5 -117zM430 743q-152 0 -262 -108q-108 -108 -108 -263q0 -74 29 -143
q30 -69 79 -118q51 -51 118 -80q69 -29 144 -29q153 0 262 108.5t109 261.5q0 154 -108 262q-109 109 -263 109zM430 56q-130 0 -219 92t-89 224q0 134 89 226.5t219 92.5t221 -93q90 -93 90 -226q0 -131 -90 -224q-90 -92 -221 -92zM430 661q-117 0 -198 -84
q-80 -83 -80 -205q0 -120 80 -203q81 -83 198 -83q118 0 199 83q82 84 82 203q0 121 -82 205t-199 84zM644 213v-19h-116v19q-2 33 -28 56q-27 25 -63 25q-35 0 -62 -25t-31 -62l-2 -13h-116l1 16q5 81 65 138q63 58 145 58q87 0 146 -56q59 -55 61 -137zM557 224h56
q-5 61 -50 105q-52 47 -126 47q-71 0 -124 -50q-45 -43 -54 -102h57q9 40 39 67q36 33 82 33q45 0 79.5 -29t40.5 -71zM574 395q-32 0 -54 22q-20 22 -20 52q0 33 21 52q22 22 53 22q32 0 54 -21.5t22 -52.5q0 -29 -21 -52q-21 -22 -55 -22zM297 395q-32 0 -54 22
q-20 22 -20 52q0 33 21 52q22 22 53 22q32 0 54 -21.5t22 -52.5q0 -29 -21 -52q-21 -22 -55 -22zM297 513q-19 0 -31.5 -12.5t-12.5 -31.5t12 -31q12 -13 32 -13t33 12.5t13 31.5t-13 31.5t-33 12.5zM574 513q-19 0 -31.5 -12.5t-12.5 -31.5t12 -31q12 -13 32 -13t33 12.5
t13 31.5t-13 31.5t-33 12.5z" />
    <glyph glyph-name="f_f" unicode="ff" horiz-adv-x="690" 
d="M576 359v-374h-171v374h-152v-374h-172v374h-69v161h70q3 106 78 176q77 71 187 71h15v-176h-15q-42 0 -69 -22q-23 -20 -25 -49h153q3 105 79 176t186 71h15v-176h-15q-42 0 -70 -22q-23 -20 -25 -49h100v-161h-100zM435 389v-374h111v374h100v101h-100v27q0 45 36 75
q30 24 74 29v116q-88 -5 -151 -63q-70 -65 -70 -162v-22h-212v27q0 44 36 75q29 24 73 29v116q-90 -5 -151 -63q-70 -65 -70 -162v-22h-69v-101h69v-374h112v374h212z" />
    <glyph glyph-name="fi" unicode="fi" horiz-adv-x="613" 
d="M572 520v-535h-171v374h-152v-374h-172v374h-69v161h70q3 106 78 175q77 72 187 72h15v-176h-15q-43 0 -69 -23q-23 -19 -25 -48h323zM431 389v-374h111v475h-323v27q0 44 36 74q29 26 73 29v116q-90 -5 -151 -63q-70 -64 -70 -161v-22h-69v-101h69v-374h112v374h212z
M493 579q-39 0 -68 28.5t-29 67.5q0 36 29 65q30 28 68 28q41 0 71 -28q28 -26 28 -65q0 -40 -28 -68q-30 -28 -71 -28zM493 738q-27 0 -47 -20t-20 -43q0 -26 20 -46t47 -20q29 0 49 19t20 47q0 26 -19 43q-20 20 -50 20z" />
    <glyph glyph-name="fl" unicode="fl" horiz-adv-x="622" 
d="M572 760v-775h-171v374h-152v-374h-172v374h-69v161h70q3 106 78 176q77 71 187 71h15v-176h-15q-42 0 -69 -22q-23 -20 -25 -49h152v240h171zM431 389v-374h111v715h-111v-240h-212v27q0 44 36 75q29 24 73 29v116q-90 -5 -151 -63q-70 -65 -70 -162v-22h-69v-101h69
v-374h112v374h212z" />
    <glyph glyph-name="f_f_i" unicode="ffi" horiz-adv-x="942" 
d="M901 520v-535h-172v374h-153v-374h-171v374h-152v-374h-172v374h-69v161h70q3 106 78 175q77 72 187 72h15v-176h-15q-43 0 -69 -23q-23 -19 -25 -48h153q3 104 79 175q78 72 186 72h15v-176h-15q-42 0 -70 -23q-23 -19 -25 -48h325zM759 389v-374h112v475h-325v27
q0 44 36 74q30 26 74 29v116q-88 -5 -151 -63q-70 -64 -70 -161v-22h-212v27q0 44 36 74q29 26 73 29v116q-90 -5 -151 -63q-70 -64 -70 -161v-22h-69v-101h69v-374h112v374h212v-374h111v374h213zM821 579q-39 0 -68 28.5t-29 67.5q0 36 29 65q30 28 68 28q41 0 71 -28
q28 -26 28 -65q0 -40 -28 -68q-30 -28 -71 -28zM821 738q-27 0 -47 -20t-20 -43q0 -26 20 -46t47 -20q29 0 49 19t20 47q0 26 -19 43q-20 20 -50 20z" />
    <glyph glyph-name=".notdef" horiz-adv-x="861" 
d="M430 -28q-81 0 -156 32q-70 29 -127 86t-86 127q-31 72 -31 155q0 84 31 156q30 72 86 128q55 55 127 85q75 32 156 32t156 -32q74 -31 128 -85t85 -128q32 -75 32 -156q0 -166 -117.5 -283t-283.5 -117zM430 743q-152 0 -262 -108q-108 -108 -108 -263q0 -74 29 -143
q30 -69 79 -118q51 -51 118 -80q69 -29 144 -29q153 0 262 108.5t109 261.5q0 154 -108 262q-109 109 -263 109zM430 56q-130 0 -219 92t-89 224q0 134 89 226.5t219 92.5t221 -93q90 -93 90 -226q0 -131 -90 -224q-90 -92 -221 -92zM430 661q-117 0 -198 -84
q-80 -83 -80 -205q0 -120 80 -203q81 -83 198 -83q118 0 199 83q82 84 82 203q0 121 -82 205t-199 84zM644 213v-19h-116v19q-2 33 -28 56q-27 25 -63 25q-35 0 -62 -25t-31 -62l-2 -13h-116l1 16q5 81 65 138q63 58 145 58q87 0 146 -56q59 -55 61 -137zM557 224h56
q-5 61 -50 105q-52 47 -126 47q-71 0 -124 -50q-45 -43 -54 -102h57q9 40 39 67q36 33 82 33q45 0 79.5 -29t40.5 -71zM574 395q-32 0 -54 22q-20 22 -20 52q0 33 21 52q22 22 53 22q32 0 54 -21.5t22 -52.5q0 -29 -21 -52q-21 -22 -55 -22zM297 395q-32 0 -54 22
q-20 22 -20 52q0 33 21 52q22 22 53 22q32 0 54 -21.5t22 -52.5q0 -29 -21 -52q-21 -22 -55 -22zM297 513q-19 0 -31.5 -12.5t-12.5 -31.5t12 -31q12 -13 32 -13t33 12.5t13 31.5t-13 31.5t-33 12.5zM574 513q-19 0 -31.5 -12.5t-12.5 -31.5t12 -31q12 -13 32 -13t33 12.5
t13 31.5t-13 31.5t-33 12.5z" />
    <glyph glyph-name=".null" horiz-adv-x="0" 
 />
    <glyph glyph-name="nonmarkingreturn" horiz-adv-x="333" 
 />
    <glyph glyph-name="space" unicode=" " horiz-adv-x="421" 
 />
    <glyph glyph-name="exclam" unicode="!" horiz-adv-x="307" 
d="M153 -28q-40 0 -67 27q-25 27 -25 64q0 39 26.5 65.5t65.5 26.5q40 0 66.5 -26.5t26.5 -65.5q0 -38 -26 -64q-27 -27 -67 -27zM153 125q-27 0 -45 -18q-17 -17 -17 -44q0 -26 17 -43q16 -18 45 -18q28 0 46 18q17 17 17 43q0 27 -18 44.5t-45 17.5zM234 760v-540h-161
v540h161zM103 730v-480h101v480h-101z" />
    <glyph glyph-name="quotedbl" unicode="&#x22;" horiz-adv-x="395" 
d="M399 773l-79 -257h-113v236l-72 -236h-112v257h376zM237 743v-197h60l61 197h-121zM53 743v-197h59l61 197h-120z" />
    <glyph glyph-name="numbersign" unicode="#" horiz-adv-x="726" 
d="M520 189l-52 -204h-148l53 204h-87l-52 -204h-148l53 204h-98v142h134l25 92h-124v142h160l51 195h143l-49 -195h89l51 195h143l-49 -195h93v-142h-130l-23 -92h118v-142h-153zM411 219l-53 -204h86l52 204h147v82h-126l37 152h124v82h-101l49 195h-81l-51 -195h-151
l49 195h-81l-51 -195h-154v-82h132l-39 -152h-128v-82h106l-53 -204h86l52 204h149zM472 453l-39 -152h-150l37 152h152zM344 423l-23 -92h88l25 92h-90z" />
    <glyph glyph-name="dollar" unicode="$" horiz-adv-x="566" 
d="M353 -16v-84h-161v83q-97 25 -168 103l-11 13l153 112l9 -11q38 -49 101 -49q31 0 53.5 22t22.5 52q0 80 -99 91q-102 11 -163 72q-63 63 -63 155q0 79 54 144q44 52 111 75v80h161v-85q69 -23 120 -85l11 -12l-146 -106l-9 9q-29 32 -68 32q-25 0 -39.5 -13.5
t-14.5 -37.5q0 -21 17 -34q23 -17 73 -20q106 -8 173 -73q73 -70 73 -181q0 -95 -59 -166q-52 -63 -131 -86zM222 8v-78h101v77l11 3q77 19 127 79q52 64 52 147q0 99 -64 160q-61 58 -154 64q-60 3 -90 27q-28 22 -28 57q0 37 23 59t61 22q41 0 80 -32l99 72
q-46 48 -107 67l-10 3v77h-101v-73l-11 -3q-63 -17 -107 -69q-47 -55 -47 -124q0 -80 53.5 -133.5t146.5 -64.5q60 -6 91 -36q34 -32 34 -84q0 -43 -31 -73.5t-75 -30.5q-39 0 -66 13q-26 10 -49 36l-104 -76q30 -30 68 -52q40 -23 85 -32z" />
    <glyph glyph-name="percent" unicode="%" horiz-adv-x="907" 
d="M697 760l-342 -775h-158l348 775h152zM565 730l-322 -715h92l316 715h-86zM702 20q-74 0 -127.5 54t-53.5 127q0 77 53 132q54 54 128 54q78 0 132 -54t54 -132q0 -74 -54.5 -127.5t-131.5 -53.5zM702 357q-61 0 -106 -45q-45 -47 -45 -111q0 -61 45 -106t106 -45
q64 0 110 44.5t46 106.5q0 66 -45 111t-111 45zM702 125q-29 0 -50.5 22.5t-21.5 53.5q0 34 20.5 57t51.5 23q32 0 54 -22q21 -23 21 -58q0 -32 -21 -53q-23 -23 -54 -23zM702 251q-18 0 -30 -14t-12 -36q0 -18 12.5 -32t29.5 -14q21 0 33 14t12 32q0 24 -13 37
q-12 13 -32 13zM200 357q-74 0 -127.5 53.5t-53.5 127.5q0 77 53 132q54 54 128 54q78 0 132 -54t54 -132q0 -74 -54.5 -127.5t-131.5 -53.5zM200 694q-61 0 -106 -45q-45 -47 -45 -111q0 -61 45 -106t106 -45q64 0 110 44.5t46 106.5q0 66 -45 111t-111 45zM200 462
q-29 0 -50.5 22.5t-21.5 53.5q0 34 20.5 57t51.5 23q32 0 54 -22q21 -22 21 -58q0 -31 -20 -53q-23 -23 -55 -23zM200 588q-18 0 -30 -14t-12 -36q0 -18 12.5 -32t29.5 -14q22 0 33.5 14t11.5 32q0 24 -13 37q-12 13 -32 13z" />
    <glyph glyph-name="ampersand" unicode="&#x26;" horiz-adv-x="671" 
d="M323 -28q-124 0 -210 84q-86 83 -86 208q0 89 48 156q43 62 113 92l-132 248h436v-161h-166l123 -237h-141q-44 0 -72 -30t-28 -79q0 -44 32 -74q35 -33 83 -33q43 0 70 27t27 70v103h250v-152h-79q-17 -94 -87 -154q-77 -68 -181 -68zM462 730h-356l124 -234l-16 -6
q-72 -26 -114 -87q-43 -61 -43 -139q0 -113 77 -187q77 -75 189 -75q92 0 161 60q68 60 79 149l2 13h75v92h-190v-73q0 -55 -36 -91t-91 -36q-60 0 -104 41q-41 41 -41 96q0 61 36 100q37 39 94 39h91l-123 237h186v101z" />
    <glyph glyph-name="quotesingle" unicode="'" horiz-adv-x="210" 
d="M213 773l-79 -257h-111v257h190zM53 743v-197h59l61 197h-120z" />
    <glyph glyph-name="parenleft" unicode="(" horiz-adv-x="324" 
d="M311 -95l-128 -89l-8 13q-142 224 -142 478q0 257 141 459l9 13l121 -84l-8 -12q-49 -82 -76 -175q-29 -102 -29 -201q0 -106 30 -208q28 -95 82 -182zM263 687l-73 50q-127 -191 -127 -430q0 -236 129 -449l78 55q-49 81 -78 178q-31 108 -31 216q0 101 31 209
q25 89 71 171z" />
    <glyph glyph-name="parenright" unicode=")" horiz-adv-x="324" 
d="M142 -184l-128 89l8 12q54 87 82 182q30 102 30 208q0 99 -29 201q-27 93 -76 175l-8 12l121 84l9 -13q141 -202 141 -459q0 -254 -142 -478zM135 737l-73 -50q46 -82 71 -171q31 -108 31 -209q0 -108 -31 -216q-29 -97 -78 -178l78 -55q129 213 129 449q0 239 -127 430z
" />
    <glyph glyph-name="asterisk" unicode="*" horiz-adv-x="382" 
d="M244 474v-76h-107v76l-60 -44l-64 86l87 63l-87 64l64 86l60 -44v75h107v-75l62 44l64 -86l-88 -64l88 -63l-64 -86zM167 533v-105h47v105l85 -62l28 38l-96 70l96 71l-28 38l-85 -62v104h-47v-104l-83 62l-29 -38l96 -71l-96 -70l29 -38z" />
    <glyph glyph-name="plus" unicode="+" horiz-adv-x="588" 
d="M370 282v-186h-152v186h-181v142h181v187h152v-187h181v-142h-181zM248 312v-186h92v186h181v82h-181v187h-92v-187h-181v-82h181z" />
    <glyph glyph-name="comma" unicode="," horiz-adv-x="292" 
d="M274 79l-158 -257h-116l76 257h198zM98 49l-58 -197h60l120 197h-122z" />
    <glyph glyph-name="hyphen" unicode="-" horiz-adv-x="395" 
d="M358 378v-141h-321v141h321zM67 348v-81h261v81h-261z" />
    <glyph glyph-name="period" unicode="." horiz-adv-x="284" 
d="M142 -28q-39 0 -66 27q-26 28 -26 64q0 37 26 65q27 27 66 27q40 0 67 -27q25 -27 25 -65q0 -39 -25 -64q-27 -27 -67 -27zM142 125q-27 0 -45 -18q-17 -17 -17 -44q0 -26 17 -43q18 -18 45 -18q28 0 46 18q16 16 16 43t-17 44q-17 18 -45 18z" />
    <glyph glyph-name="slash" unicode="/" horiz-adv-x="570" 
d="M589 760l-473 -938h-167l481 938h159zM448 730l-450 -878h100l443 878h-93z" />
    <glyph glyph-name="zero" unicode="0" horiz-adv-x="860" 
d="M431 -28q-81 0 -156 32q-71 30 -128 85q-54 54 -85 128q-32 75 -32 155t31 156q30 72 86 128q55 55 127 85q75 32 156 32q165 0 282 -117t117 -284q0 -79 -31 -155q-30 -72 -86 -128t-126 -85q-75 -32 -155 -32zM430 743q-152 0 -262 -108q-108 -108 -108 -263
q0 -74 29 -144q29 -67 79 -117q109 -109 263 -109q153 0 260 109q53 53 79 117q29 70 29 144q0 155 -108 263t-261 108zM431 113q-106 0 -179 75q-73 76 -73 184t73 186q73 76 178 76q106 0 177 -76q73 -78 73 -186q0 -109 -72 -184t-177 -75zM430 604q-92 0 -156 -67
q-65 -68 -65 -165q0 -96 65 -163q63 -66 157 -66q92 0 155.5 66.5t63.5 162.5t-64 165q-64 67 -156 67z" />
    <glyph glyph-name="one" unicode="1" horiz-adv-x="317" 
d="M281 760v-775h-175v614h-94v161h269zM136 629v-614h115v715h-209v-101h94z" />
    <glyph glyph-name="two" unicode="2" horiz-adv-x="530" 
d="M518 146v-161h-513l206 338q-69 15 -119 70q-58 66 -58 151q0 91 66 159q65 70 161 70q94 0 161 -67t67 -162q0 -64 -37 -125l-166 -273h232zM260 345l-202 -330h430v101h-255l194 318q32 52 32 110q0 83 -58 141q-56 58 -140 58q-82 0 -139 -60q-58 -60 -58 -139
q0 -74 51 -131q50 -56 122 -65zM260 450q-38 0 -64 28q-28 26 -28 64q0 39 28 65q26 27 64 27q40 0 65 -27q27 -25 27 -65q0 -38 -27 -64q-26 -28 -65 -28zM260 604q-25 0 -43.5 -18.5t-18.5 -43.5t18.5 -43.5t43.5 -18.5t43.5 18.5t18.5 43.5q0 26 -18 44t-44 18z" />
    <glyph glyph-name="three" unicode="3" horiz-adv-x="529" 
d="M234 -28q-66 0 -125 32q-55 30 -94 84l-9 12l144 105l9 -14q27 -45 75 -45q39 0 65 29q27 27 27 66q0 43 -26 70.5t-66 27.5h-138l134 260h-173v161h442l-142 -271q66 -29 105 -88q45 -64 45 -148q0 -119 -79 -200t-194 -81zM142 162l-94 -69q33 -40 75 -62
q53 -29 111 -29q102 0 172 72q71 73 71 179q0 72 -39 131q-40 59 -107 83l-16 6l134 257h-362v-101h193l-134 -260h88q53 0 86 -35q36 -38 36 -93q0 -50 -35 -87q-36 -38 -87 -38q-56 0 -92 46z" />
    <glyph glyph-name="four" unicode="4" horiz-adv-x="583" 
d="M478 164v-179h-170v179h-319l301 596h181l-217 -435h54v73h170v-73h100v-161h-100zM338 194v-179h110v179h100v101h-100v73h-110v-73h-133l217 435h-113l-271 -536h300z" />
    <glyph glyph-name="five" unicode="5" horiz-adv-x="543" 
d="M233 -28q-64 0 -122 30.5t-96 83.5l-9 12l144 105l8 -13q29 -44 75 -44q48 0 76 25q30 25 30 70q0 49 -26 75q-23 22 -68 22h-174v422h362v-161h-199v-86h11q122 0 197 -71.5t75 -188.5q0 -120 -82 -200q-83 -81 -202 -81zM143 161l-95 -70q31 -37 78 -62q54 -27 107 -27
q106 0 181 73q73 71 73 178q0 104 -66 167q-65 63 -176 63h-41v146h199v101h-302v-362h144q57 0 88 -30q36 -34 36 -97q0 -59 -41 -92q-38 -33 -95 -33q-53 0 -90 45z" />
    <glyph glyph-name="six" unicode="6" horiz-adv-x="601" 
d="M295 -28q-52 0 -104 22q-47 19 -86 58q-37 37 -58 85q-21 49 -21 104q0 74 42 146l213 373h190l-140 -248q101 -13 168.5 -90t67.5 -181q0 -112 -79 -189q-80 -80 -193 -80zM419 730h-120l-205 -358q-38 -67 -38 -131q0 -98 70 -168q71 -71 169 -71q101 0 172 71
q70 70 70 168t-67.5 168.5t-164.5 73.5l-24 1zM295 116q-48 0 -84 38q-35 37 -35 87q0 57 35 92q33 35 84 35q53 0 87 -36t34 -91q0 -51 -34 -87q-36 -38 -87 -38zM295 338q-37 0 -63 -26q-26 -28 -26 -71q0 -39 26 -67t63 -28q38 0 64.5 27.5t26.5 67.5q0 43 -26 71
q-26 26 -65 26z" />
    <glyph glyph-name="seven" unicode="7" horiz-adv-x="532" 
d="M565 760l-395 -775h-188l311 614h-276v161h548zM342 629l-311 -614h120l365 715h-469v-101h295z" />
    <glyph glyph-name="eight" unicode="8" horiz-adv-x="594" 
d="M295 -28q-55 0 -104 21q-50 22 -86 58t-58 86q-21 49 -21 104q0 107 75 187q-33 51 -33 116q0 94 67 161q66 68 160 68q95 0 162 -67.5t67 -161.5q0 -62 -32 -115q75 -80 75 -188q0 -111 -79 -190t-193 -79zM295 743q-80 0 -139 -59q-58 -60 -58 -140q0 -61 34 -109
l8 -11l-10 -9q-74 -72 -74 -174q0 -98 70 -168q71 -71 169 -71q101 0 171 70q71 71 71 169q0 104 -74 175l-10 9l8 10q33 52 33 109q0 82 -58 140.5t-141 58.5zM295 116q-50 0 -84 37q-35 37 -35 88q0 56 35 91q34 36 84 36q52 0 86 -36q35 -35 35 -91q0 -51 -34 -88
q-35 -37 -87 -37zM295 338q-36 0 -63 -27q-26 -28 -26 -70q0 -39 26 -67t63 -28q38 0 64.5 27.5t26.5 67.5q0 44 -26 70q-27 27 -65 27zM295 455q-36 0 -60 26q-24 25 -24 63t24 63q24 26 60 26q37 0 61 -26q25 -25 25 -63t-24.5 -63.5t-61.5 -25.5zM295 603
q-23 0 -38.5 -17t-15.5 -42t15.5 -42t38.5 -17q24 0 40 17t16 42t-16 42t-40 17z" />
    <glyph glyph-name="nine" unicode="9" horiz-adv-x="601" 
d="M539 384l-226 -399h-187l140 249q-95 11 -163 80q-76 79 -76 190t79 190q81 79 194 79q110 0 189 -79q37 -37 58 -85q21 -51 21 -105q0 -70 -29 -120zM316 262l-138 -247h117l218 384q25 43 25 105q0 99 -70 169t-168 70q-102 0 -172 -70q-71 -69 -71 -169q0 -99 68 -169
q71 -73 166 -73h25zM300 377q-51 0 -87 36q-35 37 -35 91q0 53 35 88q35 37 87 37q50 0 85 -37q34 -36 34 -88q0 -54 -35 -91q-34 -36 -84 -36zM300 599q-39 0 -66 -27q-26 -28 -26 -68q0 -42 26 -69.5t66 -27.5q37 0 62 27q27 27 27 70q0 41 -27 68q-26 27 -62 27z" />
    <glyph glyph-name="colon" unicode=":" horiz-adv-x="284" 
d="M142 -28q-39 0 -66 27q-26 28 -26 64q0 37 26 65q27 27 66 27q40 0 67 -27q25 -27 25 -65q0 -39 -25 -64q-27 -27 -67 -27zM142 125q-27 0 -45 -18q-17 -17 -17 -44q0 -26 17 -43q18 -18 45 -18q28 0 46 18q16 16 16 43t-17 44q-17 18 -45 18zM142 358q-39 0 -66 27
q-26 28 -26 64q0 40 26 66t66 26t66 -26t26 -66q0 -39 -25 -64q-27 -27 -67 -27zM142 511q-27 0 -45 -18q-17 -17 -17 -44q0 -26 17 -43q18 -18 45 -18q28 0 46 18q16 16 16 43t-17 44q-17 18 -45 18z" />
    <glyph glyph-name="semicolon" unicode=";" horiz-adv-x="292" 
d="M274 79l-158 -257h-116l76 257h198zM155 358q-39 0 -65.5 26.5t-26.5 64.5q0 40 26 66t66 26q41 0 67 -26t26 -66q0 -38 -26 -64q-27 -27 -67 -27zM98 49l-58 -197h60l120 197h-122zM155 511q-29 0 -45 -18q-17 -17 -17 -44q0 -26 17 -43q18 -18 45 -18q28 0 46 18
q17 17 17 43q0 27 -17.5 44.5t-45.5 17.5z" />
    <glyph glyph-name="less" unicode="&#x3c;" horiz-adv-x="437" 
d="M400 164v-200l-387 387l387 401v-201l-195 -199zM370 677l-315 -325l315 -315v114l-207 200l207 213v113z" />
    <glyph glyph-name="equal" unicode="=" horiz-adv-x="588" 
d="M533 307v-142h-479v142h479zM533 541v-142h-479v142h479zM84 511v-82h419v82h-419zM84 277v-82h419v82h-419z" />
    <glyph glyph-name="greater" unicode="&#x3e;" horiz-adv-x="437" 
d="M37 -35v200l195 188l-195 199v201l387 -401zM382 353l-315 325v-113l207 -213l-207 -200v-114z" />
    <glyph glyph-name="question" unicode="?" horiz-adv-x="451" 
d="M266 327v-108h-161v257h105q26 2 43.5 22t17.5 47q0 33 -18.5 53t-49.5 20q-38 0 -55 -33l-8 -15l-129 93l8 12q31 46 80 72t104 26q96 0 163 -67q66 -66 66 -162q0 -78 -50 -141q-45 -55 -116 -76zM135 446v-197h101v102l12 3q67 14 110.5 68t43.5 122q0 84 -57 141
q-58 58 -142 58q-93 0 -150 -73l78 -57q26 35 72 35q44 0 71 -29t27 -74q0 -39 -26 -68t-64 -31h-76zM185 -28q-39 0 -66 27q-26 28 -26 64q0 37 26 65q27 27 66 27q40 0 67 -27q25 -27 25 -65q0 -39 -25 -64q-27 -27 -67 -27zM185 125q-27 0 -45 -18q-17 -17 -17 -44
q0 -26 17 -43q18 -18 45 -18q28 0 46 18q16 16 16 43t-17 44q-16 18 -45 18z" />
    <glyph glyph-name="at" unicode="@" horiz-adv-x="954" 
d="M506 19v-137h-15q-197 0 -331 132q-62 62 -95 141q-35 82 -35 170q0 91 35 173.5t99 144.5q133 130 326 130q182 0 308 -114q61 -56 92 -124q34 -72 34 -153q0 -147 -104 -259q-109 -118 -260 -134l-18 -2v160q-27 -12 -63 -12q-87 0 -146 58.5t-59 146.5q0 79 59 143
q61 64 142 64q48 0 95 -22h114v-340q41 28 65 69q31 53 31 128q0 109 -83 184q-83 77 -207 77q-133 0 -225 -92q-91 -93 -91 -226q0 -129 91 -218q91 -88 226 -88h15zM490 743q-181 0 -305.5 -121t-124.5 -297q0 -82 32 -158q33 -76 90 -132q117 -117 294 -123v77
q-140 6 -231 96q-101 98 -101 240q0 147 100 247q101 101 246 101q134 0 227 -85q93 -84 93 -206q0 -81 -35 -143q-34 -60 -99 -93l-22 -12v361h-91l-3 1q-43 21 -85 21q-70 0 -120 -55q-51 -54 -51 -122q0 -75 50 -125t125 -50q41 0 70 19l23 17v-179q134 24 226 121
q96 104 96 239q0 150 -116 255q-118 106 -288 106zM477 246q-38 0 -65 27q-29 27 -29 68q0 38 28 66.5t66 28.5q40 0 68 -28t28 -67q0 -40 -28 -68q-29 -27 -68 -27zM477 406q-25 0 -44 -19q-20 -20 -20 -46q0 -28 20 -46q19 -19 44 -19q28 0 47 19t19 46t-19 46t-47 19z
" />
    <glyph glyph-name="A" unicode="A" horiz-adv-x="785" 
d="M393 791l419 -806h-203l-49 99h-343l-48 -99h-194zM578 114l49 -99h135l-369 711l-368 -711h126l48 99h379zM387 507l138 -282h-274zM387 438l-88 -183h178z" />
    <glyph glyph-name="B" unicode="B" horiz-adv-x="645" 
d="M336 -15h-275v775h254q114 0 180 -49q72 -55 72 -163q0 -76 -45 -124q44 -34 66 -76q27 -50 27 -108q0 -61 -23 -108q-22 -46 -63 -81q-80 -66 -193 -66zM91 730v-715h245q103 0 174 59q75 64 75 166q0 111 -94 170l-16 10l14 13q48 44 48 115q0 92 -60 139
q-58 43 -162 43h-224zM341 125h-125v222h125q53 0 85 -30q30 -30 30 -82q0 -51 -31 -80.5t-84 -29.5zM309 452h-93v168h93q44 0 67 -16q32 -21 32 -68q0 -37 -17 -56q-25 -28 -82 -28zM246 317v-162h95q43 0 64 21t21 59q0 82 -85 82h-95zM246 590v-108h63q43 0 56 14.5
t13 39.5q0 31 -19 43q-17 11 -50 11h-63z" />
    <glyph glyph-name="C" unicode="C" horiz-adv-x="857" 
d="M428 -28q-165 0 -282 117q-56 58 -85 127q-31 72 -31 156t31 156q31 74 84 127q56 56 127 86q75 32 155 32q107 0 199 -52q89 -50 143 -136l7 -12l-145 -103l-8 13q-38 55 -90 84q-49 28 -105 28q-88 0 -148 -65q-61 -66 -61 -158q0 -91 61 -157q61 -64 148 -64
q78 0 138 51q60 52 74 130l2 12h186l-1 -17q-17 -149 -131 -252q-115 -103 -268 -103zM427 743q-153 0 -260 -109t-107 -262t107 -262q106 -108 261 -108q142 0 247 96q98 88 120 216h-128q-18 -81 -82 -135q-69 -58 -157 -58q-101 0 -170 74t-69 177q0 104 69 179
q69 74 170 74q62 0 119 -31q54 -31 92 -82l97 69q-48 71 -125 114q-87 48 -184 48z" />
    <glyph glyph-name="D" unicode="D" horiz-adv-x="813" 
d="M379 -15h-318v775h317q170 0 286 -111q119 -111 119 -276t-119 -278q-116 -110 -285 -110zM91 730v-715h288q157 0 265 102q109 103 109 256q0 152 -109 255q-108 102 -266 102h-287zM379 125h-163v495h162q105 0 175 -70q71 -69 71 -177q0 -106 -71 -177
q-69 -71 -174 -71zM246 590v-435h133q91 0 153 62t62 156t-62 156q-63 61 -154 61h-132z" />
    <glyph glyph-name="E" unicode="E" horiz-adv-x="583" 
d="M553 155v-170h-492v775h426v-170h-241v-109h280v-169h-280v-157h307zM91 730v-715h432v110h-307v217h280v109h-280v169h241v110h-366z" />
    <glyph glyph-name="F" unicode="F" horiz-adv-x="546" 
d="M246 312v-327h-185v775h426v-170h-241v-109h280v-169h-280zM91 730v-715h125v327h280v109h-280v169h241v110h-366z" />
    <glyph glyph-name="G" unicode="G" horiz-adv-x="857" 
d="M428 -28q-165 0 -282 117q-56 58 -85 127q-31 72 -31 156t31 156q30 72 85 127q56 56 126 86q75 32 155 32q107 0 199 -52q89 -50 143 -136l7 -12l-149 -108l-8 15q-30 53 -79 83q-50 32 -112 32q-88 0 -148 -65q-61 -66 -61 -158q0 -91 61 -157q61 -64 148 -64
q66 0 116 32q43 25 67 71h-194v168h412v-38q0 -82 -31 -161q-30 -73 -86 -131q-56 -56 -127 -88q-76 -32 -157 -32zM427 743q-153 0 -260 -109t-107 -262t107 -262q106 -108 261 -108q154 0 262 111q109 112 109 271v8h-352v-108h209l-8 -20q-26 -69 -88 -107
q-57 -36 -132 -36q-101 0 -170 74t-69 177q0 104 69 179q69 74 170 74q69 0 128 -36q47 -29 81 -80l99 72q-48 71 -125 114q-87 48 -184 48z" />
    <glyph glyph-name="H" unicode="H" horiz-adv-x="804" 
d="M743 760v-775h-185v327h-312v-327h-185v775h185v-279h312v279h185zM588 342v-327h125v715h-125v-279h-372v279h-125v-715h125v327h372z" />
    <glyph glyph-name="I" unicode="I" horiz-adv-x="307" 
d="M246 760v-775h-185v775h185zM91 730v-715h125v715h-125z" />
    <glyph glyph-name="J" unicode="J" horiz-adv-x="682" 
d="M289 -28q-59 0 -110 15q-56 17 -95 47q-88 64 -117 190l-3 14l170 51l4 -15q30 -123 152 -123q73 0 115 56q39 49 39 126v257h-132v170h316v-427q0 -74 -21 -137q-21 -66 -64 -115q-94 -109 -254 -109zM113 252l-114 -35q29 -106 103 -159q76 -56 187 -56q147 0 231 98
q78 90 78 233v397h-256v-110h132v-287q0 -85 -45 -144q-51 -68 -139 -68q-54 0 -98 25q-56 32 -79 106z" />
    <glyph glyph-name="K" unicode="K" horiz-adv-x="801" 
d="M446 379l393 -394h-252l-273 274l-68 -68v-206h-185v775h185v-331l331 331h250zM314 301l286 -286h166l-363 364l351 351h-164l-374 -373v373h-125v-715h125v188z" />
    <glyph glyph-name="L" unicode="L" horiz-adv-x="551" 
d="M546 155v-170h-485v775h185v-605h300zM91 730v-715h425v110h-300v605h-125z" />
    <glyph glyph-name="M" unicode="M" horiz-adv-x="946" 
d="M884 789v-804h-184v435l-227 -164l-227 164v-435h-185v804l412 -313zM730 479v-464h124v713l-381 -289l-382 289v-713h125v464l257 -186z" />
    <glyph glyph-name="N" unicode="N" horiz-adv-x="837" 
d="M776 760v-805l-530 441v-411h-185v807l530 -445v413h185zM91 727v-712h125v445l530 -441v711h-125v-448z" />
    <glyph glyph-name="O" unicode="O" horiz-adv-x="861" 
d="M431 -28q-81 0 -156 32q-71 30 -128 85q-56 56 -86 128q-31 76 -31 156q0 79 31 156q30 71 86 127q55 55 127 85q75 32 156 32t156 -32q74 -31 128 -85t85 -127q32 -76 32 -156q0 -81 -32 -156q-31 -74 -85 -128q-57 -55 -127 -85q-76 -32 -156 -32zM430 743
q-154 0 -262 -108t-108 -262t108 -262q109 -109 263 -109q153 0 262 109q50 51 79 118q29 69 29 144q0 152 -108 262q-108 108 -263 108zM431 121q-102 0 -172 73t-70 179q0 104 69 178q71 74 172 74t172 -74q70 -75 70 -178q0 -106 -70 -179t-171 -73zM430 595
q-88 0 -150 -65q-61 -64 -61 -157q0 -94 61 -158q62 -64 151 -64q88 0 149 64q62 64 62 158q0 92 -62 157t-150 65z" />
    <glyph glyph-name="P" unicode="P" horiz-adv-x="677" 
d="M246 98v-113h-185v775h269q140 0 236 -98q91 -93 91 -217q0 -151 -94 -248q-96 -99 -243 -99h-74zM91 730v-715h125v113h104q134 0 220.5 89.5t86.5 227.5q0 111 -83 196q-87 89 -214 89h-239zM316 239h-100v381h109q40 0 74 -17q32 -15 55 -44q44 -55 44 -130
q0 -82 -46 -134q-50 -56 -136 -56zM246 590v-321h70q72 0 113 46q39 43 39 114q0 63 -38.5 112t-104.5 49h-79z" />
    <glyph glyph-name="Q" unicode="Q" horiz-adv-x="860" 
d="M750 15v-174h-501l94 142q-129 28 -216 129q-97 112 -97 260q0 83 31 157q29 70 86 127t127 86q72 31 156 31t156 -31q72 -30 128 -86q54 -53 85 -127q32 -76 32 -157q0 -66 -23 -132q-21 -61 -62 -113q-40 -52 -94 -88q-24 -16 -41 -24h139zM393 5l-88 -134h415v114
h-253l58 30q121 31 197 130q39 50 58 105q21 58 21 122q0 153 -108 263q-108 108 -263 108q-154 0 -262 -108t-108 -263q0 -137 89 -240q93 -108 221 -124zM431 121q-102 0 -172 73t-70 178t69 179q71 74 172 74t172 -74q70 -73 70 -179q0 -104 -70 -177q-69 -74 -171 -74z
M430 595q-88 0 -149 -64q-62 -65 -62 -159q0 -92 62 -157q61 -64 150 -64q88 0 149 64q62 65 62 157q0 94 -62 159q-62 64 -150 64z" />
    <glyph glyph-name="R" unicode="R" horiz-adv-x="685" 
d="M501 167l171 -182h-247l-122 129h-57v-129h-185v775h274q136 0 231 -90q93 -90 93 -218q0 -105 -47 -180q-40 -66 -111 -105zM316 144l122 -129h165l-152 162l19 9q75 34 117 102q42 69 42 164q0 115 -84 196q-85 82 -210 82h-244v-715h125v129h100zM295 254h-79v366h109
q83 0 131 -53q44 -50 44 -127q0 -90 -53 -138q-54 -48 -152 -48zM246 590v-306h49q88 0 132 40q43 39 43 116q0 66 -36 107q-38 43 -109 43h-79z" />
    <glyph glyph-name="S" unicode="S" horiz-adv-x="566" 
d="M276 -28q-69 0 -132 26q-67 29 -120 88l-11 12l153 113l9 -12q37 -48 101 -48q32 0 54 21.5t22 52.5q0 79 -99 90q-102 12 -164 73q-62 62 -62 155q0 96 76 166q34 31 75 47q42 17 83 17q61 0 113 -24q57 -26 99 -77l11 -13l-146 -106l-9 10q-32 32 -68 32
q-25 0 -39.5 -13.5t-14.5 -37.5q0 -21 17 -34q23 -18 73 -21q104 -6 173 -72q73 -70 73 -181q0 -113 -82 -190q-38 -36 -85 -54q-49 -20 -100 -20zM161 170l-103 -76q44 -45 98 -68q55 -24 120 -24q94 0 165 66q72 69 72 168q0 98 -64 159q-61 58 -154 64q-58 3 -90 27
q-28 23 -28 58q0 36 23.5 58.5t60.5 22.5q42 0 80 -33l99 72q-74 79 -179 79q-76 0 -138 -56q-66 -60 -66 -144q0 -81 53.5 -134.5t146.5 -63.5q60 -8 91 -37q34 -32 34 -83q0 -43 -31 -73.5t-75 -30.5q-39 0 -66 12t-49 37z" />
    <glyph glyph-name="T" unicode="T" horiz-adv-x="583" 
d="M378 590v-605h-185v605h-184v170h565v-170h-196zM223 620v-605h125v605h196v110h-505v-110h184z" />
    <glyph glyph-name="U" unicode="U" horiz-adv-x="779" 
d="M391 -28q-81 0 -148 28q-63 27 -106 79q-83 100 -83 266v415h185v-441q0 -82 38 -125q40 -43 114 -43q77 0 115 45q36 42 36 123v441h183v-428q0 -81 -23 -150q-22 -66 -66 -114q-91 -96 -245 -96zM209 730h-125v-385q0 -156 76 -247q39 -46 95 -70q60 -26 136 -26
q70 0 128 23q55 21 95 64q38 41 60 103q21 62 21 140v398h-123v-411q0 -91 -43 -143q-47 -55 -138 -55q-89 0 -136 53q-46 50 -46 145v411z" />
    <glyph glyph-name="V" unicode="V" horiz-adv-x="775" 
d="M801 760l-403 -805l-423 805h212l216 -418l204 418h194zM169 730h-144l372 -710l355 710h-126l-222 -455z" />
    <glyph glyph-name="W" unicode="W" horiz-adv-x="1091" 
d="M549 262l-153 -308l-423 806h212l217 -419l53 102l-166 317h212l216 -418l204 418h194l-403 -805zM396 20l152 307l164 -307l355 710h-128l-221 -455l-235 455h-144l150 -287l-87 -167l-235 454h-144z" />
    <glyph glyph-name="X" unicode="X" horiz-adv-x="704" 
d="M460 392l265 -407h-210l-172 264l-165 -264h-199l248 398l-247 377h211l153 -236l149 236h199zM343 305l188 -290h138l-245 377l214 338h-129l-165 -262l-169 262h-139l227 -347l-230 -368h129z" />
    <glyph glyph-name="Y" unicode="Y" horiz-adv-x="774" 
d="M484 236v-251h-184v237l-327 538h213l208 -352l210 352h198zM330 230v-215h124v229l295 486h-128l-227 -380l-225 380h-143z" />
    <glyph glyph-name="Z" unicode="Z" horiz-adv-x="692" 
d="M687 155v-170h-704l386 605h-336v170h654l-391 -605h391zM424 620l-386 -605h619v110h-416l391 605h-569v-110h361z" />
    <glyph glyph-name="bracketleft" unicode="[" horiz-adv-x="333" 
d="M306 -47v-131h-245v951h245v-130h-98v-690h98zM91 743v-891h185v71h-98v750h98v70h-185z" />
    <glyph glyph-name="backslash" unicode="\" horiz-adv-x="570" 
d="M454 -178l-473 938h159l481 -938h-167zM572 -148l-450 878h-93l443 -878h100z" />
    <glyph glyph-name="bracketright" unicode="]" horiz-adv-x="333" 
d="M26 -178v131h98v690h-98v130h245v-951h-245zM241 -148v891h-185v-70h98v-750h-98v-71h185z" />
    <glyph glyph-name="asciicircum" unicode="^" horiz-adv-x="539" 
d="M268 1037l197 -245h-172l-24 33l-24 -33h-173zM268 876l40 -54h94l-134 167l-133 -167h95z" />
    <glyph glyph-name="underscore" unicode="_" horiz-adv-x="708" 
d="M738 -44v-134h-768v134h768zM0 -74v-74h708v74h-708z" />
    <glyph glyph-name="grave" unicode="`" horiz-adv-x="771" 
d="M378 1016l142 -223h-170l-90 138zM301 924l66 -101h98l-96 150z" />
    <glyph glyph-name="a" unicode="a" 
d="M282 -26q-110 0 -187 82q-76 82 -76 196q0 115 77 197q38 39 84 60q50 22 102 22q56 0 108 -31v20h172v-535h-172v18q-47 -29 -108 -29zM282 501q-96 0 -164 -73q-69 -74 -69 -176q0 -103 68 -175.5t165 -72.5q94 0 138 77v-66h112v475h-112v-59q-45 70 -138 70zM296 115
q-55 0 -93 38q-40 40 -40 99t39 98t94 39q56 0 93 -39t37 -98t-37 -98t-93 -39zM296 359q-43 0 -73 -30q-30 -32 -30 -77q0 -46 30 -78q29 -29 73 -29t71 29q29 31 29 78q0 48 -29 77q-28 30 -71 30z" />
    <glyph glyph-name="b" unicode="b" 
d="M320 -26q-39 0 -76 14q-23 10 -32 16v-19h-172v775h172v-259q50 30 108 30q54 0 102 -22q47 -21 83 -60q78 -81 78 -197q0 -114 -76 -195q-78 -83 -187 -83zM182 15v66q45 -77 138 -77q96 0 164.5 73t68.5 175q0 103 -69 177q-69 72 -164 72q-34 0 -73.5 -16t-64.5 -53
v298h-112v-715h112zM306 115q-56 0 -93 39t-37 98t37 98q36 39 93 39q56 0 94 -38q39 -41 39 -99q0 -59 -39 -98t-94 -39zM306 359q-44 0 -71 -29q-29 -31 -29 -78q0 -48 29 -77q28 -30 71 -30t73 30q30 32 30 77q0 47 -30 77q-29 30 -73 30z" />
    <glyph glyph-name="c" unicode="c" horiz-adv-x="595" 
d="M296 -26q-114 0 -196 82q-38 38 -59 88q-22 53 -22 108q0 116 81 197q82 82 196 82q65 0 123 -29q57 -28 96 -76l10 -11l-137 -107l-9 12q-31 39 -83 39q-42 0 -72 -30q-31 -31 -31 -77q0 -47 31 -78q29 -29 72 -29q41 0 70.5 24.5t35.5 64.5l1 13h175l-1 -16
q-8 -107 -89 -182t-192 -75zM296 501q-103 0 -174 -73q-73 -73 -73 -176q0 -102 73 -175q71 -73 174 -73q99 0 172 67q66 61 78 146h-117q-11 -42 -43 -70q-38 -32 -90 -32q-55 0 -93 38q-40 40 -40 99t39 98t94 39q59 0 96 -40l90 70q-36 37 -76 56q-52 26 -110 26z" />
    <glyph glyph-name="d" unicode="d" 
d="M282 -26q-109 0 -187 83q-76 81 -76 195q0 117 77 197q38 39 84 60q47 22 102 22q58 0 108 -30v259h172v-775h-172v19q-9 -6 -32 -16q-37 -14 -76 -14zM282 501q-97 0 -164 -72q-69 -74 -69 -177q0 -102 68 -175t165 -73q95 0 138 77v-66h112v715h-112v-298
q-25 37 -64 53t-74 16zM296 115q-55 0 -94 39t-39 98q0 58 39 99q38 38 94 38q57 0 93 -39q37 -39 37 -98t-37 -98t-93 -39zM296 359q-44 0 -73 -30q-30 -30 -30 -77q0 -45 30 -77q30 -30 73 -30t71 30q29 29 29 77q0 47 -29 78q-27 29 -71 29z" />
    <glyph glyph-name="e" unicode="e" horiz-adv-x="582" 
d="M308 -26q-119 0 -204 81.5t-85 196.5q0 116 81 197q82 82 196 82q94 0 171 -57q69 -52 96 -131l3 -11l-261 -187h4q72 0 105 58l137 -106l-8 -11q-35 -52 -100 -82q-61 -30 -135 -30zM296 501q-103 0 -174 -73q-73 -73 -73 -176t76 -175.5t183 -72.5q61 0 115.5 23.5
t86.5 63.5l-90 69q-39 -45 -112 -45q-48 0 -69 20l291 209q-23 62 -81 106q-68 51 -153 51zM390 349l-212 -151q-15 27 -15 58q0 55 39 94t94 39q54 0 94 -40zM296 359q-42 0 -72 -30q-31 -31 -31 -77q0 -5 1 -7l145 104q-19 10 -43 10z" />
    <glyph glyph-name="f" unicode="f" horiz-adv-x="366" 
d="M253 359v-374h-172v374h-69v161h70q3 106 78 176q77 71 187 71h15v-176h-15q-40 0 -66.5 -20t-27.5 -51h99v-161h-99zM111 389v-374h112v374h99v101h-99v27q0 45 35 75q31 25 74 29v116q-90 -5 -151 -63q-70 -65 -70 -162v-22h-69v-101h69z" />
    <glyph glyph-name="g" unicode="g" 
d="M289 -267q-69 0 -131 34q-61 34 -96 88l-9 12l140 101l9 -14q29 -50 87 -50q43 0 72 27t29 65v8q-9 -6 -32 -16q-37 -14 -76 -14q-109 0 -187 83q-76 81 -76 195q0 117 77 197q38 39 84 60q47 22 102 22q58 0 108 -30v19h172v-515q0 -112 -80 -192t-193 -80zM185 -75
l-90 -65q32 -41 78 -67q53 -30 116 -30q100 0 171.5 71t71.5 171v485h-112v-58q-25 37 -64.5 53t-73.5 16q-97 0 -164 -72q-69 -74 -69 -177q0 -102 68 -175t165 -73q95 0 138 77v-85q0 -51 -38 -86.5t-93 -35.5q-64 0 -104 51zM296 115q-55 0 -94 39t-39 98q0 58 39 99
q38 38 94 38q57 0 93 -39q37 -39 37 -98t-37 -98t-93 -39zM296 359q-44 0 -73 -30q-30 -30 -30 -77q0 -45 30 -77q30 -30 73 -30t71 30q29 29 29 77q0 47 -29 78q-27 29 -71 29z" />
    <glyph glyph-name="h" unicode="h" horiz-adv-x="612" 
d="M579 252v-267h-171v267q0 49 -24.5 78t-65.5 29q-42 0 -74 -30t-32 -77v-267h-172v775h172v-259q46 30 118 30q109 0 180 -83q69 -80 69 -196zM438 252v-237h111v237q0 106 -62 177q-28 34 -69 53q-39 19 -88 19q-98 0 -148 -74v303h-112v-715h112v237q0 57 41 98
q41 39 95 39q52 0 85 -35q35 -38 35 -102z" />
    <glyph glyph-name="i" unicode="i" horiz-adv-x="252" 
d="M212 520v-535h-172v535h172zM70 490v-475h112v475h-112zM125 579q-40 0 -68.5 28.5t-28.5 67.5q0 36 29 65q30 28 68 28q41 0 71 -28q29 -27 29 -65q0 -41 -29 -68q-30 -28 -71 -28zM125 738q-27 0 -47 -20q-20 -18 -20 -43q0 -28 20 -46q20 -20 47 -20q30 0 50 20
q20 18 20 46q0 26 -21 44.5t-49 18.5z" />
    <glyph glyph-name="j" unicode="j" horiz-adv-x="252" 
d="M-49 -267h-15v171h15q38 0 63 22q26 23 26 59v535h172v-527q0 -107 -76.5 -183.5t-184.5 -76.5zM-34 -125v-112q90 6 153 72.5t63 157.5v497h-112v-505q0 -50 -36 -81q-27 -26 -68 -29zM125 579q-40 0 -68.5 28.5t-28.5 67.5q0 36 29 65q30 28 68 28q41 0 71 -28
q29 -27 29 -65q0 -41 -29 -68q-30 -28 -71 -28zM125 738q-27 0 -47 -20q-20 -18 -20 -43q0 -28 20 -46q20 -20 47 -20q30 0 50 20q20 18 20 46q0 26 -21 44.5t-49 18.5z" />
    <glyph glyph-name="k" unicode="k" horiz-adv-x="598" 
d="M356 268l279 -283h-223l-175 172l-25 -24v-148h-172v775h172v-422l194 182h221zM238 199l187 -184h139l-251 254l237 221h-132l-236 -221v461h-112v-715h112v131z" />
    <glyph glyph-name="l" unicode="l" horiz-adv-x="252" 
d="M212 760v-775h-172v775h172zM70 730v-715h112v715h-112z" />
    <glyph glyph-name="m" unicode="m" horiz-adv-x="950" 
d="M917 252v-267h-171v267q0 52 -27 80q-24 27 -62 27q-40 0 -67 -31t-27 -76v-267h-172v267q0 56 -26 84q-25 23 -68 23q-33 0 -58 -30q-27 -31 -27 -77v-267h-172v535h172v-18q47 29 109 29q59 0 108 -24q38 -18 63 -47q33 36 83 54q46 17 97 17q120 0 185 -82
q60 -75 60 -197zM776 252v-237h111v237q0 110 -54 178q-28 35 -66 52q-41 19 -95 19q-46 0 -86 -15q-51 -18 -82 -59l-13 -17l-12 18q-21 33 -64.5 53t-93.5 20q-93 0 -139 -72v61h-112v-475h112v237q0 56 34 96.5t81 40.5q57 0 89 -32q35 -37 35 -105v-237h112v237
q0 58 35 96q35 41 89 41q52 0 84 -37q35 -38 35 -100z" />
    <glyph glyph-name="n" unicode="n" horiz-adv-x="612" 
d="M579 252v-267h-171v267q0 49 -24.5 78t-65.5 29q-45 0 -74 -26q-32 -29 -32 -81v-267h-172v535h172v-18q15 10 40 18q38 11 78 11q109 0 180 -82q69 -80 69 -197zM438 252v-237h111v237q0 106 -62 177q-28 34 -69 53q-39 19 -88 19q-50 0 -85.5 -14.5t-62.5 -56.5v60
h-112v-475h112v237q0 66 42 103q37 34 94 34q53 0 85 -35q35 -37 35 -102z" />
    <glyph glyph-name="o" unicode="o" horiz-adv-x="596" 
d="M296 -26q-114 0 -196 82q-38 38 -59 88q-22 53 -22 108q0 116 81 197q82 82 196 82q58 0 109 -22q50 -21 89 -60q83 -81 83 -197q0 -58 -22 -108q-21 -50 -61 -88q-39 -39 -89 -60q-51 -22 -109 -22zM296 501q-103 0 -174 -73q-73 -73 -73 -176q0 -102 73 -175
q71 -73 174 -73q49 0 97 20q45 18 80 53q74 72 74 175q0 104 -74 176q-73 73 -177 73zM296 115q-55 0 -93 38q-40 40 -40 99t39 98t94 39q58 0 97 -39q39 -38 39 -98q0 -62 -39 -99q-40 -38 -97 -38zM296 359q-42 0 -72 -30q-31 -31 -31 -77q0 -47 31 -78q29 -29 72 -29
q47 0 76 29q30 30 30 78q0 47 -30 77t-76 30z" />
    <glyph glyph-name="p" unicode="p" 
d="M212 3v-259h-172v776h172v-20q52 31 108 31q110 0 187 -82q76 -81 76 -195q0 -115 -78 -198q-77 -82 -188 -82q-61 0 -105 29zM70 490v-716h112v303q49 -73 135 -73q98 0 166 73q70 73 70 177q0 102 -68 175q-69 72 -165 72q-34 0 -73.5 -16.5t-64.5 -53.5v59h-112z
M306 115q-56 0 -93 39t-37 99t37 97q37 39 93 39q55 0 93 -38q40 -40 40 -98q0 -60 -39 -99t-94 -39zM306 359q-45 0 -72 -29q-28 -29 -28 -77q0 -47 29 -78q28 -30 71 -30q44 0 73.5 31t29.5 77t-30 76t-73 30z" />
    <glyph glyph-name="q" unicode="q" 
d="M390 -256v259q-44 -29 -105 -29q-111 0 -188 82q-78 83 -78 198q0 114 76 195q77 82 187 82q56 0 108 -31v20h172v-776h-172zM532 -226v716h-112v-59q-25 37 -64.5 53.5t-73.5 16.5q-96 0 -165 -72q-68 -73 -68 -175q0 -104 70 -177q68 -73 166 -73q86 0 135 73v-303h112
zM296 115q-55 0 -94 39t-39 99q0 58 39 97t94 39q56 0 93 -39q37 -37 37 -97t-37 -99t-93 -39zM296 359q-43 0 -73 -30t-30 -76t29.5 -77t73.5 -31q42 0 71 30q29 31 29 78q0 48 -28 77q-27 29 -72 29z" />
    <glyph glyph-name="r" unicode="r" horiz-adv-x="362" 
d="M212 252v-267h-172v535h172v-17q42 28 97 28q23 0 37 -2l13 -2v-181l-20 7q-18 6 -40 6q-37 0 -61 -25q-26 -29 -26 -82zM70 490v-475h112v237q0 63 34 102q32 35 83 35q21 0 30 -2v114h-20q-62 0 -101 -41l-26 -27v57h-112z" />
    <glyph glyph-name="s" unicode="s" horiz-adv-x="412" 
d="M191 -26q-57 0 -104 21q-45 19 -81 60l-11 12l144 105l9 -10q17 -17 44 -17q23 0 23 19t-32 24q-75 11 -121 57q-49 47 -49 118q0 69 61 121q55 47 120 47q104 0 164 -86l8 -12l-124 -89l-9 8q-18 17 -36 17q-15 0 -15 -11q0 -6 5 -8q9 -6 36 -9q86 -11 131.5 -57
t45.5 -122q0 -84 -61 -137q-59 -51 -148 -51zM136 133l-96 -70q59 -59 151 -59q78 0 128 44q51 44 51 114q0 68 -42 105q-38 35 -108 44q-68 8 -68 47q0 18 12.5 29.5t32.5 11.5q24 0 47 -17l80 58q-48 61 -130 61q-55 0 -101 -40q-50 -42 -50 -98q0 -57 39.5 -96.5
t105.5 -48.5q27 -4 42 -18t15 -36t-13 -35q-16 -14 -40 -14q-32 0 -56 18z" />
    <glyph glyph-name="t" unicode="t" horiz-adv-x="371" 
d="M363 145v-171h-15q-57 0 -108 17q-50 16 -87 47q-39 33 -58 75q-21 44 -21 96v150h-76v161h76v59l172 124v-183h120v-161h-120v-146q0 -33 28 -50q27 -18 74 -18h15zM28 490v-101h76v-180q0 -91 68 -148q63 -52 161 -57v111q-54 4 -85.5 30t-31.5 68v176h120v101h-120
v155l-112 -82v-73h-76z" />
    <glyph glyph-name="u" unicode="u" horiz-adv-x="612" 
d="M275 -26q-104 0 -175 80q-67 78 -67 188v278h172v-266q0 -47 25.5 -78t63.5 -31q47 0 75 24q32 27 32 85v266h171v-535h-171v20q-21 -11 -44 -18q-42 -13 -82 -13zM175 490h-112v-248q0 -100 60 -168q61 -70 152 -70q103 0 156 71v-60h111v475h-111v-236q0 -72 -43 -108
q-36 -31 -94 -31q-50 0 -85 40q-34 40 -34 99v236z" />
    <glyph glyph-name="v" unicode="v" horiz-adv-x="522" 
d="M546 520l-274 -566l-298 566h191l111 -222l99 222h171zM146 490h-123l248 -469l227 469h-104l-117 -263z" />
    <glyph glyph-name="w" unicode="w" horiz-adv-x="751" 
d="M776 520l-275 -567l-114 238l-113 -237l-300 566h191l112 -223l29 63l-75 160h169l106 -221l97 221h173zM147 490h-123l248 -469l115 239l114 -238l227 468h-105l-115 -263l-127 263h-102l60 -130l-62 -132z" />
    <glyph glyph-name="x" unicode="x" horiz-adv-x="529" 
d="M361 269l195 -284h-203l-88 136l-87 -136h-203l194 284l-158 251h183l71 -118l71 118h184zM265 177l105 -162h129l-174 254l140 221h-112l-88 -146l-88 146h-111l138 -221l-172 -254h129z" />
    <glyph glyph-name="y" unicode="y" horiz-adv-x="584" 
d="M609 520l-361 -776h-180l142 304l-235 472h190l136 -292l134 292h174zM243 49l-128 -275h114l333 716h-108l-152 -333l-156 333h-122z" />
    <glyph glyph-name="z" unicode="z" horiz-adv-x="479" 
d="M471 150v-165h-484l225 374h-184v161h457l-210 -370h196zM265 389l-225 -374h401v105h-217l210 370h-376v-101h207z" />
    <glyph glyph-name="braceleft" unicode="{" horiz-adv-x="364" 
d="M345 -41v-137h-15q-103 0 -163 66q-58 61 -58 170v66q0 44 -24 77.5t-68 33.5h-15v125h15q37 0 64.5 29t27.5 83v65q0 109 57 171q62 65 164 65h15v-136h-15q-32 0 -56.5 -26t-24.5 -74v-65q0 -103 -57 -171l-4 -4l3 -3q58 -64 58 -170v-66q0 -40 21 -69.5t60 -29.5h15z
M32 331v-67q48 -6 77 -44q30 -41 30 -96v-66q0 -96 49 -151q47 -50 127 -55v78q-43 5 -69 41q-27 37 -27 87v66q0 100 -50 149l-25 24q21 17 25 24q50 68 50 151v65q0 52 27 88q26 35 69 41v76q-78 -4 -126 -56q-50 -53 -50 -149v-65q0 -56 -30 -97q-30 -39 -77 -44z" />
    <glyph glyph-name="bar" unicode="|" horiz-adv-x="260" 
d="M199 759v-972h-138v972h138zM91 729v-912h78v912h-78z" />
    <glyph glyph-name="braceright" unicode="}" horiz-adv-x="364" 
d="M19 -178v137h15q39 0 60 29.5t21 69.5v66q0 106 58 170l3 3l-4 4q-57 68 -57 171v65q0 48 -24.5 74t-56.5 26h-15v136h15q102 0 164 -65q57 -62 57 -171v-65q0 -54 27.5 -83t64.5 -29h15v-125h-15q-44 0 -68 -33.5t-24 -77.5v-66q0 -109 -58 -170q-60 -66 -163 -66h-15z
M332 264v67q-47 5 -77 44q-30 41 -30 97v65q0 96 -50 149q-48 52 -126 56v-76q43 -6 69 -41q27 -36 27 -88v-65q0 -83 50 -151q4 -7 25 -24l-25 -24q-50 -49 -50 -149v-66q0 -50 -27 -87q-26 -36 -69 -41v-78q80 5 127 55q49 55 49 151v66q0 55 30 96q29 38 77 44z" />
    <glyph glyph-name="asciitilde" unicode="~" horiz-adv-x="851" 
d="M507 792q-23 0 -66 20.5t-66 20.5q-33 0 -71 -32l-9 -8l-122 91l10 12q70 84 171 84q35 0 81 -20q38 -16 55 -16q23 0 49 31l9 11l124 -89l-10 -13q-32 -41 -65 -63q-43 -29 -90 -29zM375 863q27 0 67 -20q40 -21 65 -21q38 0 74 24q27 18 48 44l-77 56q-30 -32 -62 -32
q-24 0 -66 18q-44 18 -70 18q-81 0 -138 -61l78 -58q21 17 34 23q23 9 47 9z" />
    <glyph glyph-name="exclamdown" unicode="&#xa1;" horiz-adv-x="241" 
d="M201 525v-540h-161v540h161zM70 495v-480h101v480h-101zM121 590q-40 0 -66.5 26.5t-26.5 65.5q0 38 26 64q25 27 67 27q39 0 65.5 -26.5t26.5 -64.5q0 -39 -26.5 -65.5t-65.5 -26.5zM121 743q-28 0 -46 -18q-17 -17 -17 -43q0 -27 17.5 -44.5t45.5 -17.5q27 0 45 18
q17 17 17 44q0 26 -17 43q-18 18 -45 18z" />
    <glyph glyph-name="cent" unicode="&#xa2;" horiz-adv-x="857" 
d="M495 -22v-78h-138v79q-139 25 -230 130q-97 114 -97 263t97 263q92 106 230 131v75h138v-73q81 -15 153 -60q75 -49 121 -123l7 -12l-145 -103l-9 13q-36 55 -89 84q-49 28 -105 28q-88 0 -148 -65q-61 -66 -61 -158q0 -91 61 -157q61 -64 148 -64q78 0 138 51
q60 52 74 130l2 12h186l-1 -17q-8 -70 -37 -128q-28 -57 -76 -107q-44 -46 -105 -77q-52 -26 -114 -37zM387 5v-75h78v74l13 2q63 8 118 36q52 26 97 71q43 44 70 99q23 49 32 102h-128q-18 -81 -82 -135q-69 -58 -157 -58q-102 0 -170 73q-69 74 -69 178q0 105 69 179
t170 74q62 0 119 -31q55 -31 91 -82l98 69q-41 60 -104 102q-71 45 -154 57l-13 2v69h-78v-71l-13 -2q-133 -18 -224 -122q-90 -106 -90 -244q0 -139 90 -243q90 -103 224 -122z" />
    <glyph glyph-name="sterling" unicode="&#xa3;" horiz-adv-x="640" 
d="M387 -15h-350v170h62v122h-62v171h62v71q0 109 81 182q37 34 85 52q47 19 100 19q138 0 230 -115l9 -12l-145 -106l-9 12q-33 42 -85 42q-33 0 -57.5 -22.5t-24.5 -51.5v-71h121v-171h-121v-122h104q56 0 90 48l8 12l141 -103l-9 -12q-92 -115 -230 -115zM67 125v-110
h320q116 0 196 91l-91 67q-21 -24 -43 -35q-26 -13 -62 -13h-134v182h121v111h-121v101q0 42 34 73t78 31q62 0 99 -43l97 71q-80 91 -196 91q-96 0 -165 -63q-71 -65 -71 -160v-101h-62v-111h62v-182h-62z" />
    <glyph glyph-name="currency" unicode="&#xa4;" horiz-adv-x="652" 
d="M212 102l-56 -57l-127 124l58 58q-25 56 -25 113q0 61 26 115l-59 58l127 127l59 -60q52 23 110 23q59 0 112 -24l61 61l126 -127l-60 -60q24 -53 24 -113q0 -58 -24 -111l60 -60l-126 -124l-58 58q-55 -26 -114 -26q-58 0 -114 25zM435 135l10 5l53 -53l83 82l-54 55
l5 9q26 50 26 107q0 61 -26 110l-5 9l54 54l-83 84l-55 -55l-9 5q-49 26 -109 26q-58 0 -107 -25l-10 -5l-53 54l-83 -84l53 -53l-5 -10q-28 -50 -28 -110q0 -58 27 -109l5 -9l-52 -52l83 -82l52 51l9 -5q51 -27 110 -27q58 0 109 28zM326 200q-56 0 -96 42q-41 41 -41 98
t41 100q39 41 95 41q57 0 95 -41q39 -42 39 -100t-38 -98q-39 -42 -95 -42zM325 451q-43 0 -74.5 -32.5t-31.5 -78.5q0 -43 32 -77q33 -33 75 -33q43 0 73 32t30 78t-31 79q-29 32 -73 32z" />
    <glyph glyph-name="yen" unicode="&#xa5;" horiz-adv-x="774" 
d="M484 137v-152h-184v152h-143v159h118l-303 464h214l212 -335l210 335h195l-302 -464h125v-159h-142zM330 167v-152h124v152h142v99h-150l302 464h-123l-226 -361l-230 361h-142l303 -464h-143v-99h143z" />
    <glyph glyph-name="brokenbar" unicode="&#xa6;" horiz-adv-x="260" 
d="M198 244v-437h-132v437h132zM198 739v-437h-132v437h132zM96 709v-377h72v377h-72zM96 214v-377h72v377h-72z" />
    <glyph glyph-name="section" unicode="&#xa7;" horiz-adv-x="560" 
d="M279 -207q-93 0 -156 68q-64 69 -64 168v15h148v-15q0 -34 22 -59.5t50 -25.5q33 0 53 20q18 18 18 49q0 26 -21 47q-24 21 -54 21q-92 0 -161 67q-67 67 -67 162q0 86 57 153q-59 62 -59 147q0 90 68 155q68 63 159 63q93 0 157 -68.5t64 -167.5v-15h-149v15
q0 35 -21.5 60.5t-50.5 25.5q-32 0 -52 -20q-19 -21 -19 -48q0 -28 22.5 -49t51.5 -21q97 0 164 -67q68 -68 68 -163q0 -90 -60 -153q60 -65 60 -144q0 -91 -68 -156q-32 -31 -72 -47q-43 -17 -88 -17zM178 14h-88q5 -79 55 -132q54 -59 134 -59q81 0 140 56q58 55 58 134
q0 74 -61 133l-11 11l11 11q61 55 61 142q0 85 -58 141q-59 59 -144 59q-40 0 -72 30t-32 70q0 41 28 69q27 29 73 29q43 0 73 -36q24 -27 29 -65h89q-5 77 -56 132q-54 59 -135 59q-80 0 -138 -55q-59 -56 -59 -133q0 -37 16 -74q14 -33 44 -61l11 -11l-11 -11
q-58 -58 -58 -143q0 -82 59 -141q58 -58 139 -58q42 0 74 -30q31 -28 31 -68q0 -43 -27 -70q-29 -29 -74 -29q-37 0 -66.5 29.5t-34.5 70.5zM279 199q-43 0 -74 34q-31 31 -31 77q0 44 31 77t72 33q44 0 75 -33q29 -32 29 -77q0 -44 -28 -77q-29 -34 -74 -34zM277 390
q-29 0 -51 -24t-22 -56q0 -33 22.5 -57t52.5 -24q31 0 51 24q21 23 21 57t-21 57t-53 23z" />
    <glyph glyph-name="dieresis" unicode="&#xa8;" horiz-adv-x="729" 
d="M486 790q-32 0 -54 22.5t-22 56.5q0 35 23 56q21 21 53 21q35 0 56 -21q23 -21 23 -56q0 -34 -23 -57q-22 -22 -56 -22zM486 916q-18 0 -32 -12q-14 -14 -14 -35q0 -22 14 -36q15 -13 32 -13q22 0 35.5 14t13.5 35t-13.5 34t-35.5 13zM226 790q-32 0 -54 22
q-23 23 -23 57q0 33 22.5 55t54.5 22q34 0 56 -21.5t22 -55.5t-22 -56q-21 -23 -56 -23zM226 916q-20 0 -33.5 -13t-13.5 -34t13.5 -35t33.5 -14q21 0 34.5 14t13.5 35q0 22 -13 34.5t-35 12.5z" />
    <glyph glyph-name="copyright" unicode="&#xa9;" horiz-adv-x="861" 
d="M431 -28q-81 0 -157 32q-70 30 -127 85q-56 56 -86 128q-31 72 -31 156q0 82 31 156q30 71 86 127q55 55 127 85q75 32 156 32t156 -32q74 -31 128 -85t85 -127q32 -76 32 -156q0 -81 -32 -156q-31 -74 -85 -128q-57 -55 -127 -85q-76 -32 -156 -32zM430 743
q-152 0 -262 -108q-108 -108 -108 -262t108 -262q109 -109 263 -109q153 0 262 109q50 51 79 118q29 69 29 144q0 153 -108 261q-109 109 -263 109zM431 68q-124 0 -209 88q-84 89 -84 217q0 126 84 215q85 90 208 90q121 0 208 -90q85 -88 85 -215q0 -128 -84.5 -216.5
t-207.5 -88.5zM430 648q-109 0 -186 -80q-76 -81 -76 -195q0 -117 76 -196t187 -79q110 0 186 79.5t76 195.5q0 115 -77 195q-78 80 -186 80zM433 154q-91 0 -152 63q-63 63 -63 153q0 89 63 152q62 64 152 64q55 0 104.5 -27.5t80.5 -74.5l7 -12l-103 -74l-8 12
q-36 51 -81 51q-36 0 -60 -27q-25 -27 -25 -64t25 -64q24 -27 60 -27q27 0 52 20q25 21 32 51l4 11h129l-1 -17q-12 -80 -70 -135q-61 -55 -146 -55zM433 556q-76 0 -131 -55q-54 -56 -54 -131q0 -78 54 -132t131 -54q73 0 126 47q43 40 57 100h-73q-14 -36 -44.5 -59
t-65.5 -23q-48 0 -82 36q-33 36 -33 85t33 85q34 36 82 36q55 0 96 -51l55 39q-58 77 -151 77z" />
    <glyph glyph-name="ordfeminine" unicode="&#xaa;" horiz-adv-x="505" 
d="M253 785l241 -460h-147l-26 51h-144l-24 -51h-143zM485 274v-137h-465v137h465zM339 406l26 -51h79l-191 366l-193 -366h74l24 51h181zM50 244v-77h405v77h-405zM249 593l61 -125h-123zM249 539l-23 -46h45z" />
    <glyph glyph-name="guillemotleft" unicode="&#xab;" horiz-adv-x="729" 
d="M717 201l-81 -117l-337 288l337 289l81 -117l-206 -172zM413 201l-81 -117l-337 288l337 289l81 -117l-206 -172zM326 616l-285 -244l285 -243l46 67l-212 176l212 177zM630 616l-285 -244l285 -243l46 67l-212 176l212 177z" />
    <glyph glyph-name="logicalnot" unicode="&#xac;" horiz-adv-x="508" 
d="M500 475v-226h-131v95h-364v131h495zM399 374v-95h71v166h-435v-71h364z" />
    <glyph glyph-name="registered" unicode="&#xae;" horiz-adv-x="861" 
d="M431 -28q-81 0 -157 32q-70 30 -127 85q-56 56 -86 128q-31 72 -31 156q0 82 31 156q30 71 86 127q55 55 127 85q75 32 156 32t156 -32q74 -31 128 -85t85 -127q32 -76 32 -156q0 -81 -32 -156q-31 -74 -85 -128q-57 -55 -127 -85q-76 -32 -156 -32zM430 743
q-152 0 -262 -108q-108 -108 -108 -262t108 -262q109 -109 263 -109q153 0 262 109q50 51 79 118q29 69 29 144q0 153 -108 261q-109 109 -263 109zM431 68q-124 0 -209 88q-84 89 -84 217q0 126 84 215q85 90 208 90q121 0 208 -90q85 -88 85 -215q0 -128 -84.5 -216.5
t-207.5 -88.5zM430 648q-109 0 -186 -80q-76 -81 -76 -195q0 -117 76 -196t187 -79q114 0 189 83h-152l-58 60v-60h-124v401h145q73 0 122 -47q51 -48 51 -117q0 -40 -17.5 -76t-47.5 -59l89 -93q65 78 65 183q0 115 -77 195q-78 80 -186 80zM422 271l58 -60h86l-74 77
l16 10q30 18 48 50.5t18 69.5q0 57 -41 96q-41 38 -102 38h-115v-341h64v60h42zM413 329h-33v166h47q35 0 57 -23t22 -60q0 -39 -26 -62q-24 -21 -67 -21zM410 465v-106h4q30 0 47 14q15 12 15 39q0 10 -2.5 20t-14.5 21.5t-32 11.5h-17z" />
    <glyph glyph-name="macron" unicode="&#xaf;" horiz-adv-x="847" 
d="M643 969v-164h-443v164h443zM230 939v-104h383v104h-383z" />
    <glyph glyph-name="degree" unicode="&#xb0;" horiz-adv-x="348" 
d="M162 513q-51 0 -91 38q-38 36 -38 90q0 56 38 94q36 38 91 38q56 0 93 -37q39 -39 39 -95q0 -53 -38.5 -90.5t-93.5 -37.5zM162 743q-41 0 -70 -29t-29 -73q0 -40 29 -69q31 -29 70 -29q42 0 72 29t30 69q0 43 -29.5 72.5t-72.5 29.5zM162 596q-19 0 -32 13.5t-13 31.5
q0 21 12.5 34.5t32.5 13.5t32 -13t12 -35q0 -19 -12.5 -32t-31.5 -13zM162 659q-15 0 -15 -18q0 -6 4.5 -10.5t10.5 -4.5q14 0 14 15q0 18 -14 18z" />
    <glyph glyph-name="plusminus" unicode="&#xb1;" horiz-adv-x="623" 
d="M383 399v-186h-143v186h-186v142h186v187h143v-187h186v-142h-186zM569 167v-142h-515v142h515zM270 429v-186h83v186h186v82h-186v187h-83v-187h-186v-82h186zM84 137v-82h455v82h-455z" />
    <glyph glyph-name="twosuperior" unicode="&#xb2;" horiz-adv-x="288" 
d="M295 443v-118h-315l115 185q-38 14 -61.5 47t-23.5 74q0 54 38 94q38 42 95 42q56 0 95.5 -40t39.5 -96q0 -35 -22 -72l-70 -116h109zM142 530l-108 -175h231v58h-132l97 161q18 30 18 57q0 44 -30.5 75t-74.5 31t-73 -32q-30 -32 -30 -74q0 -37 22 -63t59 -34zM145 581
q-20 0 -34 14t-14 34t14 34t34 14t34 -14t14 -34q0 -19 -14.5 -33.5t-33.5 -14.5zM145 647q-7 0 -12.5 -5.5t-5.5 -12.5t5.5 -12.5t12.5 -5.5t12.5 5.5t5.5 12.5t-5.5 12.5t-12.5 5.5z" />
    <glyph glyph-name="threesuperior" unicode="&#xb3;" horiz-adv-x="301" 
d="M135 320q-38 0 -73.5 20t-60.5 54l-9 12l103 73l8 -14q13 -22 32 -22q12 0 21 9.5t9 23.5q0 15 -9 23.5t-21 8.5h-97l70 136h-83v116h274l-79 -150q28 -16 50 -48q22 -34 22 -81q0 -68 -45 -115q-46 -46 -112 -46zM87 437l-52 -38q44 -49 100 -49q53 0 90 37q37 39 37 94
q0 75 -68 110l-14 7l70 132h-195v-56h102l-70 -136h48q24 0 42 -17t18 -45q0 -27 -18 -45t-42 -18q-27 0 -48 24z" />
    <glyph glyph-name="acute" unicode="&#xb4;" horiz-adv-x="911" 
d="M584 931l-90 -138h-170l141 223zM474 973l-95 -150h98l66 101z" />
    <glyph glyph-name="mu" unicode="&#xb5;" horiz-adv-x="612" 
d="M205 -11v-245h-160v776h160v-284q0 -43 26 -72.5t63 -29.5q41 0 74 31q33 33 33 77v278h159v-535h-159v20q-52 -31 -126 -31q-33 0 -70 15zM75 490v-716h100v266l23 -14q36 -22 77 -22q105 0 156 71v-60h99v475h-99v-248q0 -58 -42 -98t-95 -40q-49 0 -84 38t-35 94v254
h-100z" />
    <glyph glyph-name="paragraph" unicode="&#xb6;" horiz-adv-x="691" 
d="M587 643v-658h-117v658h-71v-658h-118v219q-108 2 -184 82q-78 81 -78 197q0 115 81.5 196t195.5 81h361v-117h-70zM500 673v-658h57v658h70v57h-331q-102 0 -174.5 -72.5t-72.5 -174.5t70 -177q69 -72 165 -72h27v-219h58v658h131z" />
    <glyph glyph-name="periodcentered" unicode="&#xb7;" horiz-adv-x="211" 
d="M105 269q-33 0 -57 24q-22 24 -22 54q0 35 22 57q21 23 57 23q35 0 57.5 -22.5t22.5 -57.5q0 -32 -23 -55t-57 -23zM105 397q-22 0 -35.5 -14t-13.5 -36q0 -21 15 -34.5t34 -13.5q23 0 36 15q14 14 14 33q0 23 -13.5 36.5t-36.5 13.5z" />
    <glyph glyph-name="cedilla" unicode="&#xb8;" horiz-adv-x="973" 
d="M625 -20v-151h-406l116 177h178l-20 -26h132zM351 -24l-77 -117h321v91h-163l20 26h-101z" />
    <glyph glyph-name="onesuperior" unicode="&#xb9;" horiz-adv-x="178" 
d="M170 760v-435h-124v319h-48v116h172zM76 674v-319h64v375h-112v-56h48z" />
    <glyph glyph-name="ordmasculine" unicode="&#xba;" horiz-adv-x="469" 
d="M234 318q-92 0 -158 66t-66 158q0 94 66 160q65 65 158 65q94 0 159 -65q66 -64 66 -160q0 -94 -66 -158q-66 -66 -159 -66zM234 737q-81 0 -137 -56q-57 -57 -57 -139q0 -80 57 -137q59 -57 137 -57q79 0 138 57q57 57 57 137q0 82 -57 139q-56 56 -138 56zM449 274
v-137h-429v137h429zM236 425q-44 0 -77.5 35t-33.5 82t33 82q32 34 78 34t78 -34q33 -35 33 -82t-33.5 -82t-77.5 -35zM50 244v-77h369v77h-369zM236 628q-33 0 -57 -25.5t-24 -60.5q0 -33 24 -60q25 -27 57 -27t56 27q25 27 25 60q0 35 -24 60.5t-57 25.5z" />
    <glyph glyph-name="guillemotright" unicode="&#xbb;" horiz-adv-x="729" 
d="M94 84l-81 117l206 171l-206 172l81 117l337 -289zM385 372l-285 244l-46 -67l212 -177l-212 -176l46 -67zM398 84l-81 117l206 171l-206 172l81 117l337 -289zM689 372l-285 244l-46 -67l212 -177l-212 -176l46 -67z" />
    <glyph glyph-name="questiondown" unicode="&#xbf;" horiz-adv-x="451" 
d="M248 -28q-95 0 -162 67t-67 162q0 79 50 141q46 55 116 75v109h161v-257h-98q-29 0 -49 -20q-19 -21 -19 -49q0 -33 19 -53t49 -20q38 0 56 33l9 15l128 -94l-8 -12q-32 -44 -79 -70q-50 -27 -106 -27zM316 496h-101v-103l-11 -3q-67 -14 -111 -67t-44 -122
q0 -83 58 -141t141 -58q48 0 91 23q36 19 60 50l-78 57q-29 -35 -73 -35q-43 0 -70 29q-28 30 -28 74q0 40 28 70q29 29 70 29h68v197zM266 590q-41 0 -66 27q-26 26 -26 65q0 37 25 64q27 27 67 27q39 0 65.5 -26.5t26.5 -64.5q0 -40 -26 -66t-66 -26zM266 743
q-28 0 -45 -18q-17 -17 -17 -43q0 -27 17 -44q18 -18 45 -18q28 0 45 18q17 17 17 44q0 24 -17 43q-18 18 -45 18z" />
    <glyph glyph-name="Agrave" unicode="&#xc0;" horiz-adv-x="785" 
d="M393 791l419 -806h-203l-49 99h-343l-48 -99h-194zM578 114l49 -99h135l-369 711l-368 -711h126l48 99h379zM387 507l138 -282h-274zM338 1016l142 -223h-170l-90 138zM387 438l-88 -183h178zM261 924l66 -101h98l-96 150z" />
    <glyph glyph-name="Aacute" unicode="&#xc1;" horiz-adv-x="785" 
d="M393 791l419 -806h-203l-49 99h-343l-48 -99h-194zM578 114l49 -99h135l-369 711l-368 -711h126l48 99h379zM387 507l138 -282h-274zM584 931l-90 -138h-170l141 223zM387 438l-88 -183h178zM474 973l-95 -150h98l66 101z" />
    <glyph glyph-name="Acircumflex" unicode="&#xc2;" horiz-adv-x="785" 
d="M393 791l419 -806h-203l-49 99h-343l-48 -99h-194zM578 114l49 -99h135l-369 711l-368 -711h126l48 99h379zM390 1038l197 -245h-172l-24 33l-24 -33h-173zM387 507l138 -282h-274zM390 877l40 -54h94l-134 167l-133 -167h95zM387 438l-88 -183h178z" />
    <glyph glyph-name="Atilde" unicode="&#xc3;" horiz-adv-x="785" 
d="M393 791l419 -806h-203l-49 99h-343l-48 -99h-194zM578 114l49 -99h135l-369 711l-368 -711h126l48 99h379zM387 507l138 -282h-274zM387 438l-88 -183h178zM487 793q-25 0 -79 26q-32 15 -53 15q-33 0 -71 -32l-9 -8l-122 91l10 12q70 84 171 84q35 0 81 -20
q38 -16 55 -16q23 0 49 31l9 11l124 -89l-10 -13q-32 -41 -65 -63q-43 -29 -90 -29zM355 864q27 0 67 -20q40 -21 65 -21q38 0 74 24q27 18 48 44l-77 56q-30 -32 -62 -32q-24 0 -66 18q-44 18 -70 18q-81 0 -138 -61l78 -58q21 16 34 23q23 9 47 9z" />
    <glyph glyph-name="Adieresis" unicode="&#xc4;" horiz-adv-x="785" 
d="M393 791l419 -806h-203l-49 99h-343l-48 -99h-194zM578 114l49 -99h135l-369 711l-368 -711h126l48 99h379zM387 507l138 -282h-274zM387 438l-88 -183h178zM516 790q-32 0 -54 22.5t-22 56.5q0 35 23 56q21 21 53 21q35 0 56 -21q23 -21 23 -56q0 -34 -23 -57
q-22 -22 -56 -22zM516 916q-18 0 -32 -12q-14 -14 -14 -35q0 -22 14 -36q15 -13 32 -13q22 0 35.5 14t13.5 35t-13.5 34t-35.5 13zM256 790q-32 0 -54 22q-23 23 -23 57q0 33 22.5 55t54.5 22q34 0 56 -21.5t22 -55.5t-22 -56q-21 -23 -56 -23zM256 916q-20 0 -33.5 -13
t-13.5 -34t13.5 -35t33.5 -14q21 0 34.5 14t13.5 35q0 22 -13 34.5t-35 12.5z" />
    <glyph glyph-name="Aring" unicode="&#xc5;" horiz-adv-x="785" 
d="M-25 -15l416 803q-49 0 -87 36q-37 37 -37 87q0 54 37 91t87 37q54 0 91 -37t37 -91q0 -50 -36.5 -86t-88.5 -37l418 -803h-203l-49 99h-343l-48 -99h-194zM578 114l49 -99h135l-369 711l-368 -711h126l48 99h379zM387 507l138 -282h-274zM391 1009q-38 0 -66 -28
q-28 -30 -28 -70q0 -38 28 -65.5t66 -27.5q40 0 69 27.5t29 65.5q0 42 -28 70t-70 28zM387 438l-88 -183h178zM391 867q-17 0 -30 13t-13 31q0 20 12.5 33.5t30.5 13.5q19 0 31 -13t12 -34q0 -19 -12 -31.5t-31 -12.5zM391 928q-13 0 -13 -17q0 -5 4 -9.5t9 -4.5q13 0 13 14
q0 17 -13 17z" />
    <glyph glyph-name="AE" unicode="&#xc6;" horiz-adv-x="1124" 
d="M1094 155v-170h-486l-49 99h-342l-48 -99h-194l417 806l210 -403v372h425v-170h-241v-109h281v-169h-281v-157h308zM578 114l49 -99h437v110h-308v217h281v109h-281v169h241v110h-365v-465l-240 461l-368 -711h126l48 99h380zM386 507l139 -282h-274zM387 438l-89 -183
h178z" />
    <glyph glyph-name="Ccedilla" unicode="&#xc7;" horiz-adv-x="857" 
d="M618 -21v-151h-407l106 160q-51 14 -102 46q-57 37 -98 87q-41 51 -64 116q-23 66 -23 134q0 84 31 156q31 74 85 128q54 55 126 86t155 31q109 0 199 -51q90 -50 143 -137l7 -12l-145 -103l-9 13q-34 53 -89 85q-49 27 -105 27q-87 0 -148 -64q-61 -66 -61 -159
q0 -92 61 -156q60 -65 148 -65q78 0 138 51q60 52 74 130l2 12h186l-1 -16q-15 -129 -104.5 -225.5t-215.5 -122.5h111zM365 7l-98 -149h321v91h-164l43 55h6q122 15 212 101.5t110 207.5h-128q-19 -82 -82 -134q-68 -59 -157 -59q-99 0 -170 74q-69 74 -69 177
q0 107 69 179q69 74 170 74q64 0 119 -31q53 -29 91 -82l98 69q-50 73 -125 115q-85 47 -184 47q-154 0 -260 -108q-107 -109 -107 -263q0 -64 21 -124q21 -59 60 -107q78 -100 203 -128z" />
    <glyph glyph-name="Egrave" unicode="&#xc8;" horiz-adv-x="583" 
d="M553 155v-170h-492v775h426v-170h-241v-109h280v-169h-280v-157h307zM91 730v-715h432v110h-307v217h280v109h-280v169h241v110h-366zM248 1016l142 -223h-170l-90 138zM171 924l66 -101h98l-96 150z" />
    <glyph glyph-name="Eacute" unicode="&#xc9;" horiz-adv-x="583" 
d="M553 155v-170h-492v775h426v-170h-241v-109h280v-169h-280v-157h307zM91 730v-715h432v110h-307v217h280v109h-280v169h241v110h-366zM447 931l-90 -138h-170l141 223zM337 973l-95 -150h98l66 101z" />
    <glyph glyph-name="Ecircumflex" unicode="&#xca;" horiz-adv-x="583" 
d="M553 155v-170h-492v775h426v-170h-241v-109h280v-169h-280v-157h307zM91 730v-715h432v110h-307v217h280v109h-280v169h241v110h-366zM269 1038l197 -245h-172l-24 33l-24 -33h-173zM269 877l40 -54h94l-134 167l-133 -167h95z" />
    <glyph glyph-name="Edieresis" unicode="&#xcb;" horiz-adv-x="583" 
d="M553 155v-170h-492v775h426v-170h-241v-109h280v-169h-280v-157h307zM91 730v-715h432v110h-307v217h280v109h-280v169h241v110h-366zM415 790q-32 0 -54 22.5t-22 56.5q0 35 23 56q21 21 53 21q35 0 56 -21q23 -21 23 -56q0 -34 -23 -57q-22 -22 -56 -22zM155 790
q-32 0 -54 22q-23 23 -23 57q0 33 22.5 55t54.5 22q34 0 56 -21.5t22 -55.5t-22 -56q-21 -23 -56 -23zM155 916q-20 0 -33.5 -13t-13.5 -34t13.5 -35t33.5 -14q21 0 34.5 14t13.5 35q0 22 -13 34.5t-35 12.5zM415 916q-19 0 -32 -12q-14 -14 -14 -35q0 -22 14 -36
q15 -13 32 -13q22 0 35.5 14t13.5 35t-13.5 34t-35.5 13z" />
    <glyph glyph-name="Igrave" unicode="&#xcc;" horiz-adv-x="307" 
d="M246 760v-775h-185v775h185zM91 730v-715h125v715h-125zM96 1016l142 -223h-170l-90 138zM19 924l66 -101h98l-96 150z" />
    <glyph glyph-name="Iacute" unicode="&#xcd;" horiz-adv-x="307" 
d="M246 760v-775h-185v775h185zM91 730v-715h125v715h-125zM329 931l-90 -138h-170l141 223zM219 973l-95 -150h98l66 101z" />
    <glyph glyph-name="Icircumflex" unicode="&#xce;" horiz-adv-x="307" 
d="M246 760v-775h-185v775h185zM91 730v-715h125v715h-125zM152 1038l197 -245h-172l-24 33l-24 -33h-173zM152 877l40 -54h94l-134 167l-133 -167h95z" />
    <glyph glyph-name="Idieresis" unicode="&#xcf;" horiz-adv-x="307" 
d="M246 760v-775h-185v775h185zM91 730v-715h125v715h-125zM277 790q-32 0 -54 22.5t-22 56.5q0 35 23 56q21 21 53 21q35 0 56 -21q23 -21 23 -56q0 -34 -23 -57q-22 -22 -56 -22zM17 790q-32 0 -54 22q-23 23 -23 57q0 33 22.5 55t54.5 22q34 0 56 -21.5t22 -55.5t-22 -56
q-21 -23 -56 -23zM17 916q-20 0 -33.5 -13t-13.5 -34t13.5 -35t33.5 -14q21 0 34.5 14t13.5 35q0 22 -13 34.5t-35 12.5zM277 916q-19 0 -32 -12q-14 -14 -14 -35q0 -22 14 -36q15 -13 32 -13q22 0 35.5 14t13.5 35t-13.5 34t-35.5 13z" />
    <glyph glyph-name="Eth" unicode="&#xd0;" horiz-adv-x="813" 
d="M379 -15h-318v292h-35v171h35v312h317q169 0 286 -111q119 -111 119 -276t-119 -278q-116 -110 -285 -110zM91 307v-292h288q157 0 264 102q110 104 110 256q0 151 -110 255q-108 102 -265 102h-287v-312h-35v-111h35zM379 125h-163v182h155v111h-155v202h162
q103 0 175 -70q71 -69 71 -177q0 -106 -71 -177t-174 -71zM246 277v-122h133q91 0 153 62t62 156t-62 156q-63 61 -154 61h-132v-142h155v-171h-155z" />
    <glyph glyph-name="Ntilde" unicode="&#xd1;" horiz-adv-x="837" 
d="M776 760v-805l-530 441v-411h-185v807l530 -445v413h185zM91 727v-712h125v445l530 -441v711h-125v-448zM500 793q-23 0 -65.5 20.5t-66.5 20.5q-34 0 -71 -32l-10 -8l-122 91l10 12q37 44 78 64q40 20 93 20q24 0 68.5 -18t68.5 -18q21 0 49 31l9 11l122 -89l-9 -12
q-69 -93 -154 -93zM368 864q25 0 67 -20q38 -21 65 -21q63 0 121 68l-76 55q-33 -31 -62 -31q-25 0 -67 18t-70 18q-80 0 -137 -61l77 -58q21 17 35 23q21 9 47 9z" />
    <glyph glyph-name="Ograve" unicode="&#xd2;" horiz-adv-x="861" 
d="M360 1016l142 -223h-170l-90 138zM283 924l66 -101h98l-96 150zM431 -28q-81 0 -156 32q-71 30 -128 85q-56 56 -86 128q-31 76 -31 156q0 79 31 156q30 71 86 127q55 55 127 85q75 32 156 32t156 -32q74 -31 128 -85t85 -127q32 -76 32 -156q0 -81 -32 -156
q-31 -74 -85 -128q-57 -55 -127 -85q-76 -32 -156 -32zM430 743q-154 0 -262 -108t-108 -262t108 -262q109 -109 263 -109q153 0 262 109q50 51 79 118q29 69 29 144q0 152 -108 262q-108 108 -263 108zM431 121q-102 0 -172 73t-70 179q0 104 69 178q71 74 172 74t172 -74
q70 -75 70 -178q0 -106 -70 -179t-171 -73zM430 595q-88 0 -150 -65q-61 -64 -61 -157q0 -94 61 -158q62 -64 151 -64q88 0 149 64q62 64 62 158q0 92 -62 157t-150 65z" />
    <glyph glyph-name="Oacute" unicode="&#xd3;" horiz-adv-x="861" 
d="M431 -28q-81 0 -156 32q-71 30 -128 85q-56 56 -86 128q-31 76 -31 156q0 79 31 156q30 71 86 127q55 55 127 85q75 32 156 32t156 -32q74 -31 128 -85t85 -127q32 -76 32 -156q0 -81 -32 -156q-31 -74 -85 -128q-57 -55 -127 -85q-76 -32 -156 -32zM430 743
q-154 0 -262 -108t-108 -262t108 -262q109 -109 263 -109q153 0 262 109q50 51 79 118q29 69 29 144q0 152 -108 262q-108 108 -263 108zM431 121q-102 0 -172 73t-70 179q0 104 69 178q71 74 172 74t172 -74q70 -75 70 -178q0 -106 -70 -179t-171 -73zM430 595
q-88 0 -150 -65q-61 -64 -61 -157q0 -94 61 -158q62 -64 151 -64q88 0 149 64q62 64 62 158q0 92 -62 157t-150 65zM564 931l-90 -138h-170l141 223zM454 973l-95 -150h98l66 101z" />
    <glyph glyph-name="Ocircumflex" unicode="&#xd4;" horiz-adv-x="861" 
d="M430 1038l197 -245h-172l-24 33l-24 -33h-173zM430 877l40 -54h94l-134 167l-133 -167h95zM431 -28q-81 0 -156 32q-71 30 -128 85q-56 56 -86 128q-31 76 -31 156q0 79 31 156q30 71 86 127q55 55 127 85q75 32 156 32t156 -32q74 -31 128 -85t85 -127q32 -76 32 -156
q0 -81 -32 -156q-31 -74 -85 -128q-57 -55 -127 -85q-76 -32 -156 -32zM430 743q-154 0 -262 -108t-108 -262t108 -262q109 -109 263 -109q153 0 262 109q50 51 79 118q29 69 29 144q0 152 -108 262q-108 108 -263 108zM431 121q-102 0 -172 73t-70 179q0 104 69 178
q71 74 172 74t172 -74q70 -75 70 -178q0 -106 -70 -179t-171 -73zM430 595q-88 0 -150 -65q-61 -64 -61 -157q0 -94 61 -158q62 -64 151 -64q88 0 149 64q62 64 62 158q0 92 -62 157t-150 65z" />
    <glyph glyph-name="Otilde" unicode="&#xd5;" horiz-adv-x="861" 
d="M431 -28q-81 0 -156 32q-71 30 -128 85q-56 56 -86 128q-31 76 -31 156q0 79 31 156q30 71 86 127q55 55 127 85q75 32 156 32t156 -32q74 -31 128 -85t85 -127q32 -76 32 -156q0 -81 -32 -156q-31 -74 -85 -128q-57 -55 -127 -85q-76 -32 -156 -32zM430 743
q-154 0 -262 -108t-108 -262t108 -262q109 -109 263 -109q153 0 262 109q50 51 79 118q29 69 29 144q0 152 -108 262q-108 108 -263 108zM431 121q-102 0 -172 73t-70 179q0 104 69 178q71 74 172 74t172 -74q70 -75 70 -178q0 -106 -70 -179t-171 -73zM430 595
q-88 0 -150 -65q-61 -64 -61 -157q0 -94 61 -158q62 -64 151 -64q88 0 149 64q62 64 62 158q0 92 -62 157t-150 65zM542 793q-25 0 -77 25q-34 16 -55 16q-33 0 -71 -32l-9 -8l-122 91l10 12q70 84 171 84q35 0 81 -20q38 -16 55 -16q23 0 49 31l9 11l124 -89l-10 -13
q-32 -41 -65 -63q-43 -29 -90 -29zM410 864q27 0 67 -20q40 -21 65 -21q38 0 74 24q27 18 48 44l-77 56q-30 -32 -62 -32q-24 0 -66 18q-44 18 -70 18q-81 0 -138 -61l78 -58q21 16 34 23q23 9 47 9z" />
    <glyph glyph-name="Odieresis" unicode="&#xd6;" horiz-adv-x="861" 
d="M431 -28q-81 0 -156 32q-71 30 -128 85q-56 56 -86 128q-31 76 -31 156q0 79 31 156q30 71 86 127q55 55 127 85q75 32 156 32t156 -32q74 -31 128 -85t85 -127q32 -76 32 -156q0 -81 -32 -156q-31 -74 -85 -128q-57 -55 -127 -85q-76 -32 -156 -32zM430 743
q-154 0 -262 -108t-108 -262t108 -262q109 -109 263 -109q153 0 262 109q50 51 79 118q29 69 29 144q0 152 -108 262q-108 108 -263 108zM431 121q-102 0 -172 73t-70 179q0 104 69 178q71 74 172 74t172 -74q70 -75 70 -178q0 -106 -70 -179t-171 -73zM430 595
q-88 0 -150 -65q-61 -64 -61 -157q0 -94 61 -158q62 -64 151 -64q88 0 149 64q62 64 62 158q0 92 -62 157t-150 65zM562 790q-32 0 -54 22.5t-22 56.5q0 35 23 56q21 21 53 21q35 0 56 -21q23 -21 23 -56q0 -34 -23 -57q-22 -22 -56 -22zM562 916q-18 0 -32 -12
q-14 -14 -14 -35q0 -22 14 -36q15 -13 32 -13q22 0 35.5 14t13.5 35t-13.5 34t-35.5 13zM302 790q-32 0 -54 22q-23 23 -23 57q0 33 22.5 55t54.5 22q34 0 56 -21.5t22 -55.5t-22 -56q-21 -23 -56 -23zM302 916q-20 0 -33.5 -13t-13.5 -34t13.5 -35t33.5 -14q21 0 34.5 14
t13.5 35q0 22 -13 34.5t-35 12.5z" />
    <glyph glyph-name="multiply" unicode="&#xd7;" horiz-adv-x="517" 
d="M490 222l-100 -100l-131 131l-131 -131l-101 100l131 131l-131 131l101 101l131 -131l131 131l100 -101l-131 -131zM200 353l-131 -131l59 -58l131 131l131 -131l58 58l-131 131l131 131l-58 59l-131 -131l-131 131l-59 -59z" />
    <glyph glyph-name="Oslash" unicode="&#xd8;" horiz-adv-x="861" 
d="M431 -28q-82 0 -157 31l-21 -31h-210l92 130q-47 52 -74 117q-31 72 -31 154t31 156q30 71 86 127q55 55 127 85q75 32 156 32q84 0 163 -34l16 21h208l-88 -121q45 -50 73 -116q29 -72 29 -150q0 -81 -32 -156q-31 -74 -85 -128q-57 -55 -127 -85q-76 -32 -156 -32z
M237 2l27 39l11 -5q74 -34 156 -34q153 0 262 109q50 51 79 118q29 69 29 144q0 73 -27 139q-27 65 -75 116l-9 9l68 93h-134l-22 -29l-11 5q-76 37 -161 37q-152 0 -262 -108q-108 -108 -108 -262q0 -77 28 -143q26 -63 78 -117l8 -9l-73 -102h136zM531 601l-284 -397
l-13 18q-45 68 -45 151q0 104 69 178q71 74 172 74q41 0 83 -17zM431 121q-43 0 -77 12l-19 6l283 395l12 -19q42 -67 42 -142q0 -106 -70 -179t-171 -73zM430 595q-88 0 -150 -65q-61 -64 -61 -157q0 -63 29 -116l236 329q-27 9 -54 9zM615 479l-231 -323q18 -5 47 -5
q88 0 149 64q62 64 62 158q0 57 -27 106z" />
    <glyph glyph-name="Ugrave" unicode="&#xd9;" horiz-adv-x="779" 
d="M391 -28q-81 0 -148 28q-63 27 -106 79q-83 100 -83 266v415h185v-441q0 -82 38 -125q40 -43 114 -43q77 0 115 45q36 42 36 123v441h183v-428q0 -81 -23 -150q-22 -66 -66 -114q-91 -96 -245 -96zM209 730h-125v-385q0 -156 76 -247q39 -46 95 -70q60 -26 136 -26
q70 0 128 23q55 21 95 64q38 41 60 103q21 62 21 140v398h-123v-411q0 -91 -43 -143q-47 -55 -138 -55q-89 0 -136 53q-46 50 -46 145v411zM354 1016l142 -223h-170l-90 138zM277 924l66 -101h98l-96 150z" />
    <glyph glyph-name="Uacute" unicode="&#xda;" horiz-adv-x="779" 
d="M391 -28q-81 0 -148 28q-63 27 -106 79q-83 100 -83 266v415h185v-441q0 -82 38 -125q40 -43 114 -43q77 0 115 45q36 42 36 123v441h183v-428q0 -81 -23 -150q-22 -66 -66 -114q-91 -96 -245 -96zM209 730h-125v-385q0 -156 76 -247q39 -46 95 -70q60 -26 136 -26
q70 0 128 23q55 21 95 64q38 41 60 103q21 62 21 140v398h-123v-411q0 -91 -43 -143q-47 -55 -138 -55q-89 0 -136 53q-46 50 -46 145v411zM549 931l-90 -138h-170l141 223zM439 973l-95 -150h98l66 101z" />
    <glyph glyph-name="Ucircumflex" unicode="&#xdb;" horiz-adv-x="779" 
d="M391 -28q-81 0 -148 28q-63 27 -106 79q-83 100 -83 266v415h185v-441q0 -82 38 -125q40 -43 114 -43q77 0 115 45q36 42 36 123v441h183v-428q0 -81 -23 -150q-22 -66 -66 -114q-91 -96 -245 -96zM209 730h-125v-385q0 -156 76 -247q39 -46 95 -70q60 -26 136 -26
q70 0 128 23q55 21 95 64q38 41 60 103q21 62 21 140v398h-123v-411q0 -91 -43 -143q-47 -55 -138 -55q-89 0 -136 53q-46 50 -46 145v411zM393 1038l197 -245h-172l-24 33l-24 -33h-173zM393 877l40 -54h94l-134 167l-133 -167h95z" />
    <glyph glyph-name="Udieresis" unicode="&#xdc;" horiz-adv-x="779" 
d="M391 -28q-81 0 -148 28q-63 27 -106 79q-83 100 -83 266v415h185v-441q0 -82 38 -125q40 -43 114 -43q77 0 115 45q36 42 36 123v441h183v-428q0 -81 -23 -150q-22 -66 -66 -114q-91 -96 -245 -96zM209 730h-125v-385q0 -156 76 -247q39 -46 95 -70q60 -26 136 -26
q70 0 128 23q55 21 95 64q38 41 60 103q21 62 21 140v398h-123v-411q0 -91 -43 -143q-47 -55 -138 -55q-89 0 -136 53q-46 50 -46 145v411zM524 790q-32 0 -54 22.5t-22 56.5q0 35 23 56q21 21 53 21q35 0 56 -21q23 -21 23 -56q0 -34 -23 -57q-22 -22 -56 -22zM264 790
q-32 0 -54 22q-23 23 -23 57q0 33 22.5 55t54.5 22q34 0 56 -21.5t22 -55.5t-22 -56q-21 -23 -56 -23zM264 916q-20 0 -33.5 -13t-13.5 -34t13.5 -35t33.5 -14q21 0 34.5 14t13.5 35q0 22 -13 34.5t-35 12.5zM524 916q-18 0 -32 -12q-14 -14 -14 -35q0 -22 14 -36
q15 -13 32 -13q22 0 35.5 14t13.5 35t-13.5 34t-35.5 13z" />
    <glyph glyph-name="Yacute" unicode="&#xdd;" horiz-adv-x="774" 
d="M484 236v-251h-184v237l-327 538h213l208 -352l210 352h198zM330 230v-215h124v229l295 486h-128l-227 -380l-225 380h-143zM588 931l-90 -138h-170l141 223zM478 973l-95 -150h98l66 101z" />
    <glyph glyph-name="Thorn" unicode="&#xde;" horiz-adv-x="681" 
d="M250 51v-66h-189v775h189v-71h85q138 0 235 -94q92 -92 92 -210q0 -145 -96 -239q-97 -95 -242 -95h-74zM91 730v-715h129v66h104q134 0 221 86t87 218q0 107 -83 188q-89 86 -214 86h-115v71h-129zM321 191h-101v358h110q41 0 74 -16q32 -16 54 -41q45 -51 45 -122
q0 -76 -48 -126q-50 -53 -134 -53zM250 519v-298h71q71 0 113 44q39 41 39 105q0 59 -38 102q-40 47 -105 47h-80z" />
    <glyph glyph-name="germandbls" unicode="&#xdf;" horiz-adv-x="995" 
d="M702 -28q-67 0 -127 26q-64 27 -115 84l-11 13l145 109l9 -11q21 -25 47 -38q25 -10 52 -10q32 0 54 21t22 50q0 39 -23 60q-23 22 -75 28q-100 10 -163 70q-64 59 -64 151q0 29 -25.5 48.5t-57.5 19.5q-35 0 -62 -19q-28 -22 -28 -55v-534h-185v292h-58v171h58v71
q0 109 82 183q37 34 85 52t100 18q60 0 109 -20q47 -18 81 -49q64 44 136 44q120 0 197 -89l11 -12l-142 -103l-9 8q-28 23 -57 23q-50 0 -50 -50q0 -46 86 -52q101 -6 166 -70q72 -67 72 -174q0 -109 -79 -183q-36 -34 -83 -54q-49 -19 -98 -19zM590 163l-97 -73
q43 -43 94 -65q54 -23 115 -23q44 0 87 17q41 17 73 47q70 67 70 162q0 93 -62 153q-59 56 -148 62q-56 3 -87 26q-27 21 -27 55q0 40 23 61q20 19 57 19q35 0 67 -23l96 70q-68 66 -163 66q-68 0 -128 -46l-10 -7l-10 9q-33 33 -80 51q-46 18 -98 18q-96 0 -165 -63
q-72 -63 -72 -160v-101h-58v-111h58v-292h125v504q0 49 40 78q35 26 80 26t77 -26q36 -30 36 -72q0 -78 54 -129q56 -53 147 -63q124 -13 124 -117q0 -41 -30 -71q-32 -30 -76 -30q-67 0 -112 48z" />
    <glyph glyph-name="agrave" unicode="&#xe0;" 
d="M255 559l-90 138l119 85l141 -223h-170zM370 589l-95 150l-69 -49l66 -101h98zM282 -26q-110 0 -187 82q-76 82 -76 196q0 115 77 197q38 39 84 60q50 22 102 22q56 0 108 -31v20h172v-535h-172v18q-47 -29 -108 -29zM282 501q-96 0 -164 -73q-69 -74 -69 -176
q0 -103 68 -175.5t165 -72.5q94 0 138 77v-66h112v475h-112v-59q-45 70 -138 70zM296 115q-55 0 -93 38q-40 40 -40 99t39 98t94 39q56 0 93 -39t37 -98t-37 -98t-93 -39zM296 359q-43 0 -73 -30q-30 -32 -30 -77q0 -46 30 -78q29 -29 73 -29t71 29q29 31 29 78q0 48 -29 77
q-28 30 -71 30z" />
    <glyph glyph-name="aacute" unicode="&#xe1;" 
d="M282 -26q-110 0 -187 82q-76 82 -76 196q0 115 77 197q38 39 84 60q50 22 102 22q56 0 108 -31v20h172v-535h-172v18q-47 -29 -108 -29zM282 501q-96 0 -164 -73q-69 -74 -69 -176q0 -103 68 -175.5t165 -72.5q94 0 138 77v-66h112v475h-112v-59q-45 70 -138 70zM296 115
q-55 0 -93 38q-40 40 -40 99t39 98t94 39q56 0 93 -39t37 -98t-37 -98t-93 -39zM296 359q-43 0 -73 -30q-30 -32 -30 -77q0 -46 30 -78q29 -29 73 -29t71 29q29 31 29 78q0 48 -29 77q-28 30 -71 30zM475 697l-90 -138h-170l141 223zM365 739l-95 -150h98l66 101z" />
    <glyph glyph-name="acircumflex" unicode="&#xe2;" 
d="M282 -26q-110 0 -187 82q-76 82 -76 196q0 115 77 197q38 39 84 60q50 22 102 22q56 0 108 -31v20h172v-535h-172v18q-47 -29 -108 -29zM282 501q-96 0 -164 -73q-69 -74 -69 -176q0 -103 68 -175.5t165 -72.5q94 0 138 77v-66h112v475h-112v-59q-45 70 -138 70zM296 115
q-55 0 -93 38q-40 40 -40 99t39 98t94 39q56 0 93 -39t37 -98t-37 -98t-93 -39zM304 804l197 -245h-172l-24 33l-24 -33h-173zM296 359q-43 0 -73 -30q-30 -32 -30 -77q0 -46 30 -78q29 -29 73 -29t71 29q29 31 29 78q0 48 -29 77q-28 30 -71 30zM304 643l40 -54h94
l-134 167l-133 -167h95z" />
    <glyph glyph-name="atilde" unicode="&#xe3;" 
d="M282 -26q-110 0 -187 82q-76 82 -76 196q0 115 77 197q38 39 84 60q50 22 102 22q56 0 108 -31v20h172v-535h-172v18q-47 -29 -108 -29zM282 501q-96 0 -164 -73q-69 -74 -69 -176q0 -103 68 -175.5t165 -72.5q94 0 138 77v-66h112v475h-112v-59q-45 70 -138 70zM296 115
q-55 0 -93 38q-40 40 -40 99t39 98t94 39q56 0 93 -39t37 -98t-37 -98t-93 -39zM296 359q-43 0 -73 -30q-30 -32 -30 -77q0 -46 30 -78q29 -29 73 -29t71 29q29 31 29 78q0 48 -29 77q-28 30 -71 30zM403 559q-23 0 -66 20.5t-66 20.5q-33 0 -71 -32l-9 -8l-122 91l10 12
q70 84 171 84q35 0 81 -20q38 -16 55 -16q23 0 49 31l9 11l124 -89l-10 -13q-32 -41 -65 -63q-43 -29 -90 -29zM271 630q27 0 67 -20q40 -21 65 -21q38 0 74 24q27 18 48 44l-77 56q-30 -32 -62 -32q-24 0 -66 18q-44 18 -70 18q-81 0 -138 -61l78 -58q21 16 34 23
q22 9 47 9z" />
    <glyph glyph-name="adieresis" unicode="&#xe4;" 
d="M282 -26q-110 0 -187 82q-76 82 -76 196q0 115 77 197q38 39 84 60q50 22 102 22q56 0 108 -31v20h172v-535h-172v18q-47 -29 -108 -29zM282 501q-96 0 -164 -73q-69 -74 -69 -176q0 -103 68 -175.5t165 -72.5q94 0 138 77v-66h112v475h-112v-59q-45 70 -138 70zM296 115
q-55 0 -93 38q-40 40 -40 99t39 98t94 39q56 0 93 -39t37 -98t-37 -98t-93 -39zM296 359q-43 0 -73 -30q-30 -32 -30 -77q0 -46 30 -78q29 -29 73 -29t71 29q29 31 29 78q0 48 -29 77q-28 30 -71 30zM438 556q-32 0 -54 22.5t-22 56.5q0 35 23 56q21 21 53 21q35 0 56 -21
q23 -21 23 -56q0 -34 -23 -57q-22 -22 -56 -22zM438 682q-18 0 -32 -12q-14 -14 -14 -35q0 -22 14 -36q15 -13 32 -13q22 0 35.5 14t13.5 35t-13.5 34t-35.5 13zM178 556q-32 0 -54 22q-23 23 -23 57q0 33 22.5 55t54.5 22q34 0 56 -21.5t22 -55.5t-22 -56q-21 -23 -56 -23z
M178 682q-20 0 -33.5 -13t-13.5 -34t13.5 -35t33.5 -14q21 0 34.5 14t13.5 35q0 22 -13 34.5t-35 12.5z" />
    <glyph glyph-name="aring" unicode="&#xe5;" 
d="M282 -26q-110 0 -187 82q-76 82 -76 196q0 115 77 197q38 39 84 60q50 22 102 22q56 0 108 -31v20h172v-535h-172v18q-47 -29 -108 -29zM282 501q-96 0 -164 -73q-69 -74 -69 -176q0 -103 68 -175.5t165 -72.5q94 0 138 77v-66h112v475h-112v-59q-45 70 -138 70zM296 115
q-55 0 -93 38q-40 40 -40 99t39 98t94 39q56 0 93 -39t37 -98t-37 -98t-93 -39zM296 359q-43 0 -73 -30q-30 -32 -30 -77q0 -46 30 -78q29 -29 73 -29t71 29q29 31 29 78q0 48 -29 77q-28 30 -71 30zM299 554q-49 0 -87 36q-37 37 -37 87q0 54 37 91t87 37q54 0 91 -37
t37 -91q0 -51 -37.5 -87t-90.5 -36zM299 775q-38 0 -66 -28q-28 -30 -28 -70q0 -38 28 -65.5t66 -27.5q40 0 69 27.5t29 65.5q0 42 -28 70t-70 28zM299 633q-17 0 -30 13t-13 31q0 20 12.5 33.5t30.5 13.5q19 0 31 -13t12 -34q0 -19 -12 -31.5t-31 -12.5zM299 694
q-13 0 -13 -17q0 -5 4 -9.5t9 -4.5q13 0 13 14q0 17 -13 17z" />
    <glyph glyph-name="ae" unicode="&#xe6;" horiz-adv-x="964" 
d="M690 -26q-46 0 -85 13q-23 7 -43 18v-20h-172v20q-50 -31 -109 -31q-108 0 -185 82q-77 83 -77 196q0 116 81 197q82 82 196 82q54 0 94 -26v15h172v-17q16 9 38 16q38 12 79 12q94 0 171 -57q70 -53 96 -131l3 -11l-261 -187q76 0 109 58l137 -106l-8 -11
q-39 -52 -101.5 -82t-134.5 -30zM532 15v56q50 -67 158 -67q66 0 123 27q48 22 80 60l-90 69q-39 -45 -113 -45q-47 0 -68 20l291 209q-25 63 -81 106q-68 51 -153 51q-98 0 -147 -65v54h-112v-57q-28 41 -56.5 54.5t-67.5 13.5q-103 0 -174 -73q-73 -73 -73 -176
q0 -101 69 -175q68 -73 163 -73q85 0 139 70v-59h112zM296 115q-55 0 -94 39t-39 98t39 98t94 39q58 0 97 -39q39 -38 39 -98v-7q-2 -56 -40.5 -93t-95.5 -37zM296 359q-42 0 -72 -30q-31 -31 -31 -77q0 -47 31 -78q29 -29 72 -29q46 0 75 28t31 73v6q0 47 -30 77t-76 30z
M773 349l-212 -151q-15 27 -15 58q0 55 39 94t94 39q54 0 94 -40zM679 359q-42 0 -72 -30q-31 -31 -31 -77q0 -5 1 -7l145 104q-19 10 -43 10z" />
    <glyph glyph-name="ccedilla" unicode="&#xe7;" horiz-adv-x="596" 
d="M484 -20v-151h-407l112 168q-73 31 -117 93q-53 73 -53 162q0 116 81 197q82 82 196 82q67 0 123 -28q57 -28 96 -76l10 -12l-139 -108l-9 13q-26 39 -81 39q-43 0 -72 -29q-31 -31 -31 -78q0 -46 31 -77q30 -30 72 -30q41 0 70.5 25t35.5 65l1 12h175l-1 -16
q-6 -94 -72 -166q-63 -66 -153 -85h132zM235 12l-102 -153h321v91h-161l42 58l6 1q82 14 141 77q53 56 64 131h-117q-11 -42 -43 -70q-38 -32 -90 -32q-55 0 -94 39t-39 98q0 58 39 99q38 38 94 38q32 0 59 -12q23 -12 37 -28l90 71q-33 34 -76 56q-50 25 -110 25
q-104 0 -174 -72q-73 -73 -73 -177q0 -79 48 -144q46 -65 119 -89z" />
    <glyph glyph-name="egrave" unicode="&#xe8;" horiz-adv-x="582" 
d="M308 -26q-119 0 -204 81.5t-85 196.5q0 116 81 197q82 82 196 82q94 0 171 -57q69 -52 96 -131l3 -11l-261 -187h4q72 0 105 58l137 -106l-8 -11q-35 -52 -100 -82q-61 -30 -135 -30zM296 501q-103 0 -174 -73q-73 -73 -73 -176t76 -175.5t183 -72.5q61 0 115.5 23.5
t86.5 63.5l-90 69q-39 -45 -112 -45q-48 0 -69 20l291 209q-23 62 -81 106q-68 51 -153 51zM221 559l-90 138l119 85l141 -223h-170zM390 349l-212 -151q-15 27 -15 58q0 55 39 94t94 39q54 0 94 -40zM336 589l-95 150l-69 -49l66 -101h98zM296 359q-42 0 -72 -30
q-31 -31 -31 -77q0 -5 1 -7l145 104q-19 10 -43 10z" />
    <glyph glyph-name="eacute" unicode="&#xe9;" horiz-adv-x="582" 
d="M308 -26q-119 0 -204 81.5t-85 196.5q0 116 81 197q82 82 196 82q94 0 171 -57q69 -52 96 -131l3 -11l-261 -187h4q72 0 105 58l137 -106l-8 -11q-35 -52 -100 -82q-61 -30 -135 -30zM296 501q-103 0 -174 -73q-73 -73 -73 -176t76 -175.5t183 -72.5q61 0 115.5 23.5
t86.5 63.5l-90 69q-39 -45 -112 -45q-48 0 -69 20l291 209q-23 62 -81 106q-68 51 -153 51zM420 697l-90 -138h-170l141 223zM390 349l-212 -151q-15 27 -15 58q0 55 39 94t94 39q54 0 94 -40zM310 739l-95 -150h98l66 101zM296 359q-42 0 -72 -30q-31 -31 -31 -77
q0 -5 1 -7l145 104q-19 10 -43 10z" />
    <glyph glyph-name="ecircumflex" unicode="&#xea;" horiz-adv-x="582" 
d="M308 -26q-119 0 -204 81.5t-85 196.5q0 116 81 197q82 82 196 82q94 0 171 -57q69 -52 96 -131l3 -11l-261 -187h4q72 0 105 58l137 -106l-8 -11q-35 -52 -100 -82q-61 -30 -135 -30zM296 501q-103 0 -174 -73q-73 -73 -73 -176t76 -175.5t183 -72.5q61 0 115.5 23.5
t86.5 63.5l-90 69q-39 -45 -112 -45q-48 0 -69 20l291 209q-23 62 -81 106q-68 51 -153 51zM281 804l197 -245h-172l-24 33l-24 -33h-173zM390 349l-212 -151q-15 27 -15 58q0 55 39 94t94 39q54 0 94 -40zM281 643l40 -54h94l-134 167l-133 -167h95zM296 359q-42 0 -72 -30
q-31 -31 -31 -77q0 -5 1 -7l145 104q-19 10 -43 10z" />
    <glyph glyph-name="edieresis" unicode="&#xeb;" horiz-adv-x="582" 
d="M308 -26q-119 0 -204 81.5t-85 196.5q0 116 81 197q82 82 196 82q94 0 171 -57q69 -52 96 -131l3 -11l-261 -187h4q72 0 105 58l137 -106l-8 -11q-35 -52 -100 -82q-61 -30 -135 -30zM296 501q-103 0 -174 -73q-73 -73 -73 -176t76 -175.5t183 -72.5q61 0 115.5 23.5
t86.5 63.5l-90 69q-39 -45 -112 -45q-48 0 -69 20l291 209q-23 62 -81 106q-68 51 -153 51zM390 349l-212 -151q-15 27 -15 58q0 55 39 94t94 39q54 0 94 -40zM412 556q-32 0 -54 22.5t-22 56.5q0 35 23 56q21 21 53 21q35 0 56 -21q23 -21 23 -56q0 -34 -23 -57
q-22 -22 -56 -22zM152 556q-32 0 -54 22q-23 23 -23 57q0 33 22.5 55t54.5 22q34 0 56 -21.5t22 -55.5t-22 -56q-21 -23 -56 -23zM152 682q-20 0 -33.5 -13t-13.5 -34t13.5 -35t33.5 -14q21 0 34.5 14t13.5 35q0 22 -13 34.5t-35 12.5zM412 682q-18 0 -32 -12
q-14 -14 -14 -35q0 -22 14 -36q15 -13 32 -13q22 0 35.5 14t13.5 35t-13.5 34t-35.5 13zM296 359q-42 0 -72 -30q-31 -31 -31 -77q0 -5 1 -7l145 104q-19 10 -43 10z" />
    <glyph glyph-name="igrave" unicode="&#xec;" horiz-adv-x="252" 
d="M212 520v-535h-172v535h172zM70 490v-475h112v475h-112zM54 559l-90 138l119 85l141 -223h-170zM169 589l-95 150l-69 -49l66 -101h98z" />
    <glyph glyph-name="iacute" unicode="&#xed;" horiz-adv-x="252" 
d="M212 520v-535h-172v535h172zM70 490v-475h112v475h-112zM288 697l-90 -138h-170l141 223zM178 739l-95 -150h98l66 101z" />
    <glyph glyph-name="icircumflex" unicode="&#xee;" horiz-adv-x="252" 
d="M212 520v-535h-172v535h172zM70 490v-475h112v475h-112zM128 804l197 -245h-172l-24 33l-24 -33h-173zM128 643l40 -54h94l-134 167l-133 -167h95z" />
    <glyph glyph-name="idieresis" unicode="&#xef;" horiz-adv-x="252" 
d="M212 520v-535h-172v535h172zM70 490v-475h112v475h-112zM256 556q-32 0 -54 22.5t-22 56.5q0 35 23 56q21 21 53 21q35 0 56 -21q23 -21 23 -56q0 -34 -23 -57q-22 -22 -56 -22zM-4 556q-32 0 -54 22q-23 23 -23 57q0 33 22.5 55t54.5 22q34 0 56 -21.5t22 -55.5t-22 -56
q-21 -23 -56 -23zM-4 682q-20 0 -33.5 -13t-13.5 -34t13.5 -35t33.5 -14q21 0 34.5 14t13.5 35q0 22 -13 34.5t-35 12.5zM256 682q-18 0 -32 -12q-14 -14 -14 -35q0 -22 14 -36q15 -13 32 -13q22 0 35.5 14t13.5 35t-13.5 34t-35.5 13z" />
    <glyph glyph-name="eth" unicode="&#xf0;" horiz-adv-x="613" 
d="M296 -26q-114 0 -196 82q-38 38 -59 88q-22 53 -22 108q0 116 81 197q82 82 196 82q72 0 138 -36q-8 35 -35 59l-9 -31l-112 28l12 44q-7 1 -21 1h-15v147h15q32 0 60 -5l16 56l112 -31l-19 -66q56 -34 90 -90q28 -48 40 -121q9 -62 9 -144v-90q0 -58 -22 -108
q-21 -50 -61 -88q-39 -39 -89 -60q-51 -22 -109 -22zM296 501q-103 0 -174 -73q-73 -73 -73 -176q0 -102 73 -175q71 -73 174 -73q49 0 97 20q45 18 80 53q74 72 74 175v90q0 174 -44 249q-34 55 -90 86l-10 6l17 59l-54 16l-16 -54l-13 2q-17 3 -53 7v-87l28 -3l16 -3
l-13 -47l54 -14l13 43l17 -10q67 -44 67 -122v-33l-23 17q-64 47 -147 47zM296 115q-55 0 -93 38q-40 40 -40 99t39 98t94 39q58 0 97 -39q39 -38 39 -98q0 -62 -39 -99q-40 -38 -97 -38zM296 359q-42 0 -72 -30q-31 -31 -31 -77q0 -47 31 -78q29 -29 72 -29q47 0 76 29
q30 30 30 78q0 47 -30 77t-76 30z" />
    <glyph glyph-name="ntilde" unicode="&#xf1;" horiz-adv-x="612" 
d="M579 252v-267h-171v267q0 49 -24.5 78t-65.5 29q-45 0 -74 -26q-32 -29 -32 -81v-267h-172v535h172v-18q15 10 40 18q38 11 78 11q109 0 180 -82q69 -80 69 -197zM438 252v-237h111v237q0 106 -62 177q-28 34 -69 53q-39 19 -88 19q-50 0 -85.5 -14.5t-62.5 -56.5v60
h-112v-475h112v237q0 66 42 103q37 34 94 34q53 0 85 -35q35 -37 35 -102zM378 559q-24 0 -66 20.5t-66 20.5q-33 0 -71 -32l-9 -8l-122 91l10 12q70 84 171 84q35 0 81 -20q38 -16 55 -16q23 0 49 31l9 11l124 -89l-10 -13q-32 -41 -65 -63q-43 -29 -90 -29zM246 630
q27 0 67 -20q40 -21 65 -21q38 0 74 24q27 18 48 44l-77 56q-30 -32 -62 -32q-24 0 -66 18q-44 18 -70 18q-81 0 -138 -61l78 -58q21 16 34 23q22 9 47 9z" />
    <glyph glyph-name="ograve" unicode="&#xf2;" horiz-adv-x="596" 
d="M210 559l-90 138l119 85l141 -223h-170zM325 589l-95 150l-69 -49l66 -101h98zM296 -26q-114 0 -196 82q-38 38 -59 88q-22 53 -22 108q0 116 81 197q82 82 196 82q58 0 109 -22q50 -21 89 -60q83 -81 83 -197q0 -58 -22 -108q-21 -50 -61 -88q-39 -39 -89 -60
q-51 -22 -109 -22zM296 501q-103 0 -174 -73q-73 -73 -73 -176q0 -102 73 -175q71 -73 174 -73q49 0 97 20q45 18 80 53q74 72 74 175q0 104 -74 176q-73 73 -177 73zM296 115q-55 0 -93 38q-40 40 -40 99t39 98t94 39q58 0 97 -39q39 -38 39 -98q0 -62 -39 -99
q-40 -38 -97 -38zM296 359q-42 0 -72 -30q-31 -31 -31 -77q0 -47 31 -78q29 -29 72 -29q47 0 76 29q30 30 30 78q0 47 -30 77t-76 30z" />
    <glyph glyph-name="oacute" unicode="&#xf3;" horiz-adv-x="596" 
d="M462 697l-90 -138h-170l141 223zM352 739l-95 -150h98l66 101zM296 -26q-114 0 -196 82q-38 38 -59 88q-22 53 -22 108q0 116 81 197q82 82 196 82q58 0 109 -22q50 -21 89 -60q83 -81 83 -197q0 -58 -22 -108q-21 -50 -61 -88q-39 -39 -89 -60q-51 -22 -109 -22z
M296 501q-103 0 -174 -73q-73 -73 -73 -176q0 -102 73 -175q71 -73 174 -73q49 0 97 20q45 18 80 53q74 72 74 175q0 104 -74 176q-73 73 -177 73zM296 115q-55 0 -93 38q-40 40 -40 99t39 98t94 39q58 0 97 -39q39 -38 39 -98q0 -62 -39 -99q-40 -38 -97 -38zM296 359
q-42 0 -72 -30q-31 -31 -31 -77q0 -47 31 -78q29 -29 72 -29q47 0 76 29q30 30 30 78q0 47 -30 77t-76 30z" />
    <glyph glyph-name="ocircumflex" unicode="&#xf4;" horiz-adv-x="596" 
d="M296 -26q-114 0 -196 82q-38 38 -59 88q-22 53 -22 108q0 116 81 197q82 82 196 82q58 0 109 -22q50 -21 89 -60q83 -81 83 -197q0 -58 -22 -108q-21 -50 -61 -88q-39 -39 -89 -60q-51 -22 -109 -22zM296 501q-103 0 -174 -73q-73 -73 -73 -176q0 -102 73 -175
q71 -73 174 -73q49 0 97 20q45 18 80 53q74 72 74 175q0 104 -74 176q-73 73 -177 73zM296 115q-55 0 -93 38q-40 40 -40 99t39 98t94 39q58 0 97 -39q39 -38 39 -98q0 -62 -39 -99q-40 -38 -97 -38zM293 804l197 -245h-172l-24 33l-24 -33h-173zM296 359q-42 0 -72 -30
q-31 -31 -31 -77q0 -47 31 -78q29 -29 72 -29q47 0 76 29q30 30 30 78q0 47 -30 77t-76 30zM293 643l40 -54h94l-134 167l-133 -167h95z" />
    <glyph glyph-name="otilde" unicode="&#xf5;" horiz-adv-x="596" 
d="M296 -26q-114 0 -196 82q-38 38 -59 88q-22 53 -22 108q0 116 81 197q82 82 196 82q58 0 109 -22q50 -21 89 -60q83 -81 83 -197q0 -58 -22 -108q-21 -50 -61 -88q-39 -39 -89 -60q-51 -22 -109 -22zM296 501q-103 0 -174 -73q-73 -73 -73 -176q0 -102 73 -175
q71 -73 174 -73q49 0 97 20q45 18 80 53q74 72 74 175q0 104 -74 176q-73 73 -177 73zM296 115q-55 0 -93 38q-40 40 -40 99t39 98t94 39q58 0 97 -39q39 -38 39 -98q0 -62 -39 -99q-40 -38 -97 -38zM296 359q-42 0 -72 -30q-31 -31 -31 -77q0 -47 31 -78q29 -29 72 -29
q47 0 76 29q30 30 30 78q0 47 -30 77t-76 30zM388 559q-24 0 -66 20.5t-66 20.5q-33 0 -71 -32l-9 -8l-122 91l10 12q70 84 171 84q35 0 81 -20q38 -16 55 -16q23 0 49 31l9 11l124 -89l-10 -13q-32 -41 -65 -63q-43 -29 -90 -29zM256 630q27 0 67 -20q40 -21 65 -21
q38 0 74 24q27 18 48 44l-77 56q-30 -32 -62 -32q-24 0 -66 18q-44 18 -70 18q-81 0 -138 -61l78 -58q21 16 34 23q22 9 47 9z" />
    <glyph glyph-name="odieresis" unicode="&#xf6;" horiz-adv-x="596" 
d="M296 -26q-114 0 -196 82q-38 38 -59 88q-22 53 -22 108q0 116 81 197q82 82 196 82q58 0 109 -22q50 -21 89 -60q83 -81 83 -197q0 -58 -22 -108q-21 -50 -61 -88q-39 -39 -89 -60q-51 -22 -109 -22zM296 501q-103 0 -174 -73q-73 -73 -73 -176q0 -102 73 -175
q71 -73 174 -73q49 0 97 20q45 18 80 53q74 72 74 175q0 104 -74 176q-73 73 -177 73zM296 115q-55 0 -93 38q-40 40 -40 99t39 98t94 39q58 0 97 -39q39 -38 39 -98q0 -62 -39 -99q-40 -38 -97 -38zM296 359q-42 0 -72 -30q-31 -31 -31 -77q0 -47 31 -78q29 -29 72 -29
q47 0 76 29q30 30 30 78q0 47 -30 77t-76 30zM424 556q-32 0 -54 22.5t-22 56.5q0 35 23 56q21 21 53 21q35 0 56 -21q23 -21 23 -56q0 -34 -23 -57q-22 -22 -56 -22zM424 682q-18 0 -32 -12q-14 -14 -14 -35q0 -22 14 -36q15 -13 32 -13q22 0 35.5 14t13.5 35t-13.5 34
t-35.5 13zM164 556q-32 0 -54 22q-23 23 -23 57q0 33 22.5 55t54.5 22q34 0 56 -21.5t22 -55.5t-22 -56q-21 -23 -56 -23zM164 682q-20 0 -33.5 -13t-13.5 -34t13.5 -35t33.5 -14q21 0 34.5 14t13.5 35q0 22 -13 34.5t-35 12.5z" />
    <glyph glyph-name="divide" unicode="&#xf7;" horiz-adv-x="588" 
d="M551 424v-142h-514v142h514zM67 394v-82h454v82h-454zM301 76q-37 0 -62.5 25.5t-25.5 62.5q0 39 25 64.5t63 25.5q40 0 65.5 -25t25.5 -65q0 -38 -24 -62q-28 -26 -67 -26zM301 453q-36 0 -62 26q-26 24 -26 60q0 40 25 65q26 26 63 26q40 0 65.5 -25.5t25.5 -65.5
q0 -36 -24 -60q-28 -26 -67 -26zM301 224q-25 0 -41.5 -17t-16.5 -43q0 -24 17 -41t41 -17q28 0 45 17q16 16 16 41q0 27 -17 43.5t-44 16.5zM301 600q-25 0 -41 -16q-17 -19 -17 -45q0 -22 17 -39t41 -17q28 0 45 17q16 15 16 39q0 26 -16 44q-16 17 -45 17z" />
    <glyph glyph-name="oslash" unicode="&#xf8;" horiz-adv-x="596" 
d="M296 -26q-32 0 -70 9l-4 -9h-168l47 80q-36 36 -57 83q-25 56 -25 115q0 116 81 197q82 82 196 82q38 0 75 -10l6 10h160l-45 -80q38 -37 60 -84q25 -53 25 -115q0 -58 -22 -108q-21 -50 -61 -88q-39 -39 -89 -60q-51 -22 -109 -22zM203 4l8 15l12 -4q41 -11 73 -11
q49 0 97 20q45 18 80 53q74 72 74 175q0 110 -84 185l-8 8l31 56h-92l-10 -16l-11 4q-41 12 -77 12q-103 0 -174 -73q-73 -73 -73 -176q0 -53 22 -103q21 -46 59 -81l10 -8l-33 -56h96zM296 115h-30l131 231l14 -20q21 -30 21 -74q0 -62 -39 -99q-40 -38 -97 -38zM330 389
l-136 -232l-13 23q-18 34 -18 72q0 59 39 98t94 39h34zM397 286l-79 -139q34 6 54 28q30 32 30 77q0 20 -5 34zM197 221l79 136q-32 -6 -52 -28q-31 -31 -31 -77q0 -11 4 -31z" />
    <glyph glyph-name="ugrave" unicode="&#xf9;" horiz-adv-x="612" 
d="M275 -26q-104 0 -175 80q-67 78 -67 188v278h172v-266q0 -47 25.5 -78t63.5 -31q47 0 75 24q32 27 32 85v266h171v-535h-171v20q-21 -11 -44 -18q-42 -13 -82 -13zM175 490h-112v-248q0 -100 60 -168q61 -70 152 -70q103 0 156 71v-60h111v475h-111v-236q0 -72 -43 -108
q-36 -31 -94 -31q-50 0 -85 40q-34 40 -34 99v236zM233 559l-90 138l119 85l141 -223h-170zM348 589l-95 150l-69 -49l66 -101h98z" />
    <glyph glyph-name="uacute" unicode="&#xfa;" horiz-adv-x="612" 
d="M275 -26q-104 0 -175 80q-67 78 -67 188v278h172v-266q0 -47 25.5 -78t63.5 -31q47 0 75 24q32 27 32 85v266h171v-535h-171v20q-21 -11 -44 -18q-42 -13 -82 -13zM175 490h-112v-248q0 -100 60 -168q61 -70 152 -70q103 0 156 71v-60h111v475h-111v-236q0 -72 -43 -108
q-36 -31 -94 -31q-50 0 -85 40q-34 40 -34 99v236zM467 697l-90 -138h-170l141 223zM357 739l-95 -150h98l66 101z" />
    <glyph glyph-name="ucircumflex" unicode="&#xfb;" horiz-adv-x="612" 
d="M275 -26q-104 0 -175 80q-67 78 -67 188v278h172v-266q0 -47 25.5 -78t63.5 -31q47 0 75 24q32 27 32 85v266h171v-535h-171v20q-21 -11 -44 -18q-42 -13 -82 -13zM175 490h-112v-248q0 -100 60 -168q61 -70 152 -70q103 0 156 71v-60h111v475h-111v-236q0 -72 -43 -108
q-36 -31 -94 -31q-50 0 -85 40q-34 40 -34 99v236zM304 804l197 -245h-172l-24 33l-24 -33h-173zM304 643l40 -54h94l-134 167l-133 -167h95z" />
    <glyph glyph-name="udieresis" unicode="&#xfc;" horiz-adv-x="612" 
d="M275 -26q-104 0 -175 80q-67 78 -67 188v278h172v-266q0 -47 25.5 -78t63.5 -31q47 0 75 24q32 27 32 85v266h171v-535h-171v20q-21 -11 -44 -18q-42 -13 -82 -13zM175 490h-112v-248q0 -100 60 -168q61 -70 152 -70q103 0 156 71v-60h111v475h-111v-236q0 -72 -43 -108
q-36 -31 -94 -31q-50 0 -85 40q-34 40 -34 99v236zM431 556q-32 0 -54 22.5t-22 56.5q0 35 23 56q21 21 53 21q35 0 56 -21q23 -21 23 -56q0 -34 -23 -57q-22 -22 -56 -22zM171 556q-32 0 -54 22q-23 23 -23 57q0 33 22.5 55t54.5 22q34 0 56 -21.5t22 -55.5t-22 -56
q-21 -23 -56 -23zM171 682q-20 0 -33.5 -13t-13.5 -34t13.5 -35t33.5 -14q21 0 34.5 14t13.5 35q0 22 -13 34.5t-35 12.5zM431 682q-19 0 -32 -12q-14 -14 -14 -35q0 -22 14 -36q15 -13 32 -13q22 0 35.5 14t13.5 35t-13.5 34t-35.5 13z" />
    <glyph glyph-name="yacute" unicode="&#xfd;" horiz-adv-x="584" 
d="M609 520l-361 -776h-180l142 304l-235 472h190l136 -292l134 292h174zM243 49l-128 -275h114l333 716h-108l-152 -333l-156 333h-122zM454 697l-90 -138h-170l141 223zM344 739l-95 -150h98l66 101z" />
    <glyph glyph-name="thorn" unicode="&#xfe;" 
d="M212 4v-260h-172v1016h172v-259q47 30 108 30q114 0 189 -81q74 -80 74 -196q0 -115 -76 -197q-78 -83 -187 -83q-36 0 -71 12q-22 8 -37 18zM70 730v-956h112v302q53 -72 138 -72q97 0 165 73q68 74 68 177q0 104 -66 175q-66 72 -167 72q-83 0 -138 -67v296h-112z
M306 115q-56 0 -93 40q-37 39 -37 98t37 98q36 38 93 38q56 0 94 -38q39 -39 39 -98q0 -58 -39 -99q-39 -39 -94 -39zM306 359q-43 0 -72 -29q-28 -30 -28 -77t29 -78q28 -30 71 -30q44 0 73.5 31t29.5 77q0 45 -30 77q-29 29 -73 29z" />
    <glyph glyph-name="ydieresis" unicode="&#xff;" horiz-adv-x="584" 
d="M609 520l-361 -776h-180l142 304l-235 472h190l136 -292l134 292h174zM243 49l-128 -275h114l333 716h-108l-152 -333l-156 333h-122zM426 555q-32 0 -54 22.5t-22 56.5q0 35 23 56q21 21 53 21q35 0 56 -21q23 -21 23 -56q0 -34 -23 -57q-22 -22 -56 -22zM166 555
q-32 0 -54 22q-23 23 -23 57q0 33 22.5 55t54.5 22q34 0 56 -21.5t22 -55.5t-22 -56q-21 -23 -56 -23zM166 681q-20 0 -33.5 -13t-13.5 -34t13.5 -35t33.5 -14q21 0 34.5 14t13.5 35q0 22 -13 34.5t-35 12.5zM426 681q-18 0 -32 -12q-14 -14 -14 -35q0 -22 14 -36
q15 -13 32 -13q22 0 35.5 14t13.5 35t-13.5 34t-35.5 13z" />
    <glyph glyph-name="Amacron" unicode="&#x100;" horiz-adv-x="785" 
d="M393 791l419 -806h-203l-49 99h-343l-48 -99h-194zM578 114l49 -99h135l-369 711l-368 -711h126l48 99h379zM611 969v-164h-443v164h443zM198 939v-104h383v104h-383zM387 507l138 -282h-274zM387 438l-88 -183h178z" />
    <glyph glyph-name="amacron" unicode="&#x101;" 
d="M282 -26q-110 0 -187 82q-76 82 -76 196q0 115 77 197q38 39 84 60q50 22 102 22q56 0 108 -31v20h172v-535h-172v18q-47 -29 -108 -29zM282 501q-96 0 -164 -73q-69 -74 -69 -176q0 -103 68 -175.5t165 -72.5q94 0 138 77v-66h112v475h-112v-59q-45 70 -138 70zM525 722
v-164h-443v164h443zM296 115q-55 0 -93 38q-40 40 -40 99t39 98t94 39q56 0 93 -39t37 -98t-37 -98t-93 -39zM112 692v-104h383v104h-383zM296 359q-43 0 -73 -30q-30 -32 -30 -77q0 -46 30 -78q29 -29 73 -29t71 29q29 31 29 78q0 48 -29 77q-28 30 -71 30z" />
    <glyph glyph-name="Abreve" unicode="&#x102;" horiz-adv-x="785" 
d="M395 786l417 -801h-203l-49 99h-343l-48 -99h-194l415 801q-77 0 -132 57q-56 58 -56 134v15h133v-15q0 -25 18 -44t42 -19q23 0 40.5 19t17.5 44v15h132v-15q0 -78 -56 -134q-54 -55 -134 -57zM578 114l49 -99h135l-369 711l-368 -711h126l48 99h379zM387 507l138 -282
h-274zM306 962h-73q5 -57 46 -98q46 -48 113 -48q68 0 116 48q41 41 46 98h-72q-4 -26 -24 -49q-27 -29 -63 -29q-38 0 -64 29q-21 22 -25 49zM387 438l-88 -183h178z" />
    <glyph glyph-name="abreve" unicode="&#x103;" 
d="M282 -26q-110 0 -187 82q-76 82 -76 196q0 115 77 197q38 39 84 60q50 22 102 22q56 0 108 -31v20h172v-535h-172v18q-47 -29 -108 -29zM282 501q-96 0 -164 -73q-69 -74 -69 -176q0 -103 68 -175.5t165 -72.5q94 0 138 77v-66h112v475h-112v-59q-45 70 -138 70zM296 115
q-54 0 -94 38q-39 37 -39 99q0 59 39 98t94 39q56 0 93 -39t37 -98t-37 -98t-93 -39zM314 554q-79 0 -134 57q-56 56 -56 134v15h133v-15q0 -25 18 -44t42 -19q23 0 40.5 19t17.5 44v15h132v-15q0 -78 -56 -134q-55 -57 -137 -57zM296 359q-43 0 -73 -30q-30 -32 -30 -77
q0 -46 30 -78q29 -29 73 -29t71 29q29 31 29 78q0 48 -29 77q-28 30 -71 30zM228 730h-73q5 -57 46 -98q46 -48 113 -48q68 0 116 48q41 41 46 98h-72q-4 -26 -24 -49q-27 -29 -63 -29q-38 0 -64 29q-21 22 -25 49z" />
    <glyph glyph-name="Aogonek" unicode="&#x104;" horiz-adv-x="783" 
d="M790 -188q-80 0 -134 54q-52 54 -54 130l-43 88h-343l-48 -99h-194l418 805l419 -805h-73q10 -43 52 -43q27 0 42 26l8 14l109 -78l-9 -12q-25 -36 -65 -58q-38 -22 -85 -22zM150 15l48 99h379l55 -114q0 -67 45 -112q46 -46 113 -46q69 0 116 56l-58 41q-24 -27 -58 -27
q-37 0 -60 25t-23 63v15h54l-369 710l-368 -710h126zM386 506l138 -281h-274zM386 438l-88 -183h178z" />
    <glyph glyph-name="aogonek" unicode="&#x105;" 
d="M578 -188q-79 0 -133 54q-55 55 -55 133v4q-14 -9 -32 -16q-39 -13 -76 -13q-54 0 -102 22q-47 21 -83 60q-78 83 -78 196q0 114 78 197q35 38 84 60q48 22 102 22q55 0 107 -31v20h172v-535h-35q4 -20 18 -31.5t33 -11.5q28 0 43 26l8 14l108 -77l-8 -13
q-56 -80 -151 -80zM420 81v-81q0 -66 46 -112q44 -46 112 -46q71 0 117 56l-58 41q-23 -27 -59 -27q-35 0 -60 25q-23 26 -23 63v15h37v475h-112v-59q-26 35 -65.5 52.5t-71.5 17.5q-96 0 -164 -73q-70 -73 -70 -176q0 -101 69 -175q70 -73 164 -73t138 77zM296 115
q-55 0 -93 38q-40 40 -40 99t39 98t94 39q57 0 94 -39q36 -39 36 -98t-36.5 -98t-93.5 -39zM296 359q-42 0 -72 -30q-31 -31 -31 -77q0 -47 31 -78q29 -29 72 -29q45 0 72 29q28 31 28 78t-28 77t-72 30z" />
    <glyph glyph-name="Cacute" unicode="&#x106;" horiz-adv-x="857" 
d="M428 -28q-165 0 -282 117q-56 58 -85 127q-31 72 -31 156t31 156q31 74 84 127q56 56 127 86q75 32 155 32q107 0 199 -52q89 -50 143 -136l7 -12l-145 -103l-8 13q-38 55 -90 84q-49 28 -105 28q-88 0 -148 -65q-61 -66 -61 -158q0 -91 61 -157q61 -64 148 -64
q78 0 138 51q60 52 74 130l2 12h186l-1 -17q-17 -149 -131 -252q-115 -103 -268 -103zM427 743q-153 0 -260 -109t-107 -262t107 -262q106 -108 261 -108q142 0 247 96q98 88 120 216h-128q-18 -81 -82 -135q-69 -58 -157 -58q-101 0 -170 74t-69 177q0 104 69 179
q69 74 170 74q62 0 119 -31q54 -31 92 -82l97 69q-48 71 -125 114q-87 48 -184 48zM600 931l-90 -138h-170l141 223zM490 973l-95 -150h98l66 101z" />
    <glyph glyph-name="cacute" unicode="&#x107;" horiz-adv-x="595" 
d="M296 -26q-114 0 -196 82q-38 38 -59 88q-22 53 -22 108q0 116 81 197q82 82 196 82q65 0 123 -29q57 -28 96 -76l10 -11l-137 -107l-9 12q-31 39 -83 39q-42 0 -72 -30q-31 -31 -31 -77q0 -47 31 -78q29 -29 72 -29q41 0 70.5 24.5t35.5 64.5l1 13h175l-1 -16
q-8 -107 -89 -182t-192 -75zM296 501q-103 0 -174 -73q-73 -73 -73 -176q0 -102 73 -175q71 -73 174 -73q99 0 172 67q66 61 78 146h-117q-11 -42 -43 -70q-38 -32 -90 -32q-55 0 -93 38q-40 40 -40 99t39 98t94 39q59 0 96 -40l90 70q-36 37 -76 56q-52 26 -110 26z
M445 697l-90 -138h-170l141 223zM335 739l-95 -150h98l66 101z" />
    <glyph glyph-name="Cdotaccent" unicode="&#x10a;" horiz-adv-x="857" 
d="M428 -28q-165 0 -282 117q-56 58 -85 127q-31 72 -31 156t31 156q30 72 85 127q56 56 126 86q75 32 155 32q107 0 199 -52q89 -50 143 -136l7 -12l-145 -103l-8 13q-38 55 -90 84q-49 28 -105 28q-88 0 -148 -65q-61 -66 -61 -158q0 -91 61 -157q61 -64 148 -64
q78 0 138 51q60 52 74 130l2 12h186l-1 -17q-17 -149 -131 -252q-115 -103 -268 -103zM427 743q-153 0 -260 -109t-107 -262t107 -262q106 -108 261 -108q144 0 248 95q97 86 119 217h-128q-18 -81 -82 -135q-69 -58 -157 -58q-101 0 -170 74t-69 177q0 104 69 179
q69 74 170 74q62 0 119 -31q54 -31 92 -82l97 69q-48 71 -125 114q-87 48 -184 48zM424 787q-42 0 -73 31.5t-31 73.5q0 43 30.5 74t73.5 31t73 -30q30 -32 30 -75q0 -41 -30 -73t-73 -32zM424 967q-31 0 -52.5 -22t-21.5 -53q0 -30 22 -52.5t52 -22.5q29 0 51 22.5t22 52.5
q0 32 -22 54q-20 21 -51 21z" />
    <glyph glyph-name="cdotaccent" unicode="&#x10b;" horiz-adv-x="595" 
d="M296 -26q-114 0 -196 82q-38 38 -59 88q-22 53 -22 108q0 116 81 197q82 82 196 82q65 0 123 -29q57 -28 96 -76l10 -11l-137 -107l-9 12q-31 39 -83 39q-42 0 -72 -30q-31 -31 -31 -77q0 -47 31 -78q29 -29 72 -29q41 0 70.5 24.5t35.5 64.5l1 13h175l-1 -16
q-8 -107 -89 -182t-192 -75zM296 501q-103 0 -174 -73q-73 -73 -73 -176q0 -102 73 -175q71 -73 174 -73q99 0 172 67q66 61 78 146h-117q-11 -42 -43 -70q-38 -32 -90 -32q-55 0 -93 38q-40 40 -40 99t39 98t94 39q59 0 96 -40l90 70q-36 37 -76 56q-52 26 -110 26z
M295 554q-42 0 -73 31.5t-31 73.5q0 43 30.5 74t73.5 31t73 -30q30 -32 30 -75q0 -41 -30 -73t-73 -32zM295 734q-31 0 -52.5 -22t-21.5 -53q0 -30 22 -52.5t52 -22.5q29 0 51 22.5t22 52.5q0 32 -22 54q-19 21 -51 21z" />
    <glyph glyph-name="Ccaron" unicode="&#x10c;" horiz-adv-x="857" 
d="M428 -28q-165 0 -282 117q-56 58 -85 127q-31 72 -31 156t31 156q30 72 85 127q56 56 126 86q69 29 143 32l-185 232h173l23 -32l24 32h172l-186 -232q101 -3 190 -52q89 -50 143 -136l7 -12l-145 -103l-8 13q-38 55 -90 84q-49 28 -105 28q-88 0 -148 -65
q-61 -66 -61 -158q0 -91 61 -157q61 -64 148 -64q78 0 138 51q60 52 74 130l2 12h186l-1 -17q-17 -149 -131 -252q-115 -103 -268 -103zM427 743q-153 0 -260 -109t-107 -262t107 -262q106 -108 261 -108q144 0 248 95q97 86 119 217h-128q-18 -81 -82 -135
q-69 -58 -157 -58q-101 0 -170 74t-69 177q0 104 69 179q69 74 170 74q62 0 119 -31q54 -31 92 -82l97 69q-48 71 -125 114q-87 48 -184 48zM387 975h-95l134 -167l134 167h-95l-39 -53z" />
    <glyph glyph-name="ccaron" unicode="&#x10d;" horiz-adv-x="595" 
d="M296 -26q-114 0 -196 82q-38 38 -59 88q-22 53 -22 108q0 116 81 197q79 79 190 82l-193 241h173l23 -32l24 32h172l-193 -241q65 0 123 -29q57 -28 96 -76l10 -11l-137 -107l-9 12q-31 39 -83 39q-42 0 -72 -30q-31 -31 -31 -77q0 -47 31 -78q29 -29 72 -29
q41 0 70.5 24.5t35.5 64.5l1 13h175l-1 -16q-8 -107 -89 -182t-192 -75zM296 501q-103 0 -174 -73q-73 -73 -73 -176q0 -102 73 -175q71 -73 174 -73q99 0 172 67q66 61 78 146h-117q-11 -42 -43 -70q-38 -32 -90 -32q-54 0 -94 38q-39 37 -39 99q0 59 39 98t94 39
q59 0 96 -40l90 70q-36 37 -76 56q-52 26 -110 26zM254 742h-95l134 -167l134 167h-95l-39 -53z" />
    <glyph glyph-name="Dcaron" unicode="&#x10e;" horiz-adv-x="813" 
d="M61 760h278l-196 245h173l23 -32l24 32h172l-196 -245h39q170 0 286 -111q119 -111 119 -276t-119 -278q-116 -110 -285 -110h-318v775zM91 730v-715h288q157 0 265 102q109 103 109 256q0 152 -109 255q-108 102 -266 102h-287zM379 125h-163v495h162q105 0 175 -70
q71 -69 71 -177q0 -106 -71 -177q-69 -71 -174 -71zM246 590v-435h133q91 0 153 62t62 156t-62 156q-63 61 -154 61h-132zM300 975h-95l134 -167l134 167h-95l-39 -53z" />
    <glyph glyph-name="dcaron" unicode="&#x10f;" 
d="M282 -26q-109 0 -187 83q-76 81 -76 195q0 117 77 197q38 39 84 60q21 10 36 13l-190 238h173l23 -32l24 32h316v-775h-172v19q-9 -6 -32 -16q-37 -14 -76 -14zM282 501q-97 0 -164 -72q-69 -74 -69 -177q0 -102 68 -175t165 -73q95 0 138 77v-66h112v715h-112v-298
q-25 37 -64 53t-74 16zM296 115q-55 0 -94 39t-39 98q0 58 39 99q38 38 94 38q57 0 93 -39q37 -39 37 -98t-37 -98t-93 -39zM296 359q-44 0 -73 -30q-30 -30 -30 -77q0 -45 30 -77q30 -30 73 -30t71 30q29 29 29 77q0 47 -29 78q-27 29 -71 29zM183 730h-95l134 -167
l134 167h-95l-39 -53zM282 531q58 0 108 -30v224l-160 -200q25 6 52 6z" />
    <glyph glyph-name="Dcroat" unicode="&#x110;" horiz-adv-x="813" 
d="M379 -15h-318v292h-35v171h35v312h317q169 0 286 -111q119 -111 119 -276t-119 -278q-116 -110 -285 -110zM91 307v-292h288q157 0 264 102q110 104 110 256q0 150 -110 254q-109 103 -265 103h-287v-312h-35v-111h35zM379 125h-163v182h155v111h-155v202h162
q103 0 175 -70q71 -69 71 -177q0 -106 -71 -177t-174 -71zM246 277v-122h133q91 0 153 62t62 156t-62 156q-63 61 -154 61h-132v-142h155v-171h-155z" />
    <glyph glyph-name="dcroat" unicode="&#x111;" 
d="M282 -26q-109 0 -187 83q-76 81 -76 195q0 117 77 197q38 39 84 60q47 22 102 22q58 0 108 -30v36h-114v162h114v61h172v-61h56v-162h-56v-552h-172v19q-9 -6 -32 -16q-37 -14 -76 -14zM282 501q-97 0 -164 -72q-69 -74 -69 -177q0 -102 68 -175t165 -73q94 0 138 77v-66
h112v552h56v102h-56v61h-112v-61h-114v-102h114v-135q-26 34 -66.5 51.5t-71.5 17.5zM296 115q-55 0 -94 39t-39 98q0 58 39 99q38 38 94 38q57 0 93 -39q37 -39 37 -98t-37 -98t-93 -39zM296 359q-44 0 -73 -30q-30 -30 -30 -77q0 -45 30 -77q30 -30 73 -30t71 30
q29 29 29 77q0 47 -29 78q-27 29 -71 29z" />
    <glyph glyph-name="Emacron" unicode="&#x112;" horiz-adv-x="583" 
d="M553 155v-170h-492v775h426v-170h-241v-109h280v-169h-280v-157h307zM91 730v-715h432v110h-307v217h280v109h-280v169h241v110h-366zM493 969v-164h-443v164h443zM80 939v-104h383v104h-383z" />
    <glyph glyph-name="emacron" unicode="&#x113;" horiz-adv-x="582" 
d="M308 -26q-119 0 -204 81.5t-85 196.5q0 116 81 197q82 82 196 82q94 0 171 -57q69 -52 96 -131l3 -11l-261 -187h4q72 0 105 58l137 -106l-8 -11q-35 -52 -100 -82q-61 -30 -135 -30zM296 501q-103 0 -174 -73q-73 -73 -73 -176t76 -175.5t183 -72.5q61 0 115.5 23.5
t86.5 63.5l-90 69q-39 -45 -112 -45q-48 0 -69 20l291 209q-23 62 -81 106q-68 51 -153 51zM492 722v-164h-443v164h443zM79 692v-104h383v104h-383zM390 349l-212 -151q-15 27 -15 58q0 55 39 94t94 39q54 0 94 -40zM296 359q-42 0 -72 -30q-31 -31 -31 -77q0 -5 1 -7
l145 104q-19 10 -43 10z" />
    <glyph glyph-name="Edotaccent" unicode="&#x116;" horiz-adv-x="583" 
d="M553 155v-170h-492v775h426v-170h-241v-109h280v-169h-280v-157h307zM91 730v-715h432v110h-307v217h280v109h-280v169h241v110h-366zM274 788q-42 0 -73 31.5t-31 73.5q0 43 30.5 74t73.5 31t73 -30q30 -32 30 -75q0 -41 -30 -73t-73 -32zM274 968q-31 0 -52.5 -22
t-21.5 -53q0 -30 22 -52.5t52 -22.5q29 0 51 22.5t22 52.5q0 32 -22 54q-20 21 -51 21z" />
    <glyph glyph-name="edotaccent" unicode="&#x117;" horiz-adv-x="582" 
d="M308 -26q-119 0 -204 81.5t-85 196.5q0 116 81 197q82 82 196 82q94 0 171 -57q69 -52 96 -131l3 -11l-261 -187h4q72 0 105 58l137 -106l-8 -11q-35 -52 -100 -82q-61 -30 -135 -30zM296 501q-103 0 -174 -73q-73 -73 -73 -176t76 -175.5t183 -72.5q61 0 115.5 23.5
t86.5 63.5l-90 69q-39 -45 -112 -45q-48 0 -69 20l291 209q-23 62 -81 106q-68 51 -153 51zM274 554q-42 0 -73 31.5t-31 73.5q0 43 30.5 74t73.5 31t73 -30q30 -32 30 -75q0 -41 -30 -73t-73 -32zM390 349l-212 -151q-15 27 -15 58q0 55 39 94t94 39q54 0 94 -40zM274 734
q-31 0 -52.5 -22t-21.5 -53q0 -30 22 -52.5t52 -22.5q29 0 51 22.5t22 52.5q0 32 -22 54q-20 21 -51 21zM296 359q-42 0 -72 -30q-31 -31 -31 -77q0 -5 1 -7l145 104q-19 10 -43 10z" />
    <glyph glyph-name="Eogonek" unicode="&#x118;" horiz-adv-x="583" 
d="M415 -188q-79 0 -134 55q-48 46 -54 118h-166v775h426v-170h-241v-109h280v-169h-280v-157h307v-170h-190q10 -43 52 -43q26 0 42 26l8 14l109 -77l-9 -12q-25 -36 -65 -59q-41 -22 -85 -22zM91 730v-715h166v-15q0 -67 45 -112q46 -46 113 -46q68 0 116 56l-58 42
q-23 -28 -58 -28q-37 0 -60 26q-23 23 -23 62v15h191v110h-307v217h280v109h-280v169h241v110h-366z" />
    <glyph glyph-name="eogonek" unicode="&#x119;" horiz-adv-x="582" 
d="M406 -188q-79 0 -133 54q-51 51 -54 122q-87 27 -140 95q-60 74 -60 169q0 116 81 197q82 82 196 82q94 0 171 -57q69 -52 96 -131l3 -11l-261 -187h4q71 0 105 58l137 -106l-8 -11q-30 -46 -86 -75q-48 -25 -101 -32q13 -37 50 -37q28 0 43 26l8 14l108 -77l-8 -13
q-56 -80 -151 -80zM296 501q-103 0 -174 -73q-73 -73 -73 -176q0 -83 53 -150q52 -66 146 -92v-10q0 -66 46 -112q44 -46 112 -46q71 0 117 56l-58 41q-23 -27 -59 -27q-33 0 -56 21.5t-27 56.5l-1 14q122 7 188 87l-90 69q-39 -45 -112 -45q-46 0 -69 20l291 209
q-23 62 -81 106q-68 51 -153 51zM390 349l-212 -151q-15 27 -15 58q0 55 39 94t94 39q54 0 94 -40zM296 359q-42 0 -72 -30q-31 -31 -31 -77q0 -5 1 -7l145 104q-19 10 -43 10z" />
    <glyph glyph-name="Ecaron" unicode="&#x11a;" horiz-adv-x="582" 
d="M553 155v-170h-492v775h426v-170h-241v-109h280v-169h-280v-157h307zM91 730v-715h432v110h-307v217h280v109h-280v169h241v110h-366zM477 1005l-196 -245l-196 245h173l23 -32l24 32h172zM242 975h-95l134 -167l134 167h-95l-39 -53z" />
    <glyph glyph-name="ecaron" unicode="&#x11b;" horiz-adv-x="582" 
d="M308 -26q-119 0 -204 81.5t-85 196.5q0 116 81 197q79 79 188 82l-193 241h173l23 -32l24 32h172l-193 -241h4q92 0 169 -57q69 -52 96 -131l3 -11l-261 -187h4q72 0 105 58l137 -106l-8 -11q-35 -52 -100 -82q-61 -30 -135 -30zM296 501q-103 0 -174 -73
q-73 -73 -73 -176t76 -175.5t183 -72.5q61 0 115.5 23.5t86.5 63.5l-90 69q-39 -45 -112 -45q-48 0 -69 20l291 209q-23 62 -81 106q-68 51 -153 51zM390 349l-212 -151q-15 27 -15 58q0 55 39 94t94 39q54 0 94 -40zM252 742h-95l134 -167l134 167h-95l-39 -53zM296 359
q-42 0 -72 -30q-31 -31 -31 -77q0 -5 1 -7l145 104q-19 10 -43 10z" />
    <glyph glyph-name="Gdotaccent" unicode="&#x120;" horiz-adv-x="857" 
d="M428 -28q-165 0 -282 117q-56 58 -85 127q-31 72 -31 156t31 156q30 72 85 127q56 56 126 86q75 32 155 32q107 0 199 -52q89 -50 143 -136l7 -12l-149 -108l-8 15q-30 53 -79 83q-50 32 -112 32q-88 0 -148 -65q-61 -66 -61 -158q0 -91 61 -157q61 -64 148 -64
q66 0 116 32q43 25 67 71h-194v168h412v-38q0 -82 -31 -161q-30 -73 -86 -131q-56 -56 -127 -88q-76 -32 -157 -32zM427 743q-153 0 -260 -109t-107 -262t107 -262q106 -108 261 -108q154 0 262 111q109 112 109 271v8h-352v-108h209l-8 -20q-26 -69 -88 -107
q-57 -36 -132 -36q-101 0 -170 74t-69 177q0 104 69 179q69 74 170 74q69 0 128 -36q47 -29 81 -80l99 72q-48 71 -125 114q-87 48 -184 48zM428 787q-42 0 -73 31.5t-31 73.5q0 43 30.5 74t73.5 31t73 -30q30 -32 30 -75q0 -41 -30 -73t-73 -32zM428 967q-31 0 -52.5 -22
t-21.5 -53q0 -30 22 -52.5t52 -22.5q29 0 51 22.5t22 52.5q0 32 -22 54q-19 21 -51 21z" />
    <glyph glyph-name="gdotaccent" unicode="&#x121;" 
d="M289 -267q-69 0 -131 34q-61 34 -96 88l-9 12l140 101l9 -14q29 -50 87 -50q43 0 72 27t29 65v8q-9 -6 -32 -16q-37 -14 -76 -14q-109 0 -187 83q-76 81 -76 195q0 117 77 197q38 39 84 60q47 22 102 22q58 0 108 -30v19h172v-515q0 -112 -80 -192t-193 -80zM185 -75
l-90 -65q32 -41 78 -67q53 -30 116 -30q100 0 171.5 71t71.5 171v485h-112v-58q-25 37 -64.5 53t-73.5 16q-97 0 -164 -72q-69 -74 -69 -177q0 -102 68 -175t165 -73q95 0 138 77v-85q0 -51 -38 -86.5t-93 -35.5q-64 0 -104 51zM296 115q-55 0 -94 39t-39 98q0 58 39 99
q38 38 94 38q57 0 93 -39q37 -39 37 -98t-37 -98t-93 -39zM296 359q-44 0 -73 -30q-30 -30 -30 -77q0 -45 30 -77q30 -30 73 -30t71 30q29 29 29 77q0 47 -29 78q-27 29 -71 29zM288 555q-42 0 -73 31.5t-31 73.5q0 43 30.5 74t73.5 31t73 -30q30 -32 30 -75q0 -41 -30 -73
t-73 -32zM288 735q-31 0 -52.5 -22t-21.5 -53q0 -30 22 -52.5t52 -22.5q29 0 51 22.5t22 52.5q0 32 -22 54q-20 21 -51 21z" />
    <glyph glyph-name="uni0122" unicode="&#x122;" horiz-adv-x="857" 
d="M428 -28q-165 0 -282 117q-56 58 -85 127q-31 72 -31 156t31 156q30 72 85 127q56 56 126 86q75 32 155 32q107 0 199 -52q89 -50 143 -136l7 -12l-149 -108l-8 15q-30 53 -79 83q-50 32 -112 32q-88 0 -148 -65q-61 -66 -61 -158q0 -91 61 -157q61 -64 148 -64
q66 0 116 32q43 25 67 71h-194v168h412v-38q0 -82 -31 -161q-30 -73 -86 -131q-56 -56 -127 -88q-76 -32 -157 -32zM427 743q-153 0 -260 -109t-107 -262t107 -262q106 -108 261 -108q154 0 262 111q109 112 109 271v8h-352v-108h209l-8 -20q-26 -69 -88 -107
q-57 -36 -132 -36q-101 0 -170 74t-69 177q0 104 69 179q69 74 170 74q69 0 128 -36q47 -29 81 -80l99 72q-48 71 -125 114q-87 48 -184 48zM532 -57l-129 -211h-109l62 211h176zM378 -87l-44 -151h53l91 151h-100z" />
    <glyph glyph-name="uni0123" unicode="&#x123;" 
d="M289 -267q-69 0 -131 34q-61 34 -96 88l-9 12l140 101l9 -14q29 -50 87 -50q43 0 72 27t29 65v8q-9 -6 -32 -16q-37 -14 -76 -14q-109 0 -187 83q-76 81 -76 195q0 117 77 197q38 39 84 60q47 22 102 22q58 0 108 -30v19h172v-515q0 -112 -80 -192t-193 -80zM185 -75
l-90 -65q32 -41 78 -67q53 -30 116 -30q100 0 171.5 71t71.5 171v485h-112v-58q-25 37 -64.5 53t-73.5 16q-97 0 -164 -72q-69 -74 -69 -177q0 -102 68 -175t165 -73q95 0 138 77v-85q0 -51 -38 -86.5t-93 -35.5q-64 0 -104 51zM296 115q-55 0 -94 39t-39 98q0 58 39 99
q38 38 94 38q57 0 93 -39q37 -39 37 -98t-37 -98t-93 -39zM296 359q-44 0 -73 -30q-30 -30 -30 -77q0 -45 30 -77q30 -30 73 -30t71 30q29 29 29 77q0 47 -29 78q-27 29 -71 29zM415 773l-62 -211h-176l128 211h110zM322 743l-91 -151h100l44 151h-53z" />
    <glyph glyph-name="Itilde" unicode="&#x128;" horiz-adv-x="307" 
d="M246 760v-775h-185v775h185zM91 730v-715h125v715h-125zM246 793q-30 0 -78 23q-38 18 -54 18q-33 0 -71 -32l-9 -8l-122 91l10 12q70 84 171 84q35 0 81 -20q38 -16 55 -16q23 0 49 31l9 11l124 -89l-10 -13q-32 -41 -65 -63q-43 -29 -90 -29zM114 864q27 0 67 -20
q40 -21 65 -21q38 0 74 24q27 18 48 44l-77 56q-30 -32 -62 -32q-24 0 -66 18q-44 18 -70 18q-81 0 -138 -61l78 -58q21 16 34 23q22 9 47 9z" />
    <glyph glyph-name="itilde" unicode="&#x129;" horiz-adv-x="252" 
d="M212 520v-535h-172v535h172zM238 559q-28 0 -76 23q-40 18 -56 18q-33 0 -71 -32l-9 -8l-122 91l10 12q70 84 171 84q35 0 81 -20q38 -16 55 -16q23 0 49 31l9 11l124 -89l-10 -13q-32 -41 -65 -63q-43 -29 -90 -29zM70 490v-475h112v475h-112zM106 630q27 0 67 -20
q40 -21 65 -21q38 0 74 24q27 18 48 44l-77 56q-30 -32 -62 -32q-24 0 -66 18q-44 18 -70 18q-81 0 -138 -61l78 -58q21 16 34 23q22 9 47 9z" />
    <glyph glyph-name="Imacron" unicode="&#x12a;" horiz-adv-x="307" 
d="M246 760v-775h-185v775h185zM91 730v-715h125v715h-125zM378 969v-164h-443v164h443zM-35 939v-104h383v104h-383z" />
    <glyph glyph-name="imacron" unicode="&#x12b;" horiz-adv-x="252" 
d="M212 520v-535h-172v535h172zM350 723v-164h-443v164h443zM70 490v-475h112v475h-112zM-63 693v-104h383v104h-383z" />
    <glyph glyph-name="Iogonek" unicode="&#x12e;" horiz-adv-x="307" 
d="M249 -188q-79 0 -134 55q-54 54 -54 133v760h185v-775h-48q6 -19 14 -27q14 -16 37 -16q27 0 42 26l8 14l109 -77l-9 -12q-25 -37 -64 -59q-42 -22 -86 -22zM216 730h-125v-730q0 -67 45 -112q46 -46 113 -46q69 0 117 56l-58 41q-24 -27 -59 -27q-36 0 -59 25t-23 63v15
h49v715z" />
    <glyph glyph-name="iogonek" unicode="&#x12f;" horiz-adv-x="252" 
d="M228 -188q-79 0 -134 55q-54 54 -54 133v520h172v-535h-36q10 -43 52 -43q27 0 42 26l8 14l109 -77l-9 -12q-26 -38 -66 -59.5t-84 -21.5zM182 490h-112v-490q0 -67 45 -112q46 -46 113 -46q69 0 117 56l-58 41q-24 -27 -59 -27q-36 0 -60 26q-23 25 -23 62v15h37v475z
M125 579q-40 0 -68.5 28.5t-28.5 67.5q0 36 29 65q30 28 68 28q43 0 71 -27q29 -29 29 -66q0 -40 -29 -67q-29 -29 -71 -29zM125 738q-26 0 -47 -19q-20 -20 -20 -44q0 -26 20 -46q22 -20 47 -20q30 0 50 20t20 46t-20.5 44.5t-49.5 18.5z" />
    <glyph glyph-name="dotlessi" unicode="&#x131;" horiz-adv-x="252" 
d="M212 520v-535h-172v535h172zM70 490v-475h112v475h-112z" />
    <glyph glyph-name="uni0136" unicode="&#x136;" horiz-adv-x="801" 
d="M446 379l393 -394h-252l-273 274l-68 -68v-206h-185v775h185v-331l331 331h250zM314 301l286 -286h166l-363 364l351 351h-164l-374 -373v373h-125v-715h125v188zM462 -57l-129 -211h-109l62 211h176zM308 -87l-44 -151h53l91 151h-100z" />
    <glyph glyph-name="uni0137" unicode="&#x137;" horiz-adv-x="598" 
d="M356 268l279 -283h-223l-175 172l-25 -24v-148h-172v775h172v-422l194 182h221zM238 199l187 -184h139l-251 254l237 221h-132l-236 -221v461h-112v-715h112v131zM362 -57l-129 -211h-109l62 211h176zM208 -87l-44 -151h53l91 151h-100z" />
    <glyph glyph-name="Lacute" unicode="&#x139;" horiz-adv-x="551" 
d="M546 155v-170h-485v775h185v-605h300zM91 730v-715h425v110h-300v605h-125zM329 931l-90 -138h-170l141 223zM219 973l-95 -150h98l66 101z" />
    <glyph glyph-name="lacute" unicode="&#x13a;" horiz-adv-x="307" 
d="M246 760v-775h-185v775h185zM91 730v-715h125v715h-125zM329 931l-90 -138h-170l141 223zM219 973l-95 -150h98l66 101z" />
    <glyph glyph-name="uni013B" unicode="&#x13b;" horiz-adv-x="551" 
d="M546 155v-170h-485v775h185v-605h300zM91 730v-715h425v110h-300v605h-125zM336 -57l-129 -211h-109l62 211h176zM182 -87l-44 -151h53l91 151h-100z" />
    <glyph glyph-name="uni013C" unicode="&#x13c;" horiz-adv-x="307" 
d="M246 760v-775h-185v775h185zM91 730v-715h125v715h-125zM234 -57l-129 -211h-109l62 211h176zM80 -87l-44 -151h53l91 151h-100z" />
    <glyph glyph-name="Lcaron" unicode="&#x13d;" horiz-adv-x="551" 
d="M61 760h95l-196 245h173l23 -32l24 32h172l-196 -245h90v-605h300v-170h-485v775zM91 730v-715h425v110h-300v605h-125zM117 975h-95l134 -167l134 167h-95l-39 -53z" />
    <glyph glyph-name="lcaron" unicode="&#x13e;" horiz-adv-x="307" 
d="M61 760h95l-196 245h173l23 -32l24 32h172l-196 -245h90v-775h-185v775zM91 730v-715h125v715h-125zM117 975h-95l134 -167l134 167h-95l-39 -53z" />
    <glyph glyph-name="Lslash" unicode="&#x141;" horiz-adv-x="568" 
d="M556 155v-170h-485v218l-76 -43v173l76 43v384h184v-279l109 62v-173l-109 -62v-153h301zM101 255v-240h425v110h-301v201l109 62v103l-109 -62v301h-124v-372l-76 -43v-103z" />
    <glyph glyph-name="lslash" unicode="&#x142;" horiz-adv-x="334" 
d="M249 305v-320h-184v215l-70 -40v173l70 40v387h184v-282l115 65v-173zM95 252v-237h124v308l115 65v103l-115 -65v304h-124v-375l-70 -40v-103z" />
    <glyph glyph-name="Nacute" unicode="&#x143;" horiz-adv-x="837" 
d="M776 760v-805l-530 441v-411h-185v807l530 -445v413h185zM91 727v-712h125v445l530 -441v711h-125v-448zM584 931l-90 -138h-170l141 223zM474 973l-95 -150h98l66 101z" />
    <glyph glyph-name="nacute" unicode="&#x144;" horiz-adv-x="612" 
d="M579 252v-267h-171v267q0 49 -24.5 78t-65.5 29q-45 0 -74 -26q-32 -29 -32 -81v-267h-172v535h172v-18q15 10 40 18q38 11 78 11q109 0 180 -82q69 -80 69 -197zM438 252v-237h111v237q0 106 -62 177q-28 34 -69 53q-39 19 -88 19q-50 0 -85.5 -14.5t-62.5 -56.5v60
h-112v-475h112v237q0 66 42 103q37 34 94 34q53 0 85 -35q35 -37 35 -102zM442 697l-90 -138h-170l141 223zM332 739l-95 -150h98l66 101z" />
    <glyph glyph-name="uni0145" unicode="&#x145;" horiz-adv-x="837" 
d="M776 760v-805l-530 441v-411h-185v807l530 -445v413h185zM91 727v-712h125v445l530 -441v711h-125v-448zM474 -57l-129 -211h-109l62 211h176zM320 -87l-44 -151h53l91 151h-100z" />
    <glyph glyph-name="uni0146" unicode="&#x146;" horiz-adv-x="612" 
d="M579 252v-267h-171v267q0 49 -24.5 78t-65.5 29q-45 0 -74 -26q-32 -29 -32 -81v-267h-172v535h172v-18q15 10 40 18q38 11 78 11q109 0 180 -82q69 -80 69 -197zM438 252v-237h111v237q0 106 -62 177q-28 34 -69 53q-39 19 -88 19q-50 0 -85.5 -14.5t-62.5 -56.5v60
h-112v-475h112v237q0 66 42 103q37 34 94 34q53 0 85 -35q35 -37 35 -102zM394 -57l-129 -211h-109l62 211h176zM240 -87l-44 -151h53l91 151h-100z" />
    <glyph glyph-name="Ncaron" unicode="&#x147;" horiz-adv-x="837" 
d="M776 760v-805l-530 441v-411h-185v807l530 -445v413h185zM91 727v-712h125v445l530 -441v711h-125v-448zM604 1005l-196 -245l-196 245h173l23 -32l24 32h172zM369 975h-95l134 -167l134 167h-95l-39 -53z" />
    <glyph glyph-name="ncaron" unicode="&#x148;" horiz-adv-x="612" 
d="M579 252v-267h-171v267q0 49 -24.5 78t-65.5 29q-45 0 -74 -26q-32 -29 -32 -81v-267h-172v535h172v-18q15 10 40 18q21 5 40 8l-195 244h173l23 -32l24 32h172l-195 -243q24 2 36 2q109 0 180 -82q69 -80 69 -197zM438 252v-237h111v237q0 106 -62 177q-28 34 -69 53
q-39 19 -88 19q-50 0 -85.5 -14.5t-62.5 -56.5v60h-112v-475h112v237q0 66 42 103q37 34 94 34q53 0 85 -35q35 -37 35 -102zM254 742h-95l134 -167l134 167h-95l-39 -53z" />
    <glyph glyph-name="Omacron" unicode="&#x14c;" horiz-adv-x="861" 
d="M648 969v-164h-443v164h443zM235 939v-104h383v104h-383zM431 -28q-81 0 -156 32q-71 30 -128 85q-56 56 -86 128q-31 76 -31 156q0 79 31 156q30 71 86 127q55 55 127 85q75 32 156 32t156 -32q74 -31 128 -85t85 -127q32 -76 32 -156q0 -81 -32 -156q-31 -74 -85 -128
q-57 -55 -127 -85q-76 -32 -156 -32zM430 743q-154 0 -262 -108t-108 -262t108 -262q109 -109 263 -109q153 0 262 109q50 51 79 118q29 69 29 144q0 152 -108 262q-108 108 -263 108zM431 121q-102 0 -172 73t-70 179q0 104 69 178q71 74 172 74t172 -74q70 -75 70 -178
q0 -106 -70 -179t-171 -73zM430 595q-88 0 -150 -65q-61 -64 -61 -157q0 -94 61 -158q62 -64 151 -64q88 0 149 64q62 64 62 158q0 92 -62 157t-150 65z" />
    <glyph glyph-name="omacron" unicode="&#x14d;" horiz-adv-x="596" 
d="M296 -26q-114 0 -196 82q-38 38 -59 88q-22 53 -22 108q0 116 81 197q82 82 196 82q58 0 109 -22q50 -21 89 -60q83 -81 83 -197q0 -58 -22 -108q-21 -50 -61 -88q-39 -39 -89 -60q-51 -22 -109 -22zM296 501q-103 0 -174 -73q-73 -73 -73 -176q0 -102 73 -175
q71 -73 174 -73q49 0 97 20q45 18 80 53q74 72 74 175q0 104 -74 176q-73 73 -177 73zM516 723v-164h-443v164h443zM296 115q-55 0 -93 38q-40 40 -40 99t39 98t94 39q58 0 97 -39q39 -38 39 -98q0 -62 -39 -99q-40 -38 -97 -38zM103 693v-104h383v104h-383zM296 359
q-42 0 -72 -30q-31 -31 -31 -77q0 -47 31 -78q29 -29 72 -29q46 0 76 30t30 77t-30 77t-76 30z" />
    <glyph glyph-name="Ohungarumlaut" unicode="&#x150;" horiz-adv-x="861" 
d="M431 -28q-81 0 -156 32q-71 30 -128 85q-56 56 -86 128q-31 76 -31 156q0 79 31 156q30 71 86 127q55 55 127 85q75 32 156 32t156 -32q74 -31 128 -85t85 -127q32 -76 32 -156q0 -81 -32 -156q-31 -74 -85 -128q-57 -55 -127 -85q-76 -32 -156 -32zM430 743
q-154 0 -262 -108t-108 -262t108 -262q109 -109 263 -109q153 0 262 109q50 51 79 118q29 69 29 144q0 152 -108 262q-108 108 -263 108zM431 121q-102 0 -172 73t-70 179q0 104 69 178q71 74 172 74t172 -74q70 -75 70 -178q0 -106 -70 -179t-171 -73zM430 595
q-88 0 -150 -65q-61 -64 -61 -157q0 -94 61 -158q62 -64 151 -64q88 0 149 64q62 64 62 158q0 92 -62 157t-150 65zM729 989l-168 -194h-119l86 194h201zM516 989l-141 -194h-117l58 194h200zM339 959l-40 -134h61l97 134h-118zM547 959l-59 -134h60l116 134h-117z" />
    <glyph glyph-name="ohungarumlaut" unicode="&#x151;" horiz-adv-x="596" 
d="M593 755l-168 -194h-119l86 194h201zM411 725l-59 -134h60l116 134h-117zM380 755l-141 -194h-117l58 194h200zM203 725l-40 -134h61l97 134h-118zM296 -26q-114 0 -196 82q-38 38 -59 88q-22 53 -22 108q0 116 81 197q82 82 196 82q58 0 109 -22q50 -21 89 -60
q83 -81 83 -197q0 -58 -22 -108q-21 -50 -61 -88q-39 -39 -89 -60q-51 -22 -109 -22zM296 501q-103 0 -174 -73q-73 -73 -73 -176q0 -102 73 -175q71 -73 174 -73q49 0 97 20q45 18 80 53q74 72 74 175q0 104 -74 176q-73 73 -177 73zM296 115q-55 0 -93 38q-40 40 -40 99
t39 98t94 39q58 0 97 -39q39 -38 39 -98q0 -62 -39 -99q-40 -38 -97 -38zM296 359q-42 0 -72 -30q-31 -31 -31 -77q0 -47 31 -78q29 -29 72 -29q47 0 76 29q30 30 30 78q0 47 -30 77t-76 30z" />
    <glyph glyph-name="OE" unicode="&#x152;" horiz-adv-x="1163" 
d="M431 -28q-81 0 -156 32q-72 30 -127 85q-56 56 -86 128q-32 75 -32 156q0 80 32 156q30 70 85 127q54 54 128 85q75 32 155 32q115 0 212 -65v52h425v-170h-241v-109h281v-169h-281v-157h308v-170h-492v52q-95 -65 -211 -65zM430 743q-153 0 -261 -108
q-109 -109 -109 -262t109 -262t262 -109q128 0 241 96v-83h432v110h-308v217h281v109h-281v169h241v110h-365v-82q-113 95 -242 95zM431 121q-102 0 -172 73t-70 179q0 105 70 178q69 74 171 74q98 0 168 -70q71 -71 74 -171v-11q0 -107 -69 -179q-71 -73 -172 -73zM430 595
q-88 0 -150 -65q-61 -64 -61 -157q0 -94 62 -158q61 -64 150 -64q88 0 150 64q61 63 61 158v10q-3 88 -65 150t-147 62z" />
    <glyph glyph-name="oe" unicode="&#x153;" horiz-adv-x="966" 
d="M692 -26q-118 0 -202 79q-35 -34 -81 -55q-54 -24 -113 -24q-116 0 -196 82q-38 38 -59 88q-22 50 -22 108q0 116 81 197q80 82 196 82q109 0 192 -77q35 33 79 53q54 24 113 24q95 0 170 -57q69 -52 96 -131l3 -11l-261 -187h4q72 0 105 58l137 -106l-8 -11
q-33 -50 -99 -82q-63 -30 -135 -30zM479 84l11 12l11 -12q77 -80 191 -80q60 0 115 23.5t86 63.5l-90 69q-37 -45 -112 -45q-48 0 -69 20l291 209q-23 62 -81 106q-68 51 -152 51q-53 0 -101 -21q-46 -21 -80 -57l-11 -12l-11 12q-76 78 -181 78q-102 0 -175 -73
q-72 -74 -72 -176q0 -101 72 -175q73 -73 175 -73q53 0 101 21q45 20 82 59zM296 115q-55 0 -93 38q-40 40 -40 99t39 98t94 39q58 0 97 -39t39 -98q0 -60 -39 -99q-40 -38 -97 -38zM296 359q-43 0 -73 -30q-30 -32 -30 -77q0 -46 30 -78q29 -29 73 -29q46 0 76 30t30 77
q0 46 -30 76.5t-76 30.5zM773 349l-212 -151q-15 27 -15 58q0 55 39 94t94 39q54 0 94 -40zM679 359q-42 0 -72 -30q-31 -31 -31 -77q0 -5 1 -7l145 104q-19 10 -43 10z" />
    <glyph glyph-name="Racute" unicode="&#x154;" horiz-adv-x="685" 
d="M501 167l171 -182h-247l-122 129h-57v-129h-185v775h274q136 0 231 -90q93 -90 93 -218q0 -105 -47 -180q-40 -66 -111 -105zM316 144l122 -129h165l-152 162l19 9q75 34 117 102q42 69 42 164q0 115 -84 196q-85 82 -210 82h-244v-715h125v129h100zM295 254h-79v366h109
q83 0 131 -53q44 -50 44 -127q0 -90 -53 -138q-54 -48 -152 -48zM246 590v-306h49q88 0 132 40q43 39 43 116q0 66 -36 107q-38 43 -109 43h-79zM467 931l-90 -138h-170l141 223zM357 973l-95 -150h98l66 101z" />
    <glyph glyph-name="racute" unicode="&#x155;" horiz-adv-x="362" 
d="M212 252v-267h-172v535h172v-17q42 28 97 28q23 0 37 -2l13 -2v-181l-20 7q-18 6 -40 6q-37 0 -61 -25q-26 -29 -26 -82zM70 490v-475h112v237q0 63 34 102q32 35 83 35q21 0 30 -2v114h-20q-62 0 -101 -41l-26 -27v57h-112zM350 697l-90 -138h-170l141 223zM240 739
l-95 -150h98l66 101z" />
    <glyph glyph-name="uni0156" unicode="&#x156;" horiz-adv-x="685" 
d="M501 167l171 -182h-247l-122 129h-57v-129h-185v775h274q136 0 231 -90q93 -90 93 -218q0 -105 -47 -180q-40 -66 -111 -105zM316 144l122 -129h165l-152 162l19 9q75 34 117 102q42 69 42 164q0 115 -84 196q-85 82 -210 82h-244v-715h125v129h100zM295 254h-79v366h109
q83 0 131 -53q44 -50 44 -127q0 -90 -53 -138q-54 -48 -152 -48zM246 590v-306h49q88 0 132 40q43 39 43 116q0 66 -36 107q-38 43 -109 43h-79zM412 -57l-129 -211h-109l62 211h176zM258 -87l-44 -151h53l91 151h-100z" />
    <glyph glyph-name="uni0157" unicode="&#x157;" horiz-adv-x="362" 
d="M212 252v-267h-172v535h172v-17q42 28 97 28q23 0 37 -2l13 -2v-181l-20 7q-18 6 -40 6q-37 0 -61 -25q-26 -29 -26 -82zM70 490v-475h112v237q0 63 34 102q32 35 83 35q21 0 30 -2v114h-20q-62 0 -101 -41l-26 -27v57h-112zM217 -57l-129 -211h-109l62 211h176zM63 -87
l-44 -151h53l91 151h-100z" />
    <glyph glyph-name="Rcaron" unicode="&#x158;" horiz-adv-x="685" 
d="M61 760h248l-196 245h173l23 -32l24 32h172l-196 -245h26q136 0 231 -90q93 -90 93 -218q0 -105 -47 -180q-40 -66 -111 -105l171 -182h-247l-122 129h-57v-129h-185v775zM316 144l122 -129h165l-152 162l19 9q75 34 117 102q42 69 42 164q0 115 -84 196q-85 82 -210 82
h-244v-715h125v129h100zM295 254h-79v366h109q83 0 131 -53q44 -50 44 -127q0 -90 -53 -138q-54 -48 -152 -48zM246 590v-306h49q88 0 132 40q43 39 43 116q0 66 -36 107q-38 43 -109 43h-79zM270 975h-95l134 -167l134 167h-95l-39 -53z" />
    <glyph glyph-name="rcaron" unicode="&#x159;" horiz-adv-x="362" 
d="M212 252v-267h-172v535h172v-17q42 28 97 28q23 0 37 -2l13 -2v-181l-20 7q-18 6 -40 6q-37 0 -61 -25q-26 -29 -26 -82zM70 490v-475h112v237q0 63 34 102q32 35 83 35q21 0 30 -2v114h-20q-62 0 -101 -41l-26 -27v57h-112zM394 771l-196 -245l-196 245h173l23 -32
l24 32h172zM159 741h-95l134 -167l134 167h-95l-39 -53z" />
    <glyph glyph-name="Sacute" unicode="&#x15a;" horiz-adv-x="566" 
d="M276 -28q-69 0 -132 26q-67 29 -120 88l-11 12l153 113l9 -12q37 -48 101 -48q32 0 54 21.5t22 52.5q0 79 -99 90q-102 12 -164 73q-62 62 -62 155q0 96 76 166q34 31 75 47q42 17 83 17q61 0 113 -24q57 -26 99 -77l11 -13l-146 -106l-9 10q-32 32 -68 32
q-25 0 -39.5 -13.5t-14.5 -37.5q0 -21 17 -34q23 -18 73 -21q104 -6 173 -72q73 -70 73 -181q0 -113 -82 -190q-38 -36 -85 -54q-49 -20 -100 -20zM161 170l-103 -76q44 -45 98 -68q55 -24 120 -24q94 0 165 66q72 69 72 168q0 98 -64 159q-61 58 -154 64q-58 3 -90 27
q-28 23 -28 58q0 36 23.5 58.5t60.5 22.5q42 0 80 -33l99 72q-74 79 -179 79q-76 0 -138 -56q-66 -60 -66 -144q0 -81 53.5 -134.5t146.5 -63.5q60 -8 91 -37q34 -32 34 -83q0 -43 -31 -73.5t-75 -30.5q-39 0 -66 12t-49 37zM423 931l-90 -138h-170l141 223zM313 973
l-95 -150h98l66 101z" />
    <glyph glyph-name="sacute" unicode="&#x15b;" horiz-adv-x="412" 
d="M191 -26q-57 0 -104 21q-45 19 -81 60l-11 12l144 105l9 -10q17 -17 44 -17q23 0 23 19t-32 24q-75 11 -121 57q-49 47 -49 118q0 69 61 121q55 47 120 47q104 0 164 -86l8 -12l-124 -89l-9 8q-18 17 -36 17q-15 0 -15 -11q0 -6 5 -8q9 -6 36 -9q86 -11 131.5 -57
t45.5 -122q0 -84 -61 -137q-59 -51 -148 -51zM136 133l-96 -70q59 -59 151 -59q78 0 128 44q51 44 51 114q0 68 -42 105q-38 35 -108 44q-68 8 -68 47q0 18 12.5 29.5t32.5 11.5q24 0 47 -17l80 58q-48 61 -130 61q-55 0 -101 -40q-50 -42 -50 -98q0 -57 39.5 -96.5
t105.5 -48.5q27 -4 42 -18t15 -36t-13 -35q-16 -14 -40 -14q-32 0 -56 18zM349 697l-90 -138h-170l141 223zM239 739l-95 -150h98l66 101z" />
    <glyph glyph-name="Scedilla" unicode="&#x15e;" horiz-adv-x="556" 
d="M463 -20v-151h-407l105 160q-83 25 -147 97l-11 13l153 112l9 -11q38 -49 101 -49q31 0 53.5 22t22.5 52q0 80 -99 91q-102 11 -163 72q-63 63 -63 155q0 98 76 166q33 30 75 48q39 16 83 16q59 0 113 -23q58 -27 99 -78l11 -12l-146 -106l-9 9q-30 32 -68 32
q-25 0 -39.5 -13.5t-14.5 -37.5q0 -21 17 -34q23 -17 73 -20q106 -8 173 -73q73 -70 73 -181q0 -95 -62 -168q-54 -64 -142 -88h134zM209 7l-97 -148h321v91h-161l40 58l6 1q78 17 131 78q54 65 54 149q0 98 -64 160q-61 58 -154 64q-60 3 -90 27q-28 22 -28 57q0 37 23 59
t61 22q41 0 80 -32l99 72q-73 78 -179 78q-76 0 -138 -56q-66 -60 -66 -144q0 -80 53.5 -133.5t146.5 -64.5q60 -6 91 -36q34 -32 34 -84q0 -43 -31 -73.5t-75 -30.5q-37 0 -66 13q-28 13 -49 36l-104 -76q63 -63 141 -82z" />
    <glyph glyph-name="scedilla" unicode="&#x15f;" horiz-adv-x="412" 
d="M380 -20v-151h-361l68 165q-46 21 -81 62l-11 12l144 104l9 -9q18 -18 44 -18q23 0 23 19q0 20 -32 25q-76 11 -121 56q-49 49 -49 118t61 121q53 47 120 47q104 0 164 -85l8 -12l-124 -90l-9 8q-18 17 -36 17q-15 0 -15 -11q0 -12 41 -17q86 -10 131.5 -56.5
t45.5 -122.5q0 -73 -48 -124q-41 -44 -106 -58h134zM126 11l-62 -152h286v91h-153l20 56l9 1q64 9 104 51q40 43 40 104q0 68 -42 106q-40 37 -108 44q-68 8 -68 46q0 19 12.5 30t32.5 11q24 0 47 -17l80 59q-47 60 -130 60q-55 0 -101 -40q-50 -42 -50 -98t39.5 -95.5
t105.5 -49.5q28 -5 42 -17q15 -15 15 -37t-13 -34q-15 -15 -40 -15q-32 0 -56 18l-96 -70q30 -30 72 -47z" />
    <glyph glyph-name="Scaron" unicode="&#x160;" horiz-adv-x="566" 
d="M276 -28q-69 0 -132 26q-67 29 -120 88l-11 12l153 113l9 -12q37 -48 101 -48q32 0 54 21.5t22 52.5q0 79 -99 90q-102 12 -164 73q-62 62 -62 155q0 96 76 166q34 31 75 47q31 13 68 16l-186 233h173l23 -32l24 32h172l-186 -232q57 -1 108 -24q57 -26 99 -77l11 -13
l-146 -106l-9 10q-32 32 -68 32q-25 0 -39.5 -13.5t-14.5 -37.5q0 -21 17 -34q23 -18 73 -21q104 -6 173 -72q73 -70 73 -181q0 -113 -82 -190q-38 -36 -85 -54q-49 -20 -100 -20zM161 170l-103 -76q44 -45 98 -68q55 -24 120 -24q94 0 165 66q72 69 72 168q0 98 -64 159
q-61 58 -154 64q-58 3 -90 27q-28 23 -28 58q0 36 23.5 58.5t60.5 22.5q42 0 80 -33l99 72q-74 79 -179 79q-76 0 -138 -56q-66 -60 -66 -144q0 -81 53.5 -134.5t146.5 -63.5q60 -8 91 -37q34 -32 34 -83q0 -43 -31 -73.5t-75 -30.5q-39 0 -66 12t-49 37zM217 975h-95
l134 -167l134 167h-95l-39 -53z" />
    <glyph glyph-name="scaron" unicode="&#x161;" horiz-adv-x="412" 
d="M191 -26q-57 0 -104 21q-45 19 -81 60l-11 12l144 105l9 -10q17 -17 44 -17q23 0 23 19t-32 24q-75 11 -121 57q-49 47 -49 118q0 69 61 121q50 42 105 46l-192 241h173l23 -32l24 32h172l-192 -240h7q104 0 164 -86l8 -12l-124 -89l-9 8q-18 17 -36 17q-15 0 -15 -11
q0 -6 5 -8q9 -6 36 -9q86 -11 131.5 -57t45.5 -122q0 -84 -61 -137q-59 -51 -148 -51zM136 133l-96 -70q59 -59 151 -59q78 0 128 44q51 44 51 114q0 68 -42 105q-38 35 -108 44q-68 8 -68 47q0 18 12.5 29.5t32.5 11.5q24 0 47 -17l80 58q-48 61 -130 61q-55 0 -101 -40
q-50 -42 -50 -98q0 -57 39.5 -96.5t105.5 -48.5q27 -4 42 -18t15 -36t-13 -35q-16 -14 -40 -14q-32 0 -56 18zM144 741h-95l134 -167l134 167h-95l-39 -53z" />
    <glyph glyph-name="Tcaron" unicode="&#x164;" horiz-adv-x="583" 
d="M9 760h277l-196 245h173l23 -32l24 32h172l-196 -245h288v-170h-196v-605h-185v605h-184v170zM223 620v-605h125v605h196v110h-505v-110h184zM247 975h-95l134 -167l134 167h-95l-39 -53z" />
    <glyph glyph-name="tcaron" unicode="&#x165;" horiz-adv-x="371" 
d="M363 145v-171h-15q-57 0 -108 17q-50 16 -87 47q-39 33 -58 75q-21 44 -21 96v150h-76v161h76v59l172 124v-183h120v-161h-120v-146q0 -33 28 -50q27 -18 74 -18h15zM28 490v-101h76v-180q0 -91 68 -148q63 -52 161 -57v111q-54 4 -85.5 30t-31.5 68v176h120v101h-120
v155l-112 -82v-73h-76zM365 911l-196 -245l-196 245h173l23 -32l24 32h172zM130 881h-95l134 -167l134 167h-95l-39 -53z" />
    <glyph glyph-name="Utilde" unicode="&#x168;" horiz-adv-x="779" 
d="M391 -28q-81 0 -148 28q-63 27 -106 79q-83 100 -83 266v415h185v-441q0 -82 38 -125q40 -43 114 -43q77 0 115 45q36 42 36 123v441h183v-428q0 -81 -23 -150q-22 -66 -66 -114q-91 -96 -245 -96zM209 730h-125v-385q0 -156 76 -247q39 -46 95 -70q60 -26 136 -26
q70 0 128 23q55 21 95 64q38 41 60 103q21 62 21 140v398h-123v-411q0 -91 -43 -143q-47 -55 -138 -55q-89 0 -136 53q-46 50 -46 145v411zM497 793q-29 0 -77 23q-38 18 -55 18q-33 0 -71 -32l-9 -8l-122 91l10 12q70 84 171 84q35 0 81 -20q38 -16 55 -16q23 0 49 31l9 11
l124 -89l-10 -13q-32 -41 -65 -63q-43 -29 -90 -29zM365 864q27 0 67 -20q40 -21 65 -21q38 0 74 24q27 18 48 44l-77 56q-30 -32 -62 -32q-24 0 -66 18q-44 18 -70 18q-81 0 -138 -61l78 -58q21 16 34 23q23 9 47 9z" />
    <glyph glyph-name="utilde" unicode="&#x169;" horiz-adv-x="612" 
d="M275 -26q-104 0 -175 80q-67 78 -67 188v278h172v-266q0 -47 25.5 -78t63.5 -31q47 0 75 24q32 27 32 85v266h171v-535h-171v20q-21 -11 -44 -18q-42 -13 -82 -13zM175 490h-112v-248q0 -100 60 -168q61 -70 152 -70q103 0 156 71v-60h111v475h-111v-236q0 -72 -43 -108
q-36 -31 -94 -31q-50 0 -85 40q-34 40 -34 99v236zM388 558q-29 0 -77 23q-38 18 -55 18q-33 0 -71 -32l-9 -8l-122 91l10 12q70 84 171 84q35 0 81 -20q38 -16 55 -16q23 0 49 31l9 11l124 -89l-10 -13q-32 -41 -65 -63q-43 -29 -90 -29zM256 629q27 0 67 -20
q40 -21 65 -21q38 0 74 24q27 18 48 44l-77 56q-30 -32 -62 -32q-24 0 -66 18q-44 18 -70 18q-81 0 -138 -61l78 -58q21 17 34 23q22 9 47 9z" />
    <glyph glyph-name="Umacron" unicode="&#x16a;" horiz-adv-x="779" 
d="M391 -28q-81 0 -148 28q-63 27 -106 79q-83 100 -83 266v415h185v-441q0 -82 38 -125q40 -43 114 -43q77 0 115 45q36 42 36 123v441h183v-428q0 -81 -23 -150q-22 -66 -66 -114q-91 -96 -245 -96zM209 730h-125v-385q0 -156 76 -247q39 -46 95 -70q60 -26 136 -26
q70 0 128 23q55 21 95 64q38 41 60 103q21 62 21 140v398h-123v-411q0 -91 -43 -143q-47 -55 -138 -55q-89 0 -136 53q-46 50 -46 145v411zM608 969v-164h-443v164h443zM195 939v-104h383v104h-383z" />
    <glyph glyph-name="umacron" unicode="&#x16b;" horiz-adv-x="612" 
d="M275 -26q-104 0 -175 80q-67 78 -67 188v278h172v-266q0 -47 25.5 -78t63.5 -31q47 0 75 24q32 27 32 85v266h171v-535h-171v20q-21 -11 -44 -18q-42 -13 -82 -13zM175 490h-112v-248q0 -100 60 -168q61 -70 152 -70q103 0 156 71v-60h111v475h-111v-236q0 -72 -43 -108
q-36 -31 -94 -31q-50 0 -85 40q-34 40 -34 99v236zM515 723v-164h-443v164h443zM102 693v-104h383v104h-383z" />
    <glyph glyph-name="Uring" unicode="&#x16e;" horiz-adv-x="779" 
d="M391 -28q-81 0 -148 28q-63 27 -106 79q-83 100 -83 266v415h185v-441q0 -82 38 -125q40 -43 114 -43q77 0 115 45q36 42 36 123v441h183v-428q0 -81 -23 -150q-22 -66 -66 -114q-91 -96 -245 -96zM209 730h-125v-385q0 -156 76 -247q39 -46 95 -70q60 -26 136 -26
q70 0 128 23q55 21 95 64q38 41 60 103q21 62 21 140v398h-123v-411q0 -91 -43 -143q-47 -55 -138 -55q-89 0 -136 53q-46 50 -46 145v411zM390 788q-49 0 -87 36q-37 37 -37 87q0 54 37 91t87 37q54 0 91 -37t37 -91q0 -51 -37.5 -87t-90.5 -36zM390 1009q-38 0 -66 -28
q-28 -30 -28 -70q0 -38 28 -65.5t66 -27.5q40 0 69 27.5t29 65.5q0 42 -28 70t-70 28zM390 867q-17 0 -30 13t-13 31q0 20 12.5 33.5t30.5 13.5q19 0 31 -13t12 -34q0 -19 -12 -31.5t-31 -12.5zM390 928q-13 0 -13 -17q0 -5 4 -9.5t9 -4.5q13 0 13 14q0 17 -13 17z" />
    <glyph glyph-name="uring" unicode="&#x16f;" horiz-adv-x="612" 
d="M275 -26q-104 0 -175 80q-67 78 -67 188v278h172v-266q0 -47 25.5 -78t63.5 -31q47 0 75 24q32 27 32 85v266h171v-535h-171v20q-21 -11 -44 -18q-42 -13 -82 -13zM175 490h-112v-248q0 -100 60 -168q61 -70 152 -70q103 0 156 71v-60h111v475h-111v-236q0 -72 -43 -108
q-36 -31 -94 -31q-50 0 -85 40q-34 40 -34 99v236zM294 554q-49 0 -87 36q-37 37 -37 87q0 54 37 91t87 37q54 0 91 -37t37 -91q0 -51 -37.5 -87t-90.5 -36zM294 775q-38 0 -66 -28q-28 -30 -28 -70q0 -38 28 -65.5t66 -27.5q40 0 69 27.5t29 65.5q0 42 -28 70t-70 28z
M294 633q-17 0 -30 13t-13 31q0 20 12.5 33.5t30.5 13.5q19 0 31 -13t12 -34q0 -19 -12 -31.5t-31 -12.5zM294 694q-13 0 -13 -17q0 -5 4 -9.5t9 -4.5q13 0 13 14q0 17 -13 17z" />
    <glyph glyph-name="Uhungarumlaut" unicode="&#x170;" horiz-adv-x="779" 
d="M391 -28q-81 0 -148 28q-63 27 -106 79q-83 100 -83 266v415h185v-441q0 -82 38 -125q40 -43 114 -43q77 0 115 45q36 42 36 123v441h183v-428q0 -81 -23 -150q-22 -66 -66 -114q-91 -96 -245 -96zM209 730h-125v-385q0 -156 76 -247q39 -46 95 -70q60 -26 136 -26
q70 0 128 23q55 21 95 64q38 41 60 103q21 62 21 140v398h-123v-411q0 -91 -43 -143q-47 -55 -138 -55q-89 0 -136 53q-46 50 -46 145v411zM690 989l-168 -194h-119l86 194h201zM477 989l-141 -194h-117l58 194h200zM300 959l-40 -134h61l97 134h-118zM508 959l-59 -134h60
l116 134h-117z" />
    <glyph glyph-name="uhungarumlaut" unicode="&#x171;" horiz-adv-x="612" 
d="M275 -26q-104 0 -175 80q-67 78 -67 188v278h172v-266q0 -47 25.5 -78t63.5 -31q47 0 75 24q32 27 32 85v266h171v-535h-171v20q-21 -11 -44 -18q-42 -13 -82 -13zM175 490h-112v-248q0 -100 60 -168q61 -70 152 -70q103 0 156 71v-60h111v475h-111v-236q0 -72 -43 -108
q-36 -31 -94 -31q-50 0 -85 40q-34 40 -34 99v236zM596 753l-168 -194h-119l86 194h201zM383 753l-141 -194h-117l58 194h200zM206 723l-40 -134h61l97 134h-118zM414 723l-59 -134h60l116 134h-117z" />
    <glyph glyph-name="Uogonek" unicode="&#x172;" horiz-adv-x="780" 
d="M509 -188q-77 0 -131 52q-48 47 -56 114q-64 11 -111 39q-54 31 -88 80q-69 98 -69 248v415h185v-441q0 -82 38 -125q40 -43 114 -43q77 0 115 45q36 42 36 123v441h183v-428q0 -78 -19 -138q-20 -64 -56 -109q-37 -46 -89 -73q-47 -24 -102 -33q13 -37 50 -37
q27 0 42 26l8 14l109 -77l-9 -12q-26 -38 -66 -59.5t-84 -21.5zM209 730h-125v-385q0 -141 63 -230q66 -92 191 -109l12 -1l1 -13q3 -64 48 -107q46 -43 110 -43q69 0 117 56l-59 42q-23 -28 -58 -28q-32 0 -56 22q-22 21 -27 55l-2 16l15 1q121 16 188 98q34 43 50 98
q18 59 18 130v398h-123v-411q0 -91 -43 -143q-47 -55 -138 -55q-89 0 -136 53q-46 50 -46 145v411z" />
    <glyph glyph-name="uogonek" unicode="&#x173;" horiz-adv-x="612" 
d="M589 -188q-79 0 -134 55q-54 54 -54 133v5q-52 -31 -126 -31q-104 0 -175 80q-67 78 -67 188v278h172v-266q0 -47 25.5 -78t63.5 -31q47 0 75 24q32 27 32 85v266h171v-535h-35q10 -43 52 -43q26 0 42 26l8 14l109 -77l-9 -12q-25 -36 -65 -59q-41 -22 -85 -22zM431 75
v-75q0 -67 45 -112q46 -46 113 -46q68 0 116 56l-58 42q-23 -28 -58 -28q-37 0 -60 26q-23 23 -23 62v15h36v475h-111v-236q0 -72 -43 -108q-36 -31 -94 -31q-50 0 -85 40q-34 40 -34 99v236h-112v-248q0 -100 60 -168q61 -70 152 -70q103 0 156 71z" />
    <glyph glyph-name="Wcircumflex" unicode="&#x174;" horiz-adv-x="1091" 
d="M549 262l-153 -308l-423 806h212l217 -419l53 102l-166 317h212l216 -418l204 418h194l-403 -805zM396 20l152 307l164 -307l355 710h-128l-221 -455l-235 455h-144l150 -287l-87 -167l-235 454h-144zM546 1038l197 -245h-172l-24 33l-24 -33h-173zM546 877l40 -54h94
l-134 167l-133 -167h95z" />
    <glyph glyph-name="wcircumflex" unicode="&#x175;" horiz-adv-x="751" 
d="M776 520l-275 -567l-114 238l-113 -237l-300 566h191l112 -223l29 63l-75 160h169l106 -221l97 221h173zM147 490h-123l248 -469l115 239l114 -238l227 468h-105l-115 -263l-127 263h-102l60 -130l-62 -132zM385 805l197 -245h-172l-24 33l-24 -33h-173zM385 644l40 -54
h94l-134 167l-133 -167h95z" />
    <glyph glyph-name="Ycircumflex" unicode="&#x176;" horiz-adv-x="774" 
d="M484 236v-251h-184v237l-327 538h213l208 -352l210 352h198zM330 230v-215h124v229l295 486h-128l-227 -380l-225 380h-143zM396 1038l197 -245h-172l-24 33l-24 -33h-173zM396 877l40 -54h94l-134 167l-133 -167h95z" />
    <glyph glyph-name="ycircumflex" unicode="&#x177;" horiz-adv-x="584" 
d="M609 520l-361 -776h-180l142 304l-235 472h190l136 -292l134 292h174zM243 49l-128 -275h114l333 716h-108l-152 -333l-156 333h-122zM302 804l197 -245h-172l-24 33l-24 -33h-173zM302 643l40 -54h94l-134 167l-133 -167h95z" />
    <glyph glyph-name="Ydieresis" unicode="&#x178;" horiz-adv-x="774" 
d="M484 236v-251h-184v237l-327 538h213l208 -352l210 352h198zM330 230v-215h124v229l295 486h-128l-227 -380l-225 380h-143zM523 790q-32 0 -54 22.5t-22 56.5q0 35 23 56q21 21 53 21q35 0 56 -21q23 -21 23 -56q0 -34 -23 -57q-22 -22 -56 -22zM263 790q-32 0 -54 22
q-23 23 -23 57q0 33 22.5 55t54.5 22q34 0 56 -21.5t22 -55.5t-22 -56q-21 -23 -56 -23zM263 916q-20 0 -33.5 -13t-13.5 -34t13.5 -35t33.5 -14q21 0 34.5 14t13.5 35q0 22 -13 34.5t-35 12.5zM523 916q-19 0 -32 -12q-14 -14 -14 -35q0 -22 14 -36q15 -13 32 -13
q22 0 35.5 14t13.5 35t-13.5 34t-35.5 13z" />
    <glyph glyph-name="Zacute" unicode="&#x179;" horiz-adv-x="692" 
d="M687 155v-170h-704l386 605h-336v170h654l-391 -605h391zM424 620l-386 -605h619v110h-416l391 605h-569v-110h361zM553 931l-90 -138h-170l141 223zM443 973l-95 -150h98l66 101z" />
    <glyph glyph-name="zacute" unicode="&#x17a;" horiz-adv-x="479" 
d="M471 150v-165h-484l225 374h-184v161h457l-210 -370h196zM265 389l-225 -374h401v105h-217l210 370h-376v-101h207zM444 697l-90 -138h-170l141 223zM334 739l-95 -150h98l66 101z" />
    <glyph glyph-name="Zdotaccent" unicode="&#x17b;" horiz-adv-x="692" 
d="M687 155v-170h-704l386 605h-336v170h654l-391 -605h391zM424 620l-386 -605h619v110h-416l391 605h-569v-110h361zM331 788q-42 0 -73 31.5t-31 73.5q0 43 30.5 74t73.5 31t73 -30q30 -32 30 -75q0 -41 -30 -73t-73 -32zM331 968q-31 0 -52.5 -22t-21.5 -53
q0 -30 22 -52.5t52 -22.5q29 0 51 22.5t22 52.5q0 32 -22 54q-20 21 -51 21z" />
    <glyph glyph-name="zdotaccent" unicode="&#x17c;" horiz-adv-x="479" 
d="M471 150v-165h-484l225 374h-184v161h457l-210 -370h196zM265 389l-225 -374h401v105h-217l210 370h-376v-101h207zM264 554q-42 0 -73 31.5t-31 73.5q0 43 30.5 74t73.5 31t73 -30q30 -32 30 -75q0 -41 -30 -73t-73 -32zM264 734q-31 0 -52.5 -22t-21.5 -53
q0 -30 22 -52.5t52 -22.5q29 0 51 22.5t22 52.5q0 32 -22 54q-20 21 -51 21z" />
    <glyph glyph-name="Zcaron" unicode="&#x17d;" horiz-adv-x="692" 
d="M33 760h316l-196 245h173l23 -32l24 32h172l-196 -245h338l-391 -605h391v-170h-704l386 605h-336v170zM424 620l-386 -605h619v110h-416l391 605h-569v-110h361zM310 975h-95l134 -167l134 167h-95l-39 -53z" />
    <glyph glyph-name="zcaron" unicode="&#x17e;" horiz-adv-x="479" 
d="M471 150v-165h-484l225 374h-184v161h457l-210 -370h196zM265 389l-225 -374h401v105h-217l210 370h-376v-101h207zM458 772l-196 -245l-196 245h173l23 -32l24 32h172zM223 742h-95l134 -167l134 167h-95l-39 -53z" />
    <glyph glyph-name="florin" unicode="&#x192;" horiz-adv-x="428" 
d="M25 -249h-15v179h15q33 0 57.5 22t24.5 52v345h-62v171h62q2 108 82 181q35 33 85 52q47 19 99 19h15v-179h-15q-32 0 -56.5 -22t-25.5 -51h91v-171h-91v-345q0 -109 -80 -183q-37 -33 -86 -51q-47 -19 -100 -19zM40 -99v-120q89 6 150 63q71 65 71 160v375h91v111h-91
v29q0 42 34 73q27 25 63 30v119q-87 -5 -149 -62q-72 -66 -72 -160v-29h-62v-111h62v-375q0 -43 -33 -74q-27 -24 -64 -29z" />
    <glyph glyph-name="uni0218" unicode="&#x218;" horiz-adv-x="566" 
d="M276 -28q-69 0 -132 26q-67 29 -120 88l-11 12l153 113l9 -12q37 -48 101 -48q32 0 54 21.5t22 52.5q0 79 -99 90q-102 12 -164 73q-62 62 -62 155q0 96 76 166q34 31 75 47q42 17 83 17q61 0 113 -24q57 -26 99 -77l11 -13l-146 -106l-9 10q-32 32 -68 32
q-25 0 -39.5 -13.5t-14.5 -37.5q0 -21 17 -34q23 -18 73 -21q104 -6 173 -72q73 -70 73 -181q0 -113 -82 -190q-38 -36 -85 -54q-49 -20 -100 -20zM161 170l-103 -76q44 -45 98 -68q55 -24 120 -24q94 0 165 66q72 69 72 168q0 98 -64 159q-61 58 -154 64q-58 3 -90 27
q-28 23 -28 58q0 36 23.5 58.5t60.5 22.5q42 0 80 -33l99 72q-74 79 -179 79q-76 0 -138 -56q-66 -60 -66 -144q0 -81 53.5 -134.5t146.5 -63.5q60 -8 91 -37q34 -32 34 -83q0 -43 -31 -73.5t-75 -30.5q-39 0 -66 12t-49 37zM373 -57l-129 -211h-109l62 211h176zM219 -87
l-44 -151h53l91 151h-100z" />
    <glyph glyph-name="uni0219" unicode="&#x219;" horiz-adv-x="412" 
d="M305 -57l-129 -211h-109l62 211h176zM151 -87l-44 -151h53l91 151h-100zM191 -26q-57 0 -104 21q-45 19 -81 60l-11 12l144 105l9 -10q17 -17 44 -17q23 0 23 19t-32 24q-75 11 -121 57q-49 47 -49 118q0 69 61 121q55 47 120 47q104 0 164 -86l8 -12l-124 -89l-9 8
q-18 17 -36 17q-15 0 -15 -11q0 -6 5 -8q9 -6 36 -9q86 -11 131.5 -57t45.5 -122q0 -84 -61 -137q-59 -51 -148 -51zM136 133l-96 -70q59 -59 151 -59q78 0 128 44q51 44 51 114q0 68 -42 105q-38 35 -108 44q-68 8 -68 47q0 18 12.5 29.5t32.5 11.5q24 0 47 -17l80 58
q-48 61 -130 61q-55 0 -101 -40q-50 -42 -50 -98q0 -57 39.5 -96.5t105.5 -48.5q27 -4 42 -18t15 -36t-13 -35q-16 -14 -40 -14q-32 0 -56 18z" />
    <glyph glyph-name="uni021A" unicode="&#x21a;" horiz-adv-x="583" 
d="M378 590v-605h-185v605h-184v170h565v-170h-196zM223 620v-605h125v605h196v110h-505v-110h184zM372 -57l-129 -211h-109l62 211h176zM218 -87l-44 -151h53l91 151h-100z" />
    <glyph glyph-name="uni021B" unicode="&#x21b;" horiz-adv-x="371" 
d="M363 145v-171h-15q-57 0 -108 17q-50 16 -87 47q-39 33 -58 75q-21 44 -21 96v150h-76v161h76v59l172 124v-183h120v-161h-120v-146q0 -33 28 -50q27 -18 74 -18h15zM28 490v-101h76v-180q0 -91 68 -148q63 -52 161 -57v111q-54 4 -85.5 30t-31.5 68v176h120v101h-120
v155l-112 -82v-73h-76zM357 -57l-129 -211h-109l62 211h176zM203 -87l-44 -151h53l91 151h-100z" />
    <glyph glyph-name="circumflex" unicode="&#x2c6;" horiz-adv-x="913" 
d="M456 1038l197 -245h-172l-24 33l-24 -33h-173zM456 877l40 -54h94l-134 167l-133 -167h95z" />
    <glyph glyph-name="caron" unicode="&#x2c7;" horiz-adv-x="913" 
d="M652 1005l-196 -245l-196 245h173l23 -32l24 32h172zM417 975h-95l134 -167l134 167h-95l-39 -53z" />
    <glyph glyph-name="breve" unicode="&#x2d8;" horiz-adv-x="797" 
d="M386 786q-79 0 -134 57q-56 56 -56 134v15h133v-15q0 -25 18 -44t42 -19q23 0 40.5 19t17.5 44v15h132v-15q0 -78 -56 -134q-55 -57 -137 -57zM300 962h-73q5 -57 46 -98q46 -48 113 -48q68 0 116 48q41 41 46 98h-72q-4 -26 -24 -49q-27 -29 -63 -29q-38 0 -64 29
q-21 22 -25 49z" />
    <glyph glyph-name="dotaccent" unicode="&#x2d9;" horiz-adv-x="760" 
d="M380 671q-42 0 -73 31.5t-31 73.5q0 43 30.5 74t73.5 31t73 -30q30 -32 30 -75q0 -41 -30 -73t-73 -32zM380 851q-31 0 -52.5 -22t-21.5 -53q0 -30 22 -52.5t52 -22.5q29 0 51 22.5t22 52.5q0 32 -22 54q-20 21 -51 21z" />
    <glyph glyph-name="ring" unicode="&#x2da;" horiz-adv-x="867" 
d="M420 788q-49 0 -87 36q-37 37 -37 87q0 54 37 91t87 37q54 0 91 -37t37 -91q0 -51 -37.5 -87t-90.5 -36zM420 1009q-38 0 -66 -28q-28 -30 -28 -70q0 -38 28 -65.5t66 -27.5q40 0 69 27.5t29 65.5q0 42 -28 70t-70 28zM420 867q-17 0 -30 13t-13 31q0 20 12.5 33.5
t30.5 13.5q19 0 31 -13t12 -34q0 -19 -12 -31.5t-31 -12.5zM420 928q-13 0 -13 -17q0 -5 4 -9.5t9 -4.5q13 0 13 14q0 17 -13 17z" />
    <glyph glyph-name="ogonek" unicode="&#x2db;" horiz-adv-x="766" 
d="M445 -188q-79 0 -134 55q-54 54 -54 133v15h135v-15q0 -26 14.5 -42t38.5 -16q26 0 42 26l8 14l109 -77l-9 -12q-25 -36 -65 -59q-41 -22 -85 -22zM363 -15h-75q5 -58 44 -97q46 -46 113 -46q68 0 116 56l-58 42q-23 -28 -58 -28q-37 0 -60 26q-17 17 -22 47z" />
    <glyph glyph-name="tilde" unicode="&#x2dc;" horiz-adv-x="847" 
d="M507 793q-30 0 -78 23q-38 18 -54 18q-33 0 -71 -32l-9 -8l-122 91l10 12q70 84 171 84q35 0 81 -20q38 -16 55 -16q23 0 49 31l9 11l124 -89l-10 -13q-32 -41 -65 -63q-43 -29 -90 -29zM375 864q27 0 67 -20q40 -21 65 -21q38 0 74 24q27 18 48 44l-77 56
q-30 -32 -62 -32q-24 0 -66 18q-44 18 -70 18q-81 0 -138 -61l78 -58q21 16 34 23q23 9 47 9z" />
    <glyph glyph-name="hungarumlaut" unicode="&#x2dd;" horiz-adv-x="460" 
d="M480 990l-169 -194h-119l86 194h202zM266 990l-141 -194h-117l58 194h200zM88 960l-40 -134h61l98 134h-119zM298 960l-60 -134h59l117 134h-116z" />
    <glyph glyph-name="uni03A9" unicode="&#x3a9;" horiz-adv-x="837" 
d="M783 123v-138h-298v133l10 4q68 26 109 96q42 70 42 166q0 101 -67 171t-161 70t-161 -70q-68 -71 -68 -171q0 -93 44 -166q41 -70 109 -96l9 -4v-133h-298v138h73q-96 115 -96 261q0 78 31 152q28 68 83 123t123 83q71 31 151 31q81 0 152 -31q70 -29 124 -83
q53 -55 83 -123q30 -72 30 -152q0 -146 -96 -261h72zM515 98v-83h238v78h-113l26 26q111 109 111 265q0 149 -105 254q-103 105 -254 105q-148 0 -253 -105q-105 -107 -105 -254q0 -153 110 -266l25 -25h-112v-78h238v83q-69 30 -114 105q-48 81 -48 181q0 111 76 192
q76 79 183 79t183 -79q75 -80 75 -192q0 -103 -46 -181q-44 -75 -115 -105z" />
    <glyph glyph-name="pi" unicode="&#x3c0;" horiz-adv-x="858" 
d="M737 597v-612h-173v612h-272v-612h-172v612h-90v163h798v-163h-91zM594 627v-612h113v612h91v103h-738v-103h90v-612h112v612h332z" />
    <glyph glyph-name="Bdotaccent" unicode="&#x1e02;" horiz-adv-x="645" 
d="M336 -15h-275v775h254q114 0 180 -49q72 -55 72 -163q0 -76 -45 -124q44 -34 66 -76q27 -50 27 -108q0 -61 -23 -108q-22 -46 -63 -81q-80 -66 -193 -66zM91 730v-715h245q103 0 174 59q75 64 75 166q0 111 -94 170l-16 10l14 13q48 44 48 115q0 92 -60 139
q-58 43 -162 43h-224zM341 125h-125v222h125q53 0 85 -30q30 -30 30 -82q0 -51 -31 -80.5t-84 -29.5zM274 788q-42 0 -73 31.5t-31 73.5q0 43 30.5 74t73.5 31t73 -30q30 -32 30 -75q0 -41 -30 -73t-73 -32zM309 452h-93v168h93q44 0 67 -16q32 -21 32 -68q0 -37 -17 -56
q-25 -28 -82 -28zM246 317v-162h95q43 0 64 21t21 59q0 82 -85 82h-95zM274 968q-31 0 -52.5 -22t-21.5 -53q0 -30 22 -52.5t52 -22.5q29 0 51 22.5t22 52.5q0 32 -22 54q-20 21 -51 21zM246 590v-108h63q43 0 56 14.5t13 39.5q0 31 -19 43q-17 11 -50 11h-63z" />
    <glyph glyph-name="bdotaccent" unicode="&#x1e03;" 
d="M320 -26q-39 0 -76 14q-23 10 -32 16v-19h-172v775h172v-259q50 30 108 30q54 0 102 -22q47 -21 83 -60q78 -81 78 -197q0 -114 -76 -195q-78 -83 -187 -83zM182 15v66q45 -77 138 -77q96 0 164.5 73t68.5 175q0 103 -69 177q-69 72 -164 72q-34 0 -73.5 -16t-64.5 -53
v298h-112v-715h112zM306 115q-56 0 -93 39t-37 98t37 98q36 39 93 39q56 0 94 -38q39 -41 39 -99q0 -59 -39 -98t-94 -39zM306 359q-44 0 -71 -29q-29 -31 -29 -78q0 -48 29 -77q28 -30 71 -30t73 30q30 32 30 77q0 47 -30 77q-29 30 -73 30zM336 552q-42 0 -73 31.5
t-31 73.5q0 43 30.5 74t73.5 31t73 -30q30 -32 30 -75q0 -41 -30 -73t-73 -32zM336 732q-31 0 -52.5 -22t-21.5 -53q0 -30 22 -52.5t52 -22.5q29 0 51 22.5t22 52.5q0 32 -22 54q-19 21 -51 21z" />
    <glyph glyph-name="Ddotaccent" unicode="&#x1e0a;" horiz-adv-x="813" 
d="M379 -15h-318v775h317q170 0 286 -111q119 -111 119 -276t-119 -278q-116 -110 -285 -110zM91 730v-715h288q157 0 265 102q109 103 109 256q0 152 -109 255q-108 102 -266 102h-287zM379 125h-163v495h162q105 0 175 -70q71 -69 71 -177q0 -106 -71 -177
q-69 -71 -174 -71zM246 590v-435h133q91 0 153 62t62 156t-62 156q-63 61 -154 61h-132zM343 788q-42 0 -73 31.5t-31 73.5q0 43 30.5 74t73.5 31t73 -30q30 -32 30 -75q0 -41 -30 -73t-73 -32zM343 968q-31 0 -52.5 -22t-21.5 -53q0 -30 22 -52.5t52 -22.5q29 0 51 22.5
t22 52.5q0 32 -22 54q-19 21 -51 21z" />
    <glyph glyph-name="ddotaccent" unicode="&#x1e0b;" 
d="M282 -26q-109 0 -187 83q-76 81 -76 195q0 117 77 197q38 39 84 60q47 22 102 22q58 0 108 -30v259h172v-775h-172v19q-9 -6 -32 -16q-37 -14 -76 -14zM282 501q-97 0 -164 -72q-69 -74 -69 -177q0 -102 68 -175t165 -73q95 0 138 77v-66h112v715h-112v-298
q-25 37 -64 53t-74 16zM296 115q-55 0 -94 39t-39 98q0 58 39 99q38 38 94 38q57 0 93 -39q37 -39 37 -98t-37 -98t-93 -39zM296 359q-44 0 -73 -30q-30 -30 -30 -77q0 -45 30 -77q30 -30 73 -30t71 30q29 29 29 77q0 47 -29 78q-27 29 -71 29zM265 552q-42 0 -73 31.5
t-31 73.5q0 43 30.5 74t73.5 31t73 -30q30 -32 30 -75q0 -41 -30 -73t-73 -32zM265 732q-31 0 -52.5 -22t-21.5 -53q0 -30 22 -52.5t52 -22.5q29 0 51 22.5t22 52.5q0 32 -22 54q-19 21 -51 21z" />
    <glyph glyph-name="Fdotaccent" unicode="&#x1e1e;" horiz-adv-x="546" 
d="M246 312v-327h-185v775h426v-170h-241v-109h280v-169h-280zM91 730v-715h125v327h280v109h-280v169h241v110h-366zM262 788q-42 0 -73 31.5t-31 73.5q0 43 30.5 74t73.5 31t73 -30q30 -32 30 -75q0 -41 -30 -73t-73 -32zM262 968q-31 0 -52.5 -22t-21.5 -53
q0 -30 22 -52.5t52 -22.5q29 0 51 22.5t22 52.5q0 32 -22 54q-20 21 -51 21z" />
    <glyph glyph-name="fdotaccent" unicode="&#x1e1f;" horiz-adv-x="366" 
d="M253 359v-374h-172v374h-69v161h70q3 106 78 176q77 71 187 71h15v-176h-15q-40 0 -66.5 -20t-27.5 -51h99v-161h-99zM111 389v-374h112v374h99v101h-99v27q0 45 35 75q31 25 74 29v116q-90 -5 -151 -63q-70 -65 -70 -162v-22h-69v-101h69zM234 788q-42 0 -73 31.5
t-31 73.5q0 43 30.5 74t73.5 31t73 -30q30 -32 30 -75q0 -41 -30 -73t-73 -32zM234 968q-31 0 -52.5 -22t-21.5 -53q0 -30 22 -52.5t52 -22.5q29 0 51 22.5t22 52.5q0 32 -22 54q-19 21 -51 21z" />
    <glyph glyph-name="Mdotaccent" unicode="&#x1e40;" horiz-adv-x="946" 
d="M884 789v-804h-184v435l-227 -164l-227 164v-435h-185v804l412 -313zM730 479v-464h124v713l-381 -289l-382 289v-713h125v464l257 -186zM468 788q-42 0 -73 31.5t-31 73.5q0 43 30.5 74t73.5 31t73 -30q30 -32 30 -75q0 -41 -30 -73t-73 -32zM468 968q-31 0 -52.5 -22
t-21.5 -53q0 -30 22 -52.5t52 -22.5q29 0 51 22.5t22 52.5q0 32 -22 54q-19 21 -51 21z" />
    <glyph glyph-name="mdotaccent" unicode="&#x1e41;" horiz-adv-x="950" 
d="M917 252v-267h-171v267q0 52 -27 80q-24 27 -62 27q-40 0 -67 -31t-27 -76v-267h-172v267q0 56 -26 84q-25 23 -68 23q-33 0 -58 -30q-27 -31 -27 -77v-267h-172v535h172v-18q47 29 109 29q59 0 108 -24q38 -18 63 -47q33 36 83 54q46 17 97 17q120 0 185 -82
q60 -75 60 -197zM776 252v-237h111v237q0 110 -54 178q-28 35 -66 52q-41 19 -95 19q-46 0 -86 -15q-51 -18 -82 -59l-13 -17l-12 18q-21 33 -64.5 53t-93.5 20q-93 0 -139 -72v61h-112v-475h112v237q0 56 34 96.5t81 40.5q57 0 89 -32q35 -37 35 -105v-237h112v237
q0 58 35 96q35 41 89 41q52 0 84 -37q35 -38 35 -100zM488 552q-42 0 -73 31.5t-31 73.5q0 43 30.5 74t73.5 31t73 -30q30 -32 30 -75q0 -41 -30 -73t-73 -32zM488 732q-31 0 -52.5 -22t-21.5 -53q0 -30 22 -52.5t52 -22.5q29 0 51 22.5t22 52.5q0 32 -22 54q-19 21 -51 21z
" />
    <glyph glyph-name="Pdotaccent" unicode="&#x1e56;" horiz-adv-x="677" 
d="M246 98v-113h-185v775h269q140 0 236 -98q91 -93 91 -217q0 -150 -95 -248q-96 -99 -242 -99h-74zM91 730v-715h125v113h104q134 0 220.5 89.5t86.5 227.5q0 111 -83 196q-87 89 -214 89h-239zM316 239h-100v381h109q40 0 74 -17q32 -15 55 -44q44 -55 44 -130
q0 -82 -46 -134q-50 -56 -136 -56zM246 590v-321h70q72 0 113 46q39 43 39 114q0 63 -38.5 112t-104.5 49h-79zM268 788q-42 0 -73 31.5t-31 73.5q0 43 30.5 74t73.5 31t73 -30q30 -32 30 -75q0 -41 -30 -73t-73 -32zM268 968q-31 0 -52.5 -22t-21.5 -53q0 -30 22 -52.5
t52 -22.5q29 0 51 22.5t22 52.5q0 32 -22 54q-20 21 -51 21z" />
    <glyph glyph-name="pdotaccent" unicode="&#x1e57;" 
d="M212 3v-259h-172v776h172v-20q52 31 108 31q110 0 187 -82q76 -81 76 -195q0 -115 -78 -198q-77 -82 -188 -82q-61 0 -105 29zM70 490v-716h112v303q49 -73 135 -73q98 0 166 73q70 73 70 177q0 102 -68 175q-69 72 -165 72q-34 0 -73.5 -16.5t-64.5 -53.5v59h-112z
M306 115q-56 0 -93 39t-37 99t37 97q37 39 93 39q54 0 94 -38q39 -37 39 -98q0 -60 -39 -99t-94 -39zM306 359q-43 0 -72 -29q-28 -31 -28 -77q0 -49 29 -78q27 -30 71 -30t73.5 31t29.5 77t-30 76t-73 30zM296 552q-42 0 -73 31.5t-31 73.5q0 43 30.5 74t73.5 31t73 -30
q30 -32 30 -75q0 -41 -30 -73t-73 -32zM296 732q-31 0 -52.5 -22t-21.5 -53q0 -30 22 -52.5t52 -22.5q29 0 51 22.5t22 52.5q0 32 -22 54q-19 21 -51 21z" />
    <glyph glyph-name="Sdotaccent" unicode="&#x1e60;" horiz-adv-x="566" 
d="M276 -28q-69 0 -132 26q-67 29 -120 88l-11 12l153 113l9 -12q37 -48 101 -48q32 0 54 21.5t22 52.5q0 79 -99 90q-102 12 -164 73q-62 62 -62 155q0 96 76 166q34 31 75 47q42 17 83 17q61 0 113 -24q57 -26 99 -77l11 -13l-146 -106l-9 10q-32 32 -68 32
q-25 0 -39.5 -13.5t-14.5 -37.5q0 -21 17 -34q23 -18 73 -21q104 -6 173 -72q73 -70 73 -181q0 -113 -82 -190q-38 -36 -85 -54q-49 -20 -100 -20zM161 170l-103 -76q44 -45 98 -68q55 -24 120 -24q94 0 165 66q72 69 72 168q0 98 -64 159q-61 58 -154 64q-58 3 -90 27
q-28 23 -28 58q0 36 23.5 58.5t60.5 22.5q42 0 80 -33l99 72q-74 79 -179 79q-76 0 -138 -56q-66 -60 -66 -144q0 -81 53.5 -134.5t146.5 -63.5q60 -8 91 -37q34 -32 34 -83q0 -43 -31 -73.5t-75 -30.5q-39 0 -66 12t-49 37zM258 788q-42 0 -73 31.5t-31 73.5q0 43 30.5 74
t73.5 31t73 -30q30 -32 30 -75q0 -41 -30 -73t-73 -32zM258 968q-31 0 -52.5 -22t-21.5 -53q0 -30 22 -52.5t52 -22.5q29 0 51 22.5t22 52.5q0 32 -22 54q-19 21 -51 21z" />
    <glyph glyph-name="sdotaccent" unicode="&#x1e61;" horiz-adv-x="412" 
d="M191 -26q-57 0 -104 21q-45 19 -81 60l-11 12l144 105l9 -10q17 -17 44 -17q23 0 23 19t-32 24q-75 11 -121 57q-49 47 -49 118q0 69 61 121q55 47 120 47q104 0 164 -86l8 -12l-124 -89l-9 8q-18 17 -36 17q-15 0 -15 -11q0 -6 5 -8q9 -6 36 -9q86 -11 131.5 -57
t45.5 -122q0 -84 -61 -137q-59 -51 -148 -51zM136 133l-96 -70q59 -59 151 -59q78 0 128 44q51 44 51 114q0 68 -42 105q-38 35 -108 44q-68 8 -68 47q0 18 12.5 29.5t32.5 11.5q24 0 47 -17l80 58q-48 61 -130 61q-55 0 -101 -40q-50 -42 -50 -98q0 -57 39.5 -96.5
t105.5 -48.5q27 -4 42 -18t15 -36t-13 -35q-16 -14 -40 -14q-32 0 -56 18zM190 552q-42 0 -73 31.5t-31 73.5q0 43 30.5 74t73.5 31t73 -30q30 -32 30 -75q0 -41 -30 -73t-73 -32zM190 732q-31 0 -52.5 -22t-21.5 -53q0 -30 22 -52.5t52 -22.5q29 0 51 22.5t22 52.5
q0 32 -22 54q-20 21 -51 21z" />
    <glyph glyph-name="Tdotaccent" unicode="&#x1e6a;" horiz-adv-x="583" 
d="M378 590v-605h-185v605h-184v170h565v-170h-196zM223 620v-605h125v605h196v110h-505v-110h184zM291 788q-42 0 -73 31.5t-31 73.5q0 43 30.5 74t73.5 31t73 -30q30 -32 30 -75q0 -41 -30 -73t-73 -32zM291 968q-31 0 -52.5 -22t-21.5 -53q0 -30 22 -52.5t52 -22.5
q29 0 51 22.5t22 52.5q0 32 -22 54q-19 21 -51 21z" />
    <glyph glyph-name="tdotaccent" unicode="&#x1e6b;" horiz-adv-x="371" 
d="M363 145v-171h-15q-57 0 -108 17q-50 16 -87 47q-39 33 -58 75q-21 44 -21 96v150h-76v161h76v59l172 124v-183h120v-161h-120v-146q0 -33 28 -50q27 -18 74 -18h15zM28 490v-101h76v-180q0 -91 68 -148q63 -52 161 -57v111q-54 4 -85.5 30t-31.5 68v176h120v101h-120
v155l-112 -82v-73h-76zM167 682q-42 0 -73 31.5t-31 73.5q0 43 30.5 74t73.5 31t73 -30q30 -32 30 -75q0 -41 -30 -73t-73 -32zM167 862q-31 0 -52.5 -22t-21.5 -53q0 -30 22 -52.5t52 -22.5q29 0 51 22.5t22 52.5q0 32 -22 54q-19 21 -51 21z" />
    <glyph glyph-name="Wgrave" unicode="&#x1e80;" horiz-adv-x="1091" 
d="M549 262l-153 -308l-423 806h212l217 -419l53 102l-166 317h212l216 -418l204 418h194l-403 -805zM396 20l152 307l164 -307l355 710h-128l-221 -455l-235 455h-144l150 -287l-87 -167l-235 454h-144zM348 1016l142 -223h-170l-90 138zM271 924l66 -101h98l-96 150z" />
    <glyph glyph-name="wgrave" unicode="&#x1e81;" horiz-adv-x="751" 
d="M776 520l-275 -567l-114 238l-113 -237l-300 566h191l112 -223l29 63l-75 160h169l106 -221l97 221h173zM147 490h-123l248 -469l115 239l114 -238l227 468h-105l-115 -263l-127 263h-102l60 -130l-62 -132zM217 559l-90 138l119 85l141 -223h-170zM332 589l-95 150
l-69 -49l66 -101h98z" />
    <glyph glyph-name="Wacute" unicode="&#x1e82;" horiz-adv-x="1091" 
d="M549 262l-153 -308l-423 806h212l217 -419l53 102l-166 317h212l216 -418l204 418h194l-403 -805zM396 20l152 307l164 -307l355 710h-128l-221 -455l-235 455h-144l150 -287l-87 -167l-235 454h-144zM591 931l-90 -138h-170l141 223zM481 973l-95 -150h98l66 101z" />
    <glyph glyph-name="wacute" unicode="&#x1e83;" horiz-adv-x="751" 
d="M776 520l-275 -567l-114 238l-113 -237l-300 566h191l112 -223l29 63l-75 160h169l106 -221l97 221h173zM147 490h-123l248 -469l115 239l114 -238l227 468h-105l-115 -263l-127 263h-102l60 -130l-62 -132zM484 697l-90 -138h-170l141 223zM374 739l-95 -150h98l66 101z
" />
    <glyph glyph-name="Wdieresis" unicode="&#x1e84;" horiz-adv-x="1091" 
d="M549 262l-153 -308l-423 806h212l217 -419l53 102l-166 317h212l216 -418l204 418h194l-403 -805zM396 20l152 307l164 -307l355 710h-128l-221 -455l-235 455h-144l150 -287l-87 -167l-235 454h-144zM666 790q-32 0 -54 22.5t-22 56.5q0 35 23 56q21 21 53 21
q35 0 56 -21q23 -21 23 -56q0 -34 -23 -57q-22 -22 -56 -22zM406 790q-32 0 -54 22q-23 23 -23 57q0 33 22.5 55t54.5 22q34 0 56 -21.5t22 -55.5t-22 -56q-21 -23 -56 -23zM406 916q-20 0 -33.5 -13t-13.5 -34t13.5 -35t33.5 -14q21 0 34.5 14t13.5 35q0 22 -13 34.5
t-35 12.5zM666 916q-18 0 -32 -12q-14 -14 -14 -35q0 -22 14 -36q15 -13 32 -13q22 0 35.5 14t13.5 35t-13.5 34t-35.5 13z" />
    <glyph glyph-name="wdieresis" unicode="&#x1e85;" horiz-adv-x="751" 
d="M776 520l-275 -567l-114 238l-113 -237l-300 566h191l112 -223l29 63l-75 160h169l106 -221l97 221h173zM147 490h-123l248 -469l115 239l114 -238l227 468h-105l-115 -263l-127 263h-102l60 -130l-62 -132zM507 556q-32 0 -54 22.5t-22 56.5q0 35 23 56q21 21 53 21
q35 0 56 -21q23 -21 23 -56q0 -34 -23 -57q-22 -22 -56 -22zM247 556q-32 0 -54 22q-23 23 -23 57q0 33 22.5 55t54.5 22q34 0 56 -21.5t22 -55.5t-22 -56q-21 -23 -56 -23zM247 682q-20 0 -33.5 -13t-13.5 -34t13.5 -35t33.5 -14q21 0 34.5 14t13.5 35q0 22 -13 34.5
t-35 12.5zM507 682q-19 0 -32 -12q-14 -14 -14 -35q0 -22 14 -36q15 -13 32 -13q22 0 35.5 14t13.5 35t-13.5 34t-35.5 13z" />
    <glyph glyph-name="Ygrave" unicode="&#x1ef2;" horiz-adv-x="774" 
d="M484 236v-251h-184v237l-327 538h213l208 -352l210 352h198zM330 230v-215h124v229l295 486h-128l-227 -380l-225 380h-143zM348 1016l142 -223h-170l-90 138zM271 924l66 -101h98l-96 150z" />
    <glyph glyph-name="ygrave" unicode="&#x1ef3;" horiz-adv-x="584" 
d="M609 520l-361 -776h-180l142 304l-235 472h190l136 -292l134 292h174zM243 49l-128 -275h114l333 716h-108l-152 -333l-156 333h-122zM259 782l142 -223h-170l-90 138zM182 690l66 -101h98l-96 150z" />
    <glyph glyph-name="endash" unicode="&#x2013;" horiz-adv-x="715" 
d="M654 367v-130h-593v130h593zM91 337v-70h533v70h-533z" />
    <glyph glyph-name="emdash" unicode="&#x2014;" horiz-adv-x="1090" 
d="M1028 367v-130h-967v130h967zM91 337v-70h907v70h-907z" />
    <glyph glyph-name="quoteleft" unicode="&#x2018;" horiz-adv-x="220" 
d="M208 773v-257h-191l79 257h112zM118 743l-60 -197h120v197h-60z" />
    <glyph glyph-name="quoteright" unicode="&#x2019;" horiz-adv-x="210" 
d="M214 773l-80 -257h-112v257h192zM52 743v-197h60l61 197h-121z" />
    <glyph glyph-name="quotesinglbase" unicode="&#x201a;" horiz-adv-x="292" 
d="M275 79l-157 -257h-117l77 257h197zM100 49l-59 -197h60l120 197h-121z" />
    <glyph glyph-name="quotedblleft" unicode="&#x201c;" horiz-adv-x="436" 
d="M259 773l-53 -257h-191l119 257h125zM431 773v-257h-191l79 257h112zM153 743l-91 -197h119l41 197h-69zM341 743l-60 -197h120v197h-60z" />
    <glyph glyph-name="quotedblright" unicode="&#x201d;" horiz-adv-x="411" 
d="M436 773l-119 -257h-125l52 257h192zM211 773l-80 -257h-112v257h192zM269 743l-40 -197h69l91 197h-120zM49 743v-197h60l61 197h-121z" />
    <glyph glyph-name="quotedblbase" unicode="&#x201e;" horiz-adv-x="479" 
d="M461 79l-156 -257h-118l68 225l-137 -225h-118l76 257h385zM99 49l-59 -197h61l120 197h-122zM287 49l-59 -197h60l120 197h-121z" />
    <glyph glyph-name="dagger" unicode="&#x2020;" horiz-adv-x="520" 
d="M340 432v-447h-161v447h-142v143h142v185h161v-185h143v-143h-143zM209 462v-447h101v447h143v83h-143v185h-101v-185h-142v-83h142z" />
    <glyph glyph-name="daggerdbl" unicode="&#x2021;" horiz-adv-x="520" 
d="M340 241v-256h-161v256h-142v144h142v47h-142v143h142v185h161v-185h143v-143h-143v-47h143v-144h-143zM209 271v-256h101v256h143v84h-143v107h143v83h-143v185h-101v-185h-142v-83h142v-107h-142v-84h142z" />
    <glyph glyph-name="bullet" unicode="&#x2022;" horiz-adv-x="283" 
d="M142 233q-49 0 -84 35q-32 32 -32 79q0 51 32 83q33 33 84 33q50 0 83 -33q32 -34 32 -83q0 -46 -31 -79q-35 -35 -84 -35zM142 433q-40 0 -62 -24q-24 -24 -24 -62q0 -35 24 -58q23 -26 62 -26q37 0 62 25q23 25 23 59q0 38 -24 62q-23 24 -61 24z" />
    <glyph glyph-name="ellipsis" unicode="&#x2026;" horiz-adv-x="932" 
d="M775 -28q-39 0 -66 27t-27 64q0 39 26.5 65.5t66.5 26.5t66 -26.5t26 -65.5t-25 -64q-27 -27 -67 -27zM775 125q-27 0 -45 -17.5t-18 -44.5q0 -25 18 -43q16 -18 45 -18q28 0 46 18q16 18 16 43q0 27 -17 44q-16 18 -45 18zM466 -28q-39 0 -66 27q-26 26 -26 64
q0 39 26 65q27 27 66 27q40 0 66 -26.5t26 -65.5t-25 -64q-27 -27 -67 -27zM466 125q-27 0 -45 -18q-17 -17 -17 -44q0 -26 17 -43q18 -18 45 -18q28 0 46 18q16 18 16 43q0 27 -17 44q-16 18 -45 18zM157 -28q-39 0 -66 27q-26 26 -26 64q0 39 26 65q27 27 66 27
q40 0 67 -27q25 -27 25 -65q0 -39 -25 -64q-27 -27 -67 -27zM157 125q-27 0 -45 -18q-17 -17 -17 -44q0 -26 17 -43q18 -18 45 -18q28 0 46 18q16 18 16 43q0 27 -17 44q-16 18 -45 18z" />
    <glyph glyph-name="perthousand" unicode="&#x2030;" horiz-adv-x="1317" 
d="M697 760l-342 -775h-158l349 775h151zM702 20q-74 0 -127.5 54t-53.5 127q0 76 54 132q52 54 127 54q79 0 133 -54q53 -55 53 -132q0 -75 -54.5 -128t-131.5 -53zM200 357q-74 0 -127.5 53.5t-53.5 127.5q0 76 54 132q52 54 127 54q79 0 133 -54q53 -55 53 -132
q0 -75 -54.5 -128t-131.5 -53zM1112 20q-74 0 -127.5 54t-53.5 127q0 76 54 132q52 54 127 54q78 0 132 -54q53 -55 53 -132q0 -74 -53 -127q-54 -54 -132 -54zM200 694q-61 0 -106 -45q-45 -47 -45 -111q0 -61 45 -106t106 -45q64 0 110 44.5t46 106.5q0 65 -45 110
q-44 46 -111 46zM702 357q-61 0 -106 -45q-45 -47 -45 -111q0 -61 45 -106t106 -45q64 0 110 44.5t46 106.5q0 65 -45 110q-44 46 -111 46zM1112 357q-61 0 -106 -45q-45 -47 -45 -111q0 -61 45 -106t106 -45q66 0 111 45q44 42 44 106q0 65 -45 110.5t-110 45.5zM565 730
l-321 -715h92l315 715h-86zM702 125q-29 0 -50.5 22.5t-21.5 53.5q0 34 20.5 57t51.5 23q34 0 55 -23q20 -22 20 -57q0 -31 -20 -53q-21 -23 -55 -23zM200 462q-29 0 -50.5 22.5t-21.5 53.5q0 34 20.5 57t51.5 23q34 0 55 -23q20 -22 20 -57q0 -31 -20 -53q-21 -23 -55 -23z
M1112 125q-31 0 -51 23q-22 22 -22 53q0 34 21 57t52 23q33 0 53.5 -22.5t20.5 -57.5q0 -32 -21 -54t-53 -22zM200 588q-18 0 -30 -14t-12 -36q0 -19 12.5 -32.5t29.5 -13.5q18 0 31.5 12t13.5 34q0 23 -12 36.5t-33 13.5zM1112 251q-18 0 -30.5 -14t-12.5 -36
q0 -19 13 -32.5t30 -13.5q19 0 32 13q12 14 12 33q0 23 -12 36.5t-32 13.5zM702 251q-18 0 -30 -14t-12 -36q0 -19 12.5 -32.5t29.5 -13.5q18 0 31.5 12.5t13.5 33.5q0 23 -12 36.5t-33 13.5z" />
    <glyph glyph-name="guilsinglleft" unicode="&#x2039;" horiz-adv-x="425" 
d="M413 201l-81 -117l-337 288l337 289l81 -117l-206 -172zM326 616l-285 -244l285 -243l46 67l-212 176l212 177z" />
    <glyph glyph-name="guilsinglright" unicode="&#x203a;" horiz-adv-x="425" 
d="M95 84l-81 117l206 171l-206 172l81 117l337 -289zM386 372l-285 244l-46 -67l212 -177l-212 -176l46 -67z" />
    <glyph glyph-name="fraction" unicode="&#x2044;" horiz-adv-x="227" 
d="M371 760l-342 -775h-158l348 775h152zM238 730l-320 -715h92l315 715h-87z" />
    <glyph glyph-name="Euro" unicode="&#x20ac;" horiz-adv-x="770" 
d="M476 -28q-120 0 -217 65q-91 59 -140 159h-100v158h59q-1 3 -1 12v5h-58v159h91q46 107 140 172q100 71 225 71q82 0 154 -36q71 -35 123 -96l10 -13l-147 -108l-9 11q-53 64 -130 64q-86 0 -148 -65h160v-159h-222v-9q0 -4 1 -8h221v-158h-140q22 -17 43 -27
q40 -18 85 -18q77 0 129 63l9 10l148 -109l-10 -12q-112 -131 -276 -131zM49 324v-98h89l4 -9q44 -97 133 -155q92 -60 201 -60q74 0 141 32q61 31 101 77l-99 73q-60 -63 -143 -63q-52 0 -97 21q-46 21 -79 59l-22 25h180v98h-218q-4 13 -4 41q0 12 1 22l2 14h219v99h-191
l17 24q35 48 85.5 74.5t106.5 26.5q83 0 144 -64l98 72q-43 48 -102 77q-66 33 -141 33q-114 0 -208 -65q-92 -64 -133 -169l-3 -9h-82v-99h61l-2 -16q-1 -11 -1 -19q0 -13 1 -26l2 -16h-61z" />
    <glyph glyph-name="uni2116" unicode="&#x2116;" horiz-adv-x="1303" 
d="M776 760v-805l-530 441v-411h-185v807l530 -445v413h185zM91 727v-712h125v445l530 -441v711h-125v-448zM1051 166q-92 0 -157.5 66t-65.5 158q0 94 66 160q65 65 157 65q95 0 160 -65t65 -160q0 -93 -65 -158q-68 -66 -160 -66zM1051 585q-80 0 -136 -56
q-57 -57 -57 -139q0 -80 56.5 -137t136.5 -57q81 0 138 57t57 137q0 82 -56 138q-57 57 -139 57zM1276 123v-138h-450v138h450zM1053 281q-42 0 -73 33q-31 34 -31 76q0 45 31 76q30 32 73 32q44 0 74 -32q29 -31 29 -76q0 -44 -30.5 -76.5t-72.5 -32.5zM856 93v-78h390v78
h-390zM1053 468q-30 0 -52 -23t-22 -55q0 -31 22.5 -55t51.5 -24t51 24t22 55q0 34 -21 56q-22 22 -52 22z" />
    <glyph glyph-name="trademark" unicode="&#x2122;" horiz-adv-x="861" 
d="M800 789v-464h-130v201l-99 -70l-97 70v-201h-134v463l231 -173zM235 634v-309h-133v309h-93v126h320v-126h-94zM700 584v-229h70v373l-199 -150l-201 150v-373h74v230l127 -92zM132 664v-309h73v309h94v66h-260v-66h93z" />
    <glyph glyph-name="onethird" unicode="&#x2153;" horiz-adv-x="919" 
d="M694 -23q-45 0 -87 24q-41 24 -69 63l-9 12l115 83l9 -11q24 -30 41 -30q16 0 27.5 12.5t11.5 29.5q0 16 -10.5 28.5t-28.5 12.5h-107l83 161h-102v133h317l-93 -177q38 -23 60 -58q27 -42 27 -95q0 -80 -54 -134q-52 -54 -131 -54zM656 760l-342 -775h-158l348 775h152z
M252 760v-509h-142v376h-56v133h198zM524 730l-322 -715h92l316 715h-86zM638 119l-67 -49q55 -63 123 -63q65 0 110 45q45 47 45 113q0 44 -22 79t-62 54l-14 7l84 160h-237v-73h122l-83 -161h57q30 0 48 -20q21 -23 21 -51q0 -30 -20 -51t-49 -21t-56 31zM140 657v-376h82
v449h-138v-73h56z" />
    <glyph glyph-name="twothirds" unicode="&#x2154;" horiz-adv-x="1049" 
d="M379 384v-133h-364l134 218q-37 12 -66 44q-36 41 -36 98q0 63 44 110q46 48 111 48t112 -45q46 -46 46 -113q0 -49 -24 -86l-87 -141h130zM824 -23q-43 0 -87 25q-39 21 -69 63l-9 12l115 83l9 -12q23 -30 41 -30q16 0 27.5 12.5t11.5 29.5t-10.5 29t-28.5 12h-107
l83 161h-102v133h317l-93 -177q36 -21 59 -58q27 -42 27 -95q0 -78 -53 -133q-55 -55 -131 -55zM786 760l-342 -775h-158l348 775h152zM197 489l-128 -208h280v73h-154l115 187q20 32 20 70q0 54 -37 91t-91 37q-53 0 -89 -39q-36 -38 -36 -89q0 -46 29 -78q28 -32 70 -40z
M654 730l-322 -715h92l316 715h-86zM768 119l-67 -49q55 -63 123 -63q65 0 109 46q45 47 45 112q0 43 -22 78.5t-61 55.5l-13 7l83 159h-237v-73h122l-83 -161h57q29 0 48 -19q21 -19 21 -52q0 -29 -20.5 -50.5t-48.5 -21.5q-27 0 -56 31zM205 558q-21 0 -36.5 15.5
t-15.5 36.5q0 22 15.5 37t36.5 15t36.5 -15t15.5 -37q0 -21 -15.5 -36.5t-36.5 -15.5zM205 632q-9 0 -15.5 -6.5t-6.5 -15.5q0 -8 6.5 -15t15.5 -7t15.5 7t6.5 15q0 9 -6.5 15.5t-15.5 6.5z" />
    <glyph glyph-name="oneeighth" unicode="&#x215b;" horiz-adv-x="904" 
d="M687 -23q-75 0 -128.5 53.5t-53.5 129.5q0 59 42 116q-17 32 -17 69q0 65 47 112q44 46 110 46q67 0 113 -46t46 -112q0 -38 -16 -69q40 -50 40 -116q0 -78 -52 -130q-53 -53 -131 -53zM656 760l-342 -775h-158l349 775h151zM687 473q-52 0 -89 -37q-38 -38 -38 -91
q0 -33 18 -62l6 -9l-7 -9q-42 -50 -42 -105q0 -63 45 -108t107 -45q65 0 109 44.5t44 108.5q0 59 -40 105l-7 9l6 9q17 28 17 62q0 54 -37 91t-92 37zM252 760v-509h-142v376h-56v133h198zM524 730l-321 -715h92l315 715h-86zM140 657v-376h82v449h-138v-73h56zM687 88
q-28 0 -48 22q-20 20 -20 50t20 50q19 21 48 21t49 -20.5t20 -50.5t-20 -51t-49 -21zM687 296q-18 0 -32 14q-15 15 -15 35t15 35q14 14 32 14q20 0 34 -14.5t14 -34.5q0 -21 -13.5 -35t-34.5 -14zM687 201q-16 0 -27 -12t-11 -29t11.5 -29.5t26.5 -12.5q16 0 27.5 12.5
t11.5 29.5t-11 29t-28 12zM687 364q-6 0 -11.5 -5.5t-5.5 -13.5t5.5 -13.5t11.5 -5.5q18 0 18 19q0 8 -5.5 13.5t-12.5 5.5z" />
    <glyph glyph-name="threeeighths" unicode="&#x215c;" horiz-adv-x="947" 
d="M187 242q-91 0 -156 87l-9 12l116 85l9 -12q22 -30 40 -30q17 0 28 12t11 30t-11 29.5t-28 11.5h-107l84 160h-103v133h318l-93 -176q36 -22 59 -58q27 -42 27 -95q0 -81 -54 -135q-52 -54 -131 -54zM736 760l-342 -775h-158l347 775h153zM856 95v-110h-137v110h-205
l175 400h148l-96 -224h115v-43h61v-133h-61zM603 730l-321 -715h92l316 715h-87zM132 384l-68 -49q55 -63 123 -63q65 0 110 45q45 47 45 114q0 43 -22 78.5t-61 55.5l-13 6l83 159h-238v-73h123l-84 -160h57q29 0 49 -20t20 -51t-20 -51q-20 -21 -49 -21q-27 0 -55 30z
M749 125v-110h77v110h61v73h-61v43h-77v-43h-72l114 267h-82l-149 -340h189z" />
    <glyph glyph-name="fiveeighths" unicode="&#x215d;" horiz-adv-x="982" 
d="M765 -23q-75 0 -128.5 53.5t-53.5 129.5q0 60 43 116q-17 32 -17 69q0 64 46 112q44 46 110 46q67 0 113 -46t46 -112q0 -38 -16 -69q41 -52 41 -116q0 -75 -53 -130q-53 -53 -131 -53zM176 242q-42 0 -83.5 23t-70.5 62l-8 12l114 87l9 -14q18 -28 39 -28q47 0 47 42
q0 41 -40 41h-124v293h256v-133h-122v-19q79 -3 126.5 -51t47.5 -124q0 -82 -54.5 -136.5t-136.5 -54.5zM731 760l-342 -775h-158l349 775h151zM765 473q-52 0 -89 -37q-37 -39 -37 -91q0 -33 18 -62l6 -9l-7 -9q-43 -51 -43 -105q0 -63 45 -108t107 -45q65 0 110 45
q44 42 44 108q0 60 -41 105l-7 9l6 9q17 28 17 62q0 54 -37 91t-92 37zM122 383l-66 -50q51 -61 120 -61q68 0 115 45q46 46 46 116q0 66 -42 105.5t-112 39.5h-20v79h122v73h-196v-233h94q33 0 51.5 -19t18.5 -52q0 -34 -23 -54q-20 -18 -54 -18q-30 0 -54 29zM599 730
l-321 -715h92l315 715h-86zM765 88q-28 0 -47.5 21t-19.5 51t19.5 50.5t47.5 20.5q30 0 49.5 -20.5t19.5 -50.5q0 -31 -19 -50q-20 -22 -50 -22zM765 296q-19 0 -32.5 14.5t-13.5 34.5t13.5 34.5t32.5 14.5q20 0 34 -14.5t14 -34.5q0 -21 -13.5 -35t-34.5 -14zM765 201
q-16 0 -26.5 -12t-10.5 -29t11 -29.5t26 -12.5q17 0 28 12t11 30t-11 29.5t-28 11.5zM765 364q-6 0 -11 -5.5t-5 -13.5t5 -13.5t11 -5.5q18 0 18 19q0 8 -5.5 13.5t-12.5 5.5z" />
    <glyph glyph-name="seveneighths" unicode="&#x215e;" horiz-adv-x="914" 
d="M697 -23q-75 0 -128.5 53.5t-53.5 129.5q0 60 43 116q-17 32 -17 69q0 64 46 112q44 46 110 46q67 0 113 -46t46 -112q0 -39 -16 -68q41 -51 41 -117q0 -75 -53 -130q-53 -53 -131 -53zM663 760l-342 -775h-158l349 775h151zM697 473q-52 0 -89 -37q-37 -39 -37 -91
q0 -33 18 -62l6 -9l-7 -9q-43 -51 -43 -105q0 -63 45 -108t107 -45q65 0 110 45q44 42 44 108q0 59 -40 105l-7 8l6 10q16 26 16 62q0 54 -37 91t-92 37zM414 760l-260 -509h-154l190 376h-158v133h382zM531 730l-321 -715h92l315 715h-86zM239 657l-190 -376h86l230 449
h-303v-73h177zM697 88q-28 0 -47.5 21t-19.5 51t19.5 50.5t47.5 20.5q30 0 49.5 -20.5t19.5 -50.5q0 -31 -19 -50q-20 -22 -50 -22zM697 296q-19 0 -32.5 14.5t-13.5 34.5t13.5 34.5t32.5 14.5q20 0 34 -14.5t14 -34.5q0 -21 -13.5 -35t-34.5 -14zM697 201q-16 0 -26.5 -12
t-10.5 -29t11 -29.5t26 -12.5q17 0 28 12t11 30t-11 29.5t-28 11.5zM697 364q-6 0 -11 -5.5t-5 -13.5t5 -13.5t11 -5.5q18 0 18 19q0 8 -5.5 13.5t-12.5 5.5z" />
    <glyph glyph-name="partialdiff" unicode="&#x2202;" horiz-adv-x="617" 
d="M296 -26q-114 0 -196 82q-38 38 -59 88q-22 53 -22 108q0 116 81 197q82 82 196 82q62 0 119 -35q-7 41 -38 67q-34 30 -97 36l-14 1v143h15q74 0 139 -34q69 -37 108 -102q49 -81 49 -265v-90q0 -58 -22 -108q-21 -50 -61 -88q-39 -39 -89 -60q-51 -22 -109 -22z
M296 501q-103 0 -174 -73q-73 -73 -73 -176q0 -102 73 -175q71 -73 174 -73q49 0 97 20q45 18 80 53q74 72 74 175v90q0 176 -44 249q-32 53 -87.5 85.5t-119.5 35.5v-85q61 -7 101 -41q50 -44 50 -120v-30l-24 18q-63 47 -127 47zM296 106q-61 0 -100 41q-42 42 -42 105
t42 105q40 42 100 42q63 0 103 -42q41 -41 41 -105t-41 -105q-39 -41 -103 -41zM296 369q-46 0 -79 -33q-33 -35 -33 -84q0 -51 33 -84q32 -32 79 -32q50 0 82 32t32 84t-32 84q-33 33 -82 33z" />
    <glyph glyph-name="Delta" unicode="&#x2206;" horiz-adv-x="767" 
d="M384 792l404 -807h-809zM384 725l-357 -710h713zM384 518l190 -393h-383zM384 449l-145 -294h287z" />
    <glyph glyph-name="product" unicode="&#x220f;" horiz-adv-x="740" 
d="M678 760v-775h-172v612h-273v-612h-172v775h617zM536 627v-612h112v715h-557v-715h112v612h333z" />
    <glyph glyph-name="summation" unicode="&#x2211;" horiz-adv-x="561" 
d="M545 132v-147h-555l243 391l-243 384h555v-147h-283l149 -239l-149 -242h283zM269 376l-225 -361h471v87h-307l167 272l-167 269h307v87h-471z" />
    <glyph glyph-name="minus" unicode="&#x2212;" horiz-adv-x="623" 
d="M569 424v-142h-515v142h515zM84 394v-82h455v82h-455z" />
    <glyph glyph-name="radical" unicode="&#x221a;" horiz-adv-x="774" 
d="M823 857l-482 -957l-199 394h-101v130h186l116 -228l333 661h147zM71 394v-70h89l181 -358l434 861h-81l-351 -697l-134 264h-138z" />
    <glyph glyph-name="infinity" unicode="&#x221e;" horiz-adv-x="975" 
d="M690 10q-122 0 -203 95q-36 -42 -79 -64q-57 -31 -121 -31q-110 0 -187 77t-77 186q0 110 77 187q76 76 186 76q65 0 122 -30q45 -22 79 -63q80 93 202 93q110 0 186 -76q77 -77 77 -187q0 -109 -77 -186t-185 -77zM475 138l12 17l12 -17q34 -47 84 -72.5t107 -25.5
q96 0 164 68.5t68 164.5q0 98 -68 166q-69 67 -165 67q-118 0 -190 -97l-12 -16l-12 17q-31 43 -81 69q-51 27 -108 27q-96 0 -165 -67q-68 -68 -68 -166q0 -96 68 -164q69 -69 166 -69q117 0 188 98zM287 118q-62 0 -106 46t-44 109q0 64 44 110q43 45 105 45
q66 0 113 -45.5t47 -109.5q0 -66 -46 -110q-47 -45 -113 -45zM690 118q-66 0 -113 45q-48 46 -48 110q0 65 48 110q47 45 112 45q62 0 105.5 -45.5t43.5 -109.5t-43 -109q-44 -46 -105 -46zM286 398q-49 0 -83 -36q-36 -38 -36 -89q0 -52 35 -88.5t85 -36.5q54 0 91.5 36.5
t37.5 88.5t-38 88.5t-92 36.5zM689 398q-53 0 -91.5 -37t-38.5 -88t39 -88t92 -37q49 0 84 37q34 36 34 88t-35 88.5t-84 36.5z" />
    <glyph glyph-name="integral" unicode="&#x222b;" horiz-adv-x="496" 
d="M11 -306q-121 0 -199 99l-10 12l127 93l9 -10q30 -37 73 -37q28 0 48 18.5t20 43.5v725q0 92 71 158q67 61 160 61q123 0 199 -99l10 -12l-127 -94l-9 12q-29 36 -73 36q-27 0 -47.5 -18.5t-20.5 -43.5v-725q0 -95 -71 -158q-67 -61 -160 -61zM-76 -142l-79 -59
q34 -37 74 -55q43 -20 92 -20q82 0 140 53q61 55 61 136v725q0 38 30 65q29 27 68 27q51 0 87 -37l79 59q-35 38 -74 55q-43 20 -92 20q-80 0 -140 -54q-61 -55 -61 -135v-725q0 -39 -29 -65q-28 -27 -69 -27q-50 0 -87 37z" />
    <glyph glyph-name="approxequal" unicode="&#x2248;" horiz-adv-x="594" 
d="M382 150q-28 0 -74 21q-42 20 -59 20q-30 0 -71 -32l-9 -7l-122 89l10 12q37 45 78 66q39 19 93 19q31 0 77 -18q45 -18 60 -18q21 0 49 31l9 11l122 -91l-9 -12q-33 -41 -65 -62q-44 -29 -89 -29zM249 221q26 0 68 -20q38 -21 65 -21q37 0 72 24q25 16 48 44l-75 55
q-33 -31 -62 -31q-25 0 -67 18t-70 18q-82 0 -137 -62l78 -57q41 32 80 32zM382 384q-30 0 -76 23q-36 18 -57 18q-30 0 -71 -32l-9 -7l-122 89l10 12q37 45 78 66q39 19 93 19q37 0 77 -18q38 -18 60 -18q21 0 49 31l9 11l122 -91l-9 -12q-33 -41 -65 -62q-44 -29 -89 -29z
M249 455q26 0 68 -20q38 -21 65 -21q37 0 72 24q25 16 48 44l-75 55q-33 -31 -62 -31q-25 0 -67 18t-70 18q-82 0 -137 -62l78 -57q41 32 80 32z" />
    <glyph glyph-name="notequal" unicode="&#x2260;" horiz-adv-x="588" 
d="M284 165l-34 -77h-158l34 77h-72v142h136l42 92h-178v142h242l37 84h152l-36 -84h84v-142h-147l-40 -92h187v-142h-249zM172 195l-34 -77h92l34 77h239v82h-203l66 152h137v82h-100l36 84h-86l-37 -84h-232v-82h194l-68 -152h-126v-82h88z" />
    <glyph glyph-name="lessequal" unicode="&#x2264;" horiz-adv-x="427" 
d="M373 325v-300h-347v132h340l-342 292l349 298v-171l-150 -127zM343 682l-273 -233l273 -233v95l-166 138l166 141v92zM56 127v-72h287v72h-287z" />
    <glyph glyph-name="greaterequal" unicode="&#x2265;" horiz-adv-x="427" 
d="M54 25v300l150 124l-150 127v171l349 -298l-342 -292h340v-132h-347zM371 55v72h-287v-72h287zM357 449l-273 233v-92l166 -141l-166 -138v-95z" />
    <glyph glyph-name="lozenge" unicode="&#x25ca;" horiz-adv-x="692" 
d="M714 374l-366 -405l-369 405l369 406zM348 736l-328 -362l328 -361l325 361zM573 374l-227 -253l-224 253l224 248zM346 578l-183 -204l183 -208l186 208z" />
    <glyph glyph-name="smileface" unicode="&#x263a;" horiz-adv-x="861" 
d="M430 -28q-81 0 -156 32q-70 29 -127 86t-86 127q-31 72 -31 155q0 84 31 156q30 72 86 128q57 57 127 86q72 31 156 31t156 -31q72 -30 128 -86t86 -128q31 -72 31 -156q0 -166 -117.5 -283t-283.5 -117zM430 743q-152 0 -262 -108q-108 -108 -108 -263q0 -74 29 -143
q30 -69 79 -118q51 -51 118 -80q69 -29 144 -29q153 0 262 108.5t109 261.5q0 155 -108 263t-263 108zM430 56q-130 0 -219 92t-89 224q0 134 89 226.5t219 92.5t221 -93q90 -93 90 -226q0 -131 -90 -224q-90 -92 -221 -92zM430 661q-117 0 -198 -84q-80 -83 -80 -205
q0 -120 80 -203q81 -83 198 -83q118 0 199 83q82 84 82 203q0 121 -82 205t-199 84zM435 134q-86 0 -146 55q-59 56 -61 138v19h116v-19q2 -35 27 -57q26 -24 64 -24q35 0 62 25t31 61l1 14h117l-1 -16q-5 -80 -66 -138t-144 -58zM315 316h-56q5 -61 50 -105q52 -47 126 -47
q71 0 124 50q45 43 54 102h-57q-9 -40 -39 -68q-35 -32 -82 -32q-45 0 -79.5 29t-40.5 71zM574 395q-32 0 -54 22q-20 22 -20 52q0 33 21 52q22 22 53 22q32 0 54 -21.5t22 -52.5q0 -29 -21 -52q-24 -22 -55 -22zM297 395q-32 0 -54 22q-20 22 -20 52q0 33 21 52
q22 22 53 22q32 0 54 -21.5t22 -52.5q0 -29 -21 -52q-24 -22 -55 -22zM297 513q-19 0 -31.5 -12.5t-12.5 -31.5t12 -31q12 -13 32 -13t33 12.5t13 31.5t-13 31.5t-33 12.5zM574 513q-19 0 -31.5 -12.5t-12.5 -31.5t12 -31q12 -13 32 -13t33 12.5t13 31.5t-13 31.5t-33 12.5z
" />
    <glyph glyph-name="invsmileface" unicode="&#x263b;" horiz-adv-x="861" 
d="M430 -28q-81 0 -156 32q-70 29 -127 86t-86 127q-31 72 -31 155q0 84 31 156q30 72 86 128q57 57 127 86q72 31 156 31t156 -31q72 -30 128 -86t86 -128q31 -72 31 -156q0 -166 -117.5 -283t-283.5 -117zM430 743q-152 0 -262 -108q-108 -108 -108 -263q0 -74 29 -143
q30 -69 79 -118q51 -51 118 -80q69 -29 144 -29q153 0 262 108.5t109 261.5q0 155 -108 263t-263 108zM435 134q-86 0 -146 55q-59 56 -61 138v19h116v-19q2 -35 27 -57q26 -24 64 -24q35 0 62 25t31 61l1 14h117l-1 -16q-5 -80 -66 -138t-144 -58zM315 316h-56
q5 -61 50 -105q52 -47 126 -47q71 0 124 50q45 43 54 102h-57q-9 -40 -39 -68q-35 -32 -82 -32q-45 0 -79.5 29t-40.5 71zM574 395q-32 0 -54 22q-20 22 -20 52q0 33 21 52q22 22 53 22q32 0 54 -21.5t22 -52.5q0 -29 -21 -52q-24 -22 -55 -22zM297 395q-32 0 -54 22
q-20 22 -20 52q0 33 21 52q22 22 53 22q32 0 54 -21.5t22 -52.5q0 -29 -21 -52q-24 -22 -55 -22zM297 513q-19 0 -31.5 -12.5t-12.5 -31.5t12 -31q12 -13 32 -13t33 12.5t13 31.5t-13 31.5t-33 12.5zM574 513q-19 0 -31.5 -12.5t-12.5 -31.5t12 -31q12 -13 32 -13t33 12.5
t13 31.5t-13 31.5t-33 12.5z" />
    <glyph glyph-name="longs_t" unicode="&#xfb05;" horiz-adv-x="779" 
d="M555 -26q-110 0 -183 78l-11 12l139 106l9 -7q23 -18 50 -18q7 0 14 5t7 14q0 14 -22 19q-64 6 -104 54q-41 47 -41 121v161q0 35 -20 54.5t-55 19.5q-40 0 -64 -20t-24 -54v-534h-172v292h-58v171h58v71q0 109 78 182q36 35 82 53q44 18 98 18q106 0 177 -71
q72 -72 72 -182v-167q0 -15 7 -16q66 -8 112 -49q53 -48 53 -126q0 -79 -60 -133q-59 -54 -142 -54zM500 133l-94 -72q63 -57 149 -57q72 0 122 45.5t50 111.5q0 65 -41 99.5t-101 46.5q-30 5 -30 45v167q0 96 -63 161q-62 62 -156 62q-46 0 -87 -16q-38 -16 -72 -46
q-69 -64 -69 -161v-101h-58v-111h58v-292h112v504q0 48 34 77q33 27 84 27q49 0 77 -28q28 -30 28 -76v-161q0 -60 32 -99t86 -47q22 -3 35.5 -16.5t13.5 -31.5q0 -22 -15.5 -35.5t-35.5 -13.5q-32 0 -59 18z" />
    </font>
</defs>
</svg>
